4d54 6864 0000 0006 0001 0019 0060 4d54
726b 0000 0108 00ff 5804 0402 1808 00ff
5902 0100 00ff 5103 082c a200 ff06 0f41
6e64 2054 6865 6e20 4920 4b6e 6577 a100
ff06 0641 2030 3a32 319e 00ff 0604 303a
3432 aa00 ff06 0742 2020 313a 3132 9800
ff06 0431 3a32 399e 00ff 0607 4320 2031
3a35 30aa 00ff 0610 4775 6974 2e20 736f
6c6f 2020 323a 3230 a400 ff06 0432 3a34
35b0 00ff 0604 333a 3139 9800 ff06 0433
3a33 3698 00ff 0604 333a 3533 a400 ff06
0741 2020 343a 3138 aa00 ff06 0742 2020
343a 3438 9800 ff06 0435 3a30 349e 00ff
0607 4320 2035 3a32 36aa 00ff 0607 4420
2035 3a35 3598 00ff 0607 4520 2036 3a31
3298 00ff 0604 363a 3239 9800 ff06 0436
3a34 3698 00ff 0604 373a 3033 9800 ff06
0946 6164 6520 373a 3230 00ff 2f00 4d54
726b 0000 001c 00ff 2101 0000 ff03 0f41
4e44 2054 4845 4e20 4920 4b4e 4557 00ff
2f00 4d54 726b 0000 0018 00ff 2101 0000
ff03 0b50 6174 204d 6574 6865 6e79 00ff
2f00 4d54 726b 0000 0020 00ff 2101 0000
ff03 1366 726f 6d20 3a20 5765 204c 6976
6520 4865 7265 00ff 2f00 4d54 726b 0000
0028 00ff 2101 0000 ff03 1b53 6571 7565
6e63 6564 2020 6279 2050 6965 7272 6520
4865 6265 7274 00ff 2f00 4d54 726b 0000
0021 00ff 2101 0000 ff03 1470 6865 6265
7274 4071 6263 2e63 6c69 632e 6e65 7400
ff2f 004d 5472 6b00 0037 7d00 ff21 0100
00ff 0305 5069 616e 6f00 c000 00b0 0772
00b0 0a4f 00b0 7900 010b 7f01 5b3c 015d
0082 7e90 3c72 0039 7200 406b 0037 6c00
2953 2540 0001 3c00 0139 0000 3700 0329
007e 406b 003c 7600 3972 0037 7200 295a
113c 0002 4000 0039 0001 2900 0237 0032
3565 003a 7200 3970 0030 6600 3e70 783e
0006 3500 023a 0001 3900 0930 0006 2665
003c 7000 3464 0035 6800 3965 1c35 0002
3400 0126 0001 3900 013c 0081 4f2e 5b00
4164 003c 6000 3e66 0045 600b 4500 0041
0001 3e00 033c 0001 2e00 203a 6b00 336b
0041 5e00 3e68 0037 6c58 3700 053a 0000
3e00 0241 0000 3300 313c 6400 4062 0039
6100 3562 0026 6172 2600 0240 0003 3c00
0039 0000 3500 0135 6800 3968 0040 6000
3c69 0026 780d 3900 013c 0000 3500 0326
0003 4000 343a 7500 416b 003e 7400 396c
002b 5f33 3900 003e 0000 3a00 0141 0020
2b00 833c 3c72 0039 7200 406b 0037 6c00
2953 2540 0001 3c00 0139 0000 3700 0329
007e 406b 003c 7600 3972 0037 7200 295a
113c 0002 4000 0039 0001 2900 0237 0032
3565 003a 7200 3970 0030 6600 3e70 783e
0006 3500 023a 0001 3900 0930 0006 2665
003c 7000 3464 0035 6800 3965 1c35 0002
3400 0126 0001 3900 013c 0081 4f45 6000
3c65 003e 6500 2d53 0041 650d 4100 013e
0001 2d00 0245 0001 3c00 1e3d 6700 3968
003b 6e00 4165 002b 5a00 3558 601f 6e0b
3500 0139 0000 2b00 013b 0001 3d00 0141
001c 1f00 033e 6c00 3a72 0039 6800 4165
012b 6126 4100 013a 0002 3e00 0039 0006
2b00 301f 652c 1f00 042b 5f00 3e6e 003a
7200 3967 0041 6727 4100 0039 0001 3a00
003e 0005 2b00 8115 3e69 0041 7400 3a65
0039 5700 1f66 3043 692e 4100 0245 700a
4300 2641 6405 4500 111f 0005 3e00 0341
0001 3a00 0439 003b 415a 003a 5200 3e4e
021f 5e05 3a00 023e 0001 4100 031f 0023
3e6f 0041 7900 3a6d 0039 5f02 1f75 5639
0000 3a00 003e 0002 4100 0f1f 0085 793c
7200 3972 0040 6b00 376c 0029 5325 4000
013c 0001 3900 0037 0003 2900 7e40 6b00
3c76 0039 7200 3772 0029 5a11 3c00 0240
0000 3900 0129 0002 3700 3235 6500 3a72
0039 7000 3066 003e 7078 3e00 0635 0002
3a00 0139 0009 3000 0626 6500 3c70 0034
6400 3568 0039 651c 3500 0234 0001 2600
0139 0001 3c00 814f 2e5b 0041 6400 3c60
003e 6600 4560 0b45 0000 4100 013e 0003
3c00 012e 0020 3a6b 0033 6b00 415e 003e
6800 376c 5837 0005 3a00 003e 0002 4100
0033 0031 3c64 0040 6200 3961 0035 6200
2661 7226 0002 4000 033c 0000 3900 0035
0001 3568 0039 6800 4060 003c 6900 2678
0d39 0001 3c00 0035 0003 2600 0340 0034
3a75 0041 6b00 3e74 0039 6c00 2b5f 3339
0000 3e00 003a 0001 4100 202b 0083 3c3c
7200 3972 0040 6b00 376c 0029 5325 4000
013c 0001 3900 0037 0003 2900 7e40 6b00
3c76 0039 7200 3772 0029 5a11 3c00 0240
0000 3900 0129 0002 3700 3235 6500 3a72
0039 7000 3066 003e 7078 3e00 0635 0002
3a00 0139 0009 3000 0626 6500 3c70 0034
6400 3568 0039 651c 3500 0234 0001 2600
0139 0001 3c00 814f 4560 003c 6500 3e65
002d 5300 4165 0d41 0001 3e00 012d 0002
4500 013c 001e 3d67 0039 6800 3b6e 0041
6500 2b5a 0035 5860 1f6e 0b35 0001 3900
002b 0001 3b00 013d 0001 4100 1c1f 0003
3e6c 003a 7200 3968 0041 6501 2b61 2641
0001 3a00 023e 0000 3900 062b 0030 1f65
2c1f 0004 2b5f 003e 6e00 3a72 0039 6700
4167 2741 0000 3900 013a 0000 3e00 052b
0081 153e 6900 4174 003a 6500 3957 001f
6630 4369 2e41 0002 4570 0a43 0026 4164
0545 0011 1f00 053e 0003 4100 013a 0004
3900 3b41 5a00 3a52 003e 4e02 1f5e 053a
0002 3e00 0141 0003 1f00 233e 6f00 4179
003a 6d00 395f 021f 7556 3900 003a 0000
3e00 0241 000f 1f00 8579 3c72 0039 7200
406b 0037 6c00 2953 2540 0001 3c00 0139
0000 3700 0329 007e 406b 003c 7600 3972
0037 7200 295a 113c 0002 4000 0039 0001
2900 0237 0032 3565 003a 7200 3970 0030
6600 3e70 783e 0006 3500 023a 0001 3900
0930 0006 2665 003c 7000 3464 0035 6800
3965 1c35 0002 3400 0126 0001 3900 013c
0081 4f2e 5b00 4164 003c 6000 3e66 0045
600b 4500 0041 0001 3e00 033c 0001 2e00
203a 6b00 336b 0041 5e00 3e68 0037 6c53
3700 053a 0000 3e00 0241 0000 3300 063c
6400 4062 0039 6100 3562 0026 6181 1c26
0003 3c00 0039 0000 4000 0135 0008 3559
0039 5900 4053 003c 5a00 2667 0d39 0001
3c00 0035 0003 2600 0340 0034 3a6a 0041
6100 3e69 0039 6200 2b56 3339 0000 3e00
003a 0001 4100 202b 0083 3c39 6800 3c68
0040 6b00 2953 0037 6c25 4000 013c 0001
3700 0039 0003 2900 7e40 6b00 3c76 0039
7200 3772 0029 5a11 3c00 0240 0000 3900
0129 0002 3700 3235 6500 3a72 0039 7000
3066 003e 7078 3e00 0635 0002 3a00 0139
0009 3000 0626 6500 3c70 0034 6400 3568
0039 651c 3500 0234 0001 2600 0139 0001
3c00 814f 4560 003c 6500 3e65 002d 5300
4165 0d41 0001 3e00 012d 0002 4500 013c
001e 3d67 0039 6800 3b6e 0041 6500 2b5a
0035 5860 1f6e 0b35 0001 3900 002b 0001
3b00 013d 0001 4100 1c1f 0003 3e6c 003a
7200 3968 0041 6501 2b61 2641 0001 3a00
023e 0000 3900 062b 0030 1f65 2c1f 0004
2b5f 003e 6e00 3a72 0039 6700 4167 2741
0000 3900 013a 0000 3e00 052b 0081 153e
6900 4174 003a 6500 3957 001f 6630 4369
2e41 0002 4570 0a43 0026 4164 0545 0011
1f00 053e 0003 4100 013a 0004 3900 3b41
5a00 3a52 003e 4e02 1f5e 053a 0002 3e00
0141 0003 1f00 233e 6f00 4179 003a 6d00
395f 021f 7556 3900 003a 0000 3e00 0241
0008 1f6e 071f 0024 1f00 033e 6c00 3a72
0039 6800 4165 012b 6126 4100 013a 0002
3e00 0039 0006 2b00 301f 652c 1f00 042b
5f00 3e6e 003a 7200 3967 0041 6727 4100
0039 0001 3a00 003e 0005 2b00 8115 3e69
0041 7400 3a65 0039 5700 1f66 3043 692e
4100 0245 700a 4300 2641 6405 4500 111f
0005 3e00 0341 0001 3a00 0439 003b 415a
003a 5200 3e4e 021f 5e05 3a00 023e 0001
4100 031f 0023 3e6f 0041 7900 3a6d 0039
5f02 1f75 5639 0000 3a00 003e 0002 4100
0f1f 0027 3d69 0044 6700 416b 003c 6000
2e51 0038 5e22 2e00 0144 0001 3d00 013c
0000 4100 0138 006a 4465 003d 6900 4164
003c 6b00 2e4d 0038 5541 3c00 0141 0000
3d00 0138 0000 2e00 0244 007c 385e 002e
5001 3d5c 003c 5300 415a 0044 6f30 465f
1d44 0013 4861 0146 002f 4472 0148 003b
2e00 0338 000e 4100 003d 0001 4400 053c
000d 4453 0041 4b00 3c4b 003d 4800 3858
002e 4c06 3d00 0241 0001 4400 013c 0000
2e00 0438 0021 3861 0144 7800 416c 003d
6700 3c5a 002e 5e5b 3c00 013d 0002 4100
0044 0007 2e00 0438 0025 3d69 0044 6700
416b 003c 6000 2e51 0038 5e22 2e00 0144
0001 3d00 013c 0000 4100 0138 006a 4465
003d 6900 4164 003c 6b00 2e4d 0038 5541
3c00 0141 0000 3d00 0138 0000 2e00 0244
007c 385e 002e 5001 3d5c 003c 5300 415a
0044 6f30 465f 1d44 0013 4861 0146 0013
3d00 0441 0000 3800 073c 0011 4468 0041
5f00 3862 003c 5f00 3d5c 0148 003b 2e00
242e 4c0a 2e00 1a3c 0000 4100 0044 0003
3d00 0438 0004 3861 0133 5e00 485a 0044
7800 416c 003d 675b 4800 013d 0002 4400
0041 0001 3a5c 0043 6c00 3f64 013c 6705
3300 0438 0081 263f 0000 3c00 023a 0006
4300 093a 4a00 465c 003f 5f00 3c5d 0043
6581 363f 0002 3c00 003a 0000 4600 0043
0007 3f65 0044 5c00 3b57 0040 5a81 2d3b
0008 3f00 0344 0001 4000 0840 6400 3f67
0044 6100 3b53 0047 643a 4700 0044 0000
3f00 0140 000a 3b00 033a 5200 4457 003f
5500 404b 0046 5873 4600 003a 0000 4000
013f 0000 4400 0343 6000 3f61 003c 5901
3854 8130 3c00 003f 0003 4300 0738 000a
4465 013c 5a00 3f63 8103 3f00 003c 0000
4400 0438 4d02 3c5a 003f 5301 4259 0942
0000 4361 2038 0001 3c00 033f 0000 4300
0438 4801 3c48 003f 4800 414e 8135 3c00
023f 0001 4100 0138 0006 3a4d 0038 5100
3e57 0041 5e7f 4672 3441 0001 3e00 013a
0001 3800 0546 0005 3a4f 013e 5a01 4153
002b 5001 354e 8102 4b63 0233 4711 3500
024b 0007 4d6c 0135 5f01 3300 1a4d 0004
3365 0135 0000 4b61 8131 3300 0541 0003
3a00 013e 0000 2b00 024b 0001 465b 004a
6200 3e60 003a 4d00 4355 0041 5300 3054
8131 3000 0743 0000 4600 003e 0000 4100
013a 0003 4a00 0740 5700 436b 0046 5f00
3e52 004a 6601 3059 3c4a 0000 3e00 0146
0000 4000 0343 0002 3c5b 0140 5b00 485a
0143 6200 4560 3843 0001 4500 0440 0003
4800 0043 5b02 415b 0046 5802 3a55 003e
5501 3c00 2c3a 0000 3e00 0143 0002 4600
0041 0005 3000 0145 5b00 4060 0048 5f00
435a 013c 5b81 363c 0005 4800 0040 0001
4300 004d 6c00 5169 0054 6800 4a6e 003a
5300 3e56 0041 5700 3952 0245 0031 3900
0441 0000 3a00 013e 0001 5400 014a 0002
5100 004d 000c 4a62 004d 6e00 516e 003a
4e00 3957 003e 5800 4153 3541 0001 4a00
0139 0000 3e00 024d 0000 3a00 0151 000e
3a47 004d 6b00 394c 004a 6600 3e53 0041
5000 5144 0551 0021 3900 0041 0004 3e00
014a 0001 4d00 023a 0003 4054 0039 5000
3c53 0043 5400 4f5f 0048 6600 4561 004c
5930 3c00 0140 000c 3900 0d40 6101 3c62
3239 553b 3900 0045 0001 4300 0048 0000
4f00 0040 0003 4c00 003c 0003 3e68 013a
6700 4566 0041 5d3d 3a00 0341 0001 3e00
063a 6900 3e59 0041 6029 4500 043a 0002
3e00 0141 0000 355e 0a35 000e 4061 0039
5d00 3c66 0043 5d29 4300 0040 0001 3900
033c 0004 3f52 0038 5f00 4360 003c 5d00
2946 812a 4300 003f 0001 3800 013c 0009
2900 0b3f 5800 3863 0043 6900 3c64 002e
505f 3f00 013e 614e 2e00 0a3c 0003 3800
0143 0003 3e00 013a 6100 415f 003e 6200
3759 0027 5c81 0937 0000 3e00 003a 0000
4100 0841 5f00 3d69 003a 5902 3748 063e
6202 3d00 2237 0001 3a00 0441 0003 3e00
033a 5000 4151 0137 4a01 3d47 6241 0001
3700 013d 0000 3a00 0a3d 6102 4368 0137
5400 3a5f 3d37 0001 2700 013d 0001 3a00
063c 5e00 3754 0039 5400 4069 0143 0081
343c 0002 4000 0947 6500 4069 003c 6000
4362 0637 0002 3900 5047 0001 4000 003c
0000 4300 0742 5800 4560 0040 6000 3c5a
563c 0003 4000 0245 0003 4200 0145 6000
425e 002f 5400 3e69 0039 5f81 3a39 0001
2f00 023e 0002 4200 0045 0002 4269 003e
6e00 3962 433e 0000 4200 0339 0002 4252
0045 6400 3e69 0039 5842 3e00 0442 0000
4500 0043 6500 3e65 013b 6003 3900 2843
0001 3e00 033b 0001 465c 003f 5f00 4360
003e 6081 373e 0003 4600 003f 0001 4300
063a 5300 3f69 0043 7000 3e64 583a 0008
3956 563f 0000 3e00 0339 0001 4300 053c
5500 3e53 0141 5f00 3950 8103 3900 043c
0001 4100 033e 0003 4850 0145 5b00 415b
013e 5227 4500 043e 0002 4100 0048 0003
414b 0043 5d00 4644 003e 5370 3e00 0046
0000 4100 0343 0004 3750 003a 4800 3e5d
0041 6000 4655 413a 0003 4600 0137 0000
3e00 0041 0002 3a52 003e 5701 4157 0243
5a81 3a43 0003 4f72 0056 7601 4a64 0043
6255 4100 1743 0004 4a00 053e 0003 4f00
0156 0003 3e55 0143 6c41 4300 023e 0000
3a00 0445 5d00 415a 023c 5381 363c 0001
4100 0045 0002 5666 0051 6401 4d66 013c
5000 4551 0041 5002 4a4a 8126 5600 0f4d
0001 4500 0051 0000 4100 033c 0000 4a00
0537 5b00 3a5b 003e 6140 3e00 033a 0000
3700 024f 7400 5674 004a 7001 3e5b 0137
5b00 3a5b 3f37 0004 3a00 013e 0003 374f
003a 4f00 3e4f 2d37 0002 3a00 023e 0000
3553 0139 5300 3c68 3856 0001 4a00 034f
0007 3900 013c 0000 3500 0339 6000 3560
003c 6003 5676 014a 7000 5176 703c 0000
3900 0035 0005 3e61 003a 5d00 3753 3556
0003 4a00 0151 0007 3700 033a 0001 3e00
033e 6100 3a5d 0037 5301 4f7c 0256 7a00
4a74 3d37 0003 3a00 013e 0003 3a57 003e
5700 3757 2b3e 0003 3700 033a 0000 3959
0035 5902 3c63 2e56 0005 4f00 004a 000f
567a 004a 7201 517f 3a39 0000 3500 0a3c
0006 3a5d 0043 5d00 3e5d 104a 0003 5600
0351 0011 3e00 0343 0001 3a00 073e 7200
3b72 0042 6b00 396c 002b 5325 4200 013e
0001 3b00 0039 0003 2b00 7e42 6b00 3e76
003b 7200 3972 002b 5a11 3e00 0242 0000
3b00 012b 0002 3900 3237 6500 3c72 003b
7000 3266 0040 7078 4000 0637 0002 3c00
013b 0009 3200 0628 6500 3e70 0036 6400
3768 003b 651c 3700 0236 0001 2800 013b
0001 3e00 814f 305b 0043 6400 3e60 0040
6600 4760 0b47 0000 4300 0140 0003 3e00
0130 0020 3c6b 0035 6b00 435e 0040 6800
396c 5339 0005 3c00 0040 0002 4300 0035
0006 3e64 0042 6200 3b61 0037 6200 2861
811c 2800 033e 0000 3b00 0042 0001 3700
0837 5900 3b59 0042 5300 3e5a 0028 670d
3b00 013e 0000 3700 0328 0003 4200 323b
6200 3c6a 0040 6900 4361 022d 5631 4000
003b 0000 3c00 0143 0022 2d00 833c 3e72
003b 7200 426b 0039 6c00 2b53 2542 0001
3e00 013b 0000 3900 032b 007e 426b 003e
7600 3b72 0039 7200 2b5a 113e 0002 4200
003b 0001 2b00 0239 0032 3765 003c 7200
3b70 0032 6600 4070 7840 0006 3700 023c
0001 3b00 0932 0006 2865 003e 7000 3664
0037 6800 3b65 1c37 0002 3600 0128 0001
3b00 013e 0081 4f47 6000 3e65 0040 6500
2f53 0043 650d 4300 0140 0001 2f00 0247
0001 3e00 1e3f 6700 3b68 003d 6e00 4365
002d 5a00 3758 6021 6e0b 3700 013b 0000
2d00 013d 0001 3f00 0143 001c 2100 0340
6c00 3c72 003b 6800 4365 012d 6126 4300
013c 0002 4000 003b 0006 2d00 3021 652c
2100 042d 5f00 406e 003c 7200 3b67 0043
6727 4300 003b 0001 3c00 0040 0005 2d00
8115 4069 0043 7400 3c65 003b 5700 2166
3045 692e 4300 0247 700a 4500 2643 6405
4700 1121 0005 4000 0343 0001 3c00 043b
003b 435a 003c 5200 404e 073c 0002 4000
0143 0026 406f 0043 7900 3c6d 003b 5f58
3b00 003c 0000 4000 0243 0008 216e 2b21
0003 406c 003c 7200 3b68 0043 6501 2d61
2643 0001 3c00 0240 0000 3b00 062d 0030
2165 2c21 0004 2d5f 0040 6e00 3c72 003b
6700 4367 2743 0000 3b00 013c 0000 4000
052d 0081 1540 6900 4374 003c 6500 3b57
0021 6630 4569 2e43 0002 4770 0a45 0026
4364 0547 0011 2100 0540 0003 4300 013c
0004 3b00 3b43 5a00 3c52 0040 4e07 3c00
0240 0001 4300 2640 6f00 4379 003c 6d00
3b5f 583b 0000 3c00 0040 0002 4300 0821
6e2b 2100 0340 6c00 3c72 003b 6800 4365
012d 6126 4300 013c 0002 4000 003b 0006
2d00 3021 652c 2100 042d 5f00 406e 003c
7200 3b67 0043 6727 4300 003b 0001 3c00
0040 0005 2d00 8115 4069 0043 7400 3c65
003b 5700 2166 3045 692e 4300 0247 700a
4500 2643 6405 4700 1121 0005 4000 0343
0001 3c00 043b 003b 435a 003c 5200 404e
0221 5e05 3c00 0240 0001 4300 0321 0023
406f 0043 7900 3c6d 003b 5f02 2175 563b
0000 3c00 0040 0002 4300 0f21 00ab 1b56
7203 4f55 274c 4c03 4f00 0153 3c03 5600
1d4c 0004 5300 1d4f 5001 5669 1b56 0000
4f00 0d4c 1500 5342 1d4c 0008 5300 184f
5300 5653 1d56 0003 4f00 0c53 3403 4c32
214c 0005 5300 2356 4502 4f45 2356 0001
4c31 014f 0002 5330 1d4c 0004 5300 9979
597f 3459 0081 2059 7626 5900 8162 5974
2e59 00b0 7a4d 7863 4d00 8942 487f 023c
7281 003c 0001 4800 104f 7f01 4370 8115
4300 054f 0097 763f 6100 436b 003c 6800
3a63 002c 5915 b040 7f35 9043 0000 3f00
013a 0002 3c00 032c 006f 3a6b 0041 6400
3e6b 012b 5b00 395d 04b0 4000 2440 7f4a
903e 0002 3a00 0341 0001 3900 1f2b 002a
3f67 0037 5e00 386d 003c 6b00 294c 02b0
4000 2740 7f33 9038 0000 3700 013c 0003
3f00 3229 002c b040 0000 9041 6600 3a6d
003e 6c02 3764 0027 7829 b040 7f10 903e
0002 3a00 0241 0002 3700 2a27 0057 b040
0000 903f 6500 3869 003c 6400 2567 0035
5a1c b040 7f13 9035 0001 3c00 0038 0004
3f00 0925 0081 0241 6600 3e6c 00b0 4000
0090 3a6b 0024 5601 3765 19b0 407f 0990
3e00 023a 0001 4100 0237 0027 2400 7238
6300 3f65 003d 5b00 2269 0035 5d00 3c64
0ab0 4000 3240 7f0b 903f 0001 3c00 013d
0006 3800 0235 000d 2200 603a 6700 336d
003c 6e00 3766 0120 6b01 b040 0081 2b90
3300 0137 0001 3a00 033c 0001 2000 0f3c
7200 3972 0040 6b00 376c 0029 5325 4000
013c 0001 3900 0037 0003 2900 7e40 6b00
3c76 0039 7200 3772 0029 5a11 3c00 0240
0000 3900 0129 0002 3700 3235 6500 3a72
0039 7000 3066 003e 7078 3e00 0635 0002
3a00 0139 0009 3000 0626 6500 3c70 0034
6400 3568 0039 651c 3500 0234 0001 2600
0139 0001 3c00 814f 2e5b 0041 6400 3c60
003e 6600 4560 0b45 0000 4100 013e 0003
3c00 012e 0020 3a6b 0033 6b00 415e 003e
6800 376c 5837 0005 3a00 003e 0002 4100
0033 0000 3562 0039 6100 3c64 0040 6200
2661 5d26 0000 3c00 0035 0000 3900 0040
0003 3965 003c 6800 4066 0135 663f 4000
0139 0002 3c00 0135 0005 355e 0039 5e00
4057 003c 5f00 266d 0d39 0001 3c00 0035
0003 2600 0340 0034 3a75 0041 6b00 3e74
0039 6c00 2b5f 3339 0000 3e00 003a 0001
4100 202b 0082 7430 6108 3000 0e3a 6300
3968 0035 6000 3e67 2d39 0001 3500 033e
0001 3a00 003c 6700 3967 0040 6100 3762
0029 4b25 4000 013c 0001 3900 0037 0003
2900 363c 6b00 4066 0039 6800 3769 1c37
0000 3c00 0139 0001 4000 2a40 6100 3c6b
0039 6700 3767 0029 5211 3c00 0240 0000
3900 0129 0002 3700 3235 6500 3a72 0039
7000 3066 003e 7078 3e00 0635 0002 3a00
0139 0009 3000 0626 6500 3c70 0034 6400
3568 0039 651c 3500 0234 0001 2600 0139
0001 3c00 814f 4560 003c 6500 3e65 002d
5300 4165 0d41 0001 3e00 012d 0002 4500
013c 001e 3d67 0039 6800 3b6e 0041 6500
2b5a 0035 5860 1f6e 0b35 0001 3900 002b
0001 3b00 013d 0001 4100 1c1f 0003 3e6c
003a 7200 3968 0041 6501 2b61 2641 0001
3a00 023e 0000 3900 062b 0030 1f65 2c1f
0004 2b5f 003e 6e00 3a72 0039 6700 4167
2741 0000 3900 013a 0000 3e00 052b 0081
151f 6600 3e69 0041 7400 3a65 0039 5730
4369 2e41 0002 4570 0a43 0026 4164 0545
0011 1f00 053e 0003 4100 013a 0004 3900
3b41 5a00 3a52 003e 4e07 3a00 023e 0001
4100 263e 6f00 4179 003a 6d00 395f 5839
0000 3a00 003e 0002 4100 081f 6e2b 1f00
033e 6c00 3a72 0039 6800 4165 012b 6126
4100 013a 0002 3e00 0039 0006 2b00 301f
652c 1f00 042b 5f00 3e6e 003a 7200 3967
0041 6727 4100 0039 0001 3a00 003e 0005
2b00 8115 1f66 003e 6900 4174 003a 6500
3957 3043 692e 4100 0245 700a 4300 2641
6405 4500 111f 0005 3e00 0341 0001 3a00
0439 003b 415a 003a 5200 3e4e 073a 0002
3e00 0141 0026 3e6f 0041 7900 3a6d 0039
5f58 3900 003a 0000 3e00 0241 0036 3d69
0044 6700 416b 003c 6000 2e51 0038 5e22
2e00 0144 0001 3d00 013c 0000 4100 0138
006a 4465 003d 6900 4164 003c 6b00 2e4d
0038 5541 3c00 0141 0000 3d00 0138 0000
2e00 0244 007c 385e 002e 5001 3d5c 003c
5300 415a 0044 6f30 465f 1d44 0013 4861
0146 002f 4472 0148 003b 2e00 0338 000e
4100 003d 0001 4400 053c 000d 4453 0041
4b00 3c4b 003d 4800 3858 063d 0002 4100
0144 0001 3c00 0438 0021 3861 0144 7800
416c 003d 6700 3c5a 5b3c 0001 3d00 0241
0000 4400 0b38 0025 3d69 0044 6700 416b
003c 6000 2e51 0038 5e22 2e00 0144 0001
3d00 013c 0000 4100 0138 006a 4465 003d
6900 4164 003c 6b00 2e4d 0038 5541 3c00
0141 0000 3d00 0138 0000 2e00 0244 007c
385e 002e 5001 3d5c 003c 5300 415a 0044
6f30 465f 1d44 0013 4861 0146 0013 3d00
0441 0000 3800 073c 0011 415f 0044 6800
3862 003c 5f00 3d5c 0148 003b 2e00 242e
4c0a 2e00 1a3c 0000 4400 0041 0003 3d00
0438 0004 3861 0133 5e00 485a 0044 7800
416c 003d 675b 4800 0038 0001 3300 003d
0002 4400 0041 0001 3a5c 0043 6c00 3f64
013c 6781 2f3c 0000 3f00 023a 0006 4300
093a 4a00 465c 003f 5f00 3c5d 0043 6581
363f 0002 3c00 003a 0000 4600 0043 0007
3f65 0044 5c00 3b57 0040 5a81 2d3b 0008
3f00 0344 0001 4000 083f 6700 4064 0044
6100 3b53 8130 3b00 0744 0000 3f00 0140
0007 4360 003f 6100 3c59 0138 5481 303c
0000 3f00 0343 0007 3800 0538 5a02 3c5a
003f 6381 333f 0001 3800 023c 0009 3854
013c 5400 3f54 0041 5b81 353c 0002 3f00
0141 0001 3800 063a 4d00 3851 003e 5700
415e 7f46 7234 4100 013e 0001 3a00 0138
0005 4600 053a 4f01 3e5a 0141 5300 2b50
0135 4e81 3535 0003 3a00 003e 0001 4100
0341 5300 3e5a 003a 4f01 354e 8135 3500
0441 0001 3a00 022b 0001 3e00 023a 4d00
355b 003e 6000 4153 0030 5481 3130 0007
3e00 0041 0000 3500 013a 0007 3454 003a
5701 3056 003e 5a3d 3e00 083c 6342 3a00
043a 5c01 3c00 2c3a 0004 3400 0130 0004
3762 0039 6300 3469 013c 6d7e 3400 043c
0000 3700 0339 0007 3746 0139 4b00 3c53
0134 4b1f 3700 0139 0003 3c00 0134 000c
3e74 003a 7500 3969 0041 6c00 3561 293e
001e 3e69 233a 0024 465c 003a 5c0e 3500
0639 0006 3e00 0f41 0001 3a00 0446 0003
4062 0039 5e00 3c61 0043 623d 3900 0340
0001 3c00 0940 6101 3c61 3239 643b 3900
0143 0000 4000 033c 0003 3e68 0145 6600
3a67 0041 5d6d 3e00 0341 0000 3a00 0145
0006 435d 0040 6100 395d 003c 6645 3c00
0043 0000 4000 0039 0004 3f52 0038 5f00
4360 003c 5d00 2946 812a 4300 003f 0001
3800 013c 0009 2900 0b3f 5800 3863 0043
6900 3c64 002e 5040 3f00 083e 6966 2e00
0a3c 0000 3e00 0338 0001 4300 043a 6a00
4168 003e 6b00 3761 0027 6581 0937 0000
3e00 003a 0000 4100 0841 6800 3d73 003a
6102 374e 063e 6b02 3d00 2237 0001 3a00
0441 0003 3e00 033a 5700 4158 0137 5101
3d4d 6241 0001 3700 013d 0000 3a00 0a3d
6a02 4372 0137 5c00 3a68 3d37 0001 2700
013d 0001 3a00 0637 5400 3c5e 0039 5400
4069 0143 0081 343c 0002 4000 0539 0000
3700 0437 6500 3965 0040 6500 3c65 8107
4000 0437 0005 3e60 0036 5a17 3c00 1039
0007 3e00 0036 0001 4566 0042 6300 2f59
003e 6f00 3964 813a 3900 012f 0002 3e00
0242 0000 4500 0242 6900 3e6e 0039 6243
3e00 0042 0003 3900 0242 5200 4564 003e
6900 3958 423e 0004 4200 0045 0000 4365
003e 6501 3b60 0339 0028 4300 013e 0003
3b00 0146 5c00 3f5f 0043 6000 3e60 8137
3e00 0346 0000 3f00 0143 0006 3a53 003f
6900 4370 003e 6458 3a00 0839 5656 3f00
003e 0003 3900 0143 0005 3c55 003e 5301
415f 0039 505b 3c00 013e 0003 4100 0039
0001 546b 004d 6b00 5164 0148 6401 3e5e
003c 6500 415b 0039 5a00 565f 5648 0003
3e00 0051 0000 4d00 013c 0000 5400 0041
0001 3900 0056 0000 5160 003a 5301 4d62
004a 6600 4157 0145 6900 3953 003e 5338
4500 084d 0001 4a00 0051 0000 3a00 0839
0000 4100 003e 0000 4a68 004d 6100 4667
003a 5401 394f 0141 5100 3e51 3e46 0004
4100 003a 0000 3e00 0337 5000 3a48 003e
5d00 4160 0046 5503 3900 064a 0001 4d00
243e 0000 3a00 0046 0000 3700 0041 0001
3a59 003e 5f01 415f 0243 6281 3a43 0003
4f72 0056 7601 4a64 0043 6255 4100 1743
0004 4a00 053e 0003 4f00 0156 0003 3e55
0143 6c41 4300 023e 0000 3a00 0445 5d00
415a 023c 5381 363c 0001 4100 0045 0002
5666 0051 6401 4d66 013c 5000 4551 0041
5002 4a4a 8126 5600 0f4d 0001 4500 0051
0000 4100 033c 0000 4a00 0537 5b00 3a5b
003e 6140 3e00 033a 0000 3700 024f 7400
5674 004a 7001 3e5b 0137 5b00 3a5b 3f37
0004 3a00 013e 0003 374f 003a 4f00 3e4f
2d37 0002 3a00 023e 0000 3553 0139 5300
3c68 3856 0001 4a00 034f 0007 3900 013c
0000 3500 0339 6000 3560 003c 6003 5676
014a 7000 5176 703c 0000 3900 0035 0005
3e61 003a 5d00 3753 3556 0003 4a00 0151
0007 3700 033a 0001 3e00 033e 6100 3a5d
0037 5301 4f7c 0256 7a00 4a74 3d37 0003
3a00 013e 0003 3a57 003e 5700 3757 2b3e
0003 3700 033a 0000 3959 0035 5902 3c63
2e56 0005 4f00 004a 000f 567a 004a 7201
517f 3a39 0000 3500 0a3c 0006 3a5d 0043
5d00 3e5d 104a 0003 5600 0351 0011 3e00
0343 0001 3a00 073e 7200 3b72 0042 6b00
396c 002b 5325 4200 013e 0001 3b00 0039
0003 2b00 7e42 6b00 3e76 003b 7200 3972
002b 5a11 3e00 0242 0000 3b00 012b 0002
3900 3037 6500 3b70 003c 7200 4070 0032
6678 4000 0637 0002 3c00 013b 0009 3200
0837 6800 3e70 0028 6500 3664 003b 651c
3700 0236 0001 2800 013b 0001 3e00 814f
305b 0043 6400 3e60 0040 6600 4760 0b47
0000 4300 0140 0003 3e00 0130 0020 3c6b
0035 6b00 435e 0040 6800 396c 5339 0005
3c00 0040 0002 4300 0035 0006 3e64 0042
6200 3b61 0037 6200 2861 811c 2800 033e
0000 3b00 0042 0001 3700 0837 5900 3b59
0042 5300 3e5a 0028 670d 3b00 013e 0000
3700 0328 0003 4200 343c 6a00 4361 0040
6900 3b62 002d 5633 3b00 0040 0000 3c00
0143 0020 2d00 833b 3e72 003b 7200 426b
0039 6c00 2b53 2542 0001 3e00 013b 0000
3900 032b 007f 426b 003e 7600 3b72 0039
7200 2b5a 113e 0002 4200 003b 0001 2b00
0239 0032 3765 003c 7200 3b70 0032 6600
4070 7840 0006 3700 023c 0001 3b00 0932
0006 2865 003e 7000 3664 0037 6800 3b65
1c37 0002 3600 0128 0001 3b00 013e 0081
4f3e 6500 4065 0043 6500 4760 002d 530d
4300 0140 0001 2d00 0247 0001 3e00 1e37
5800 3b68 003d 6e00 3f67 0043 6500 2d5a
6021 6e0b 3700 013b 0000 2d00 013d 0001
3f00 0143 001c 2100 0340 6c00 3c72 003b
6800 4365 012d 6126 4300 013c 0002 4000
003b 0006 2d00 3021 652c 2100 042d 5f00
406e 003c 7200 3b67 0043 6727 4300 003b
0001 3c00 0040 0005 2d00 8115 4069 0043
7400 3c65 003b 5700 2166 3045 692e 4300
0247 700a 4500 2643 6405 4700 1121 0005
4000 0343 0001 3c00 043b 003b 435a 003c
5200 404e 073c 0002 4000 0143 0026 406f
0043 7900 3c6d 003b 5f58 3b00 003c 0000
4000 0243 0008 216e 2b21 0003 406c 003c
7200 3b68 0043 6501 2d61 2643 0001 3c00
0240 0000 3b00 062d 0030 2165 2c21 0004
2d5f 0040 6e00 3c72 003b 6700 4367 2743
0000 3b00 013c 0000 4000 052d 0081 1540
6900 4374 003c 6500 3b57 0021 6630 4569
2e43 0002 4770 0a45 0026 4364 0547 0011
2100 0540 0003 4300 013c 0004 3b00 3b43
5a00 3c52 0040 4e07 3c00 0240 0001 4300
2640 6f00 4379 003c 6d00 3b5f 583b 0000
3c00 0040 0002 4300 0824 6e2b 2400 0343
6c00 3f72 003e 6800 4665 0130 6126 4600
013f 0002 4300 003e 0006 3000 3024 652c
2400 0430 5f00 436e 003f 7200 3e67 0046
6727 4600 003e 0001 3f00 0043 0005 3000
8115 4369 0046 7400 3f65 003e 5700 2466
3048 692e 4600 024a 700a 4800 2646 6405
4a00 1124 0005 4300 0346 0001 3f00 043e
003b 465a 003f 5200 434e 073f 0002 4300
0146 0026 436f 0046 7900 3f6d 003e 5f58
3e00 003f 0000 4300 0246 0038 3b67 0040
6700 325f 0043 6200 3c6d 283b 0005 4000
0143 0000 3c00 0532 005b 3f6f 003b 6e00
4370 0031 6900 354a 2e35 0000 4300 003f
0000 3b00 0031 0003 3f4d 013b 5701 354b
0043 572d 3b00 003f 0002 3500 0143 005e
4069 0043 6e01 3b65 003c 6100 305e 3045
6202 4000 1f43 000f 475b 0a45 0017 3b00
023c 0007 3000 0047 0006 436c 0039 5700
3e5a 002f 682c 2f00 0543 0002 3900 033e
0028 2f74 003e 6400 4361 0039 5229 4300
003e 0004 3900 0337 6200 3c68 0040 6900
3b68 012d 6c03 2f00 213c 0001 3b00 0640
0002 3700 022d 0000 364d 003e 5700 3955
003b 5a01 2b69 212b 0008 3b00 013e 0002
3600 0139 0003 3f65 003a 6b00 3e72 0043
6900 b040 7f1c 903f 0002 3a00 003e 0002
4300 413f 6b00 436c 003e 7600 3a72 02b0
4000 1340 7f03 903a 0000 3e00 013f 0005
4300 2a45 6400 3e6c 0041 6500 3c65 0ab0
4000 1e40 7f13 903c 0000 4100 0045 0001
3e00 34b0 4000 0690 3b6b 0043 6e00 4074
003e 7212 b040 7f21 9043 0001 3b00 003e
0001 4000 133b 6600 3e70 0040 7000 436c
08b0 4000 0290 4000 003b 0000 3e00 0443
003c 4269 0045 6800 4074 003d 6b31 b040
7f12 903d 0000 4200 0240 0003 4500 3bb0
4000 0b90 3867 003f 7200 4369 003c 6e09
b040 7f07 903c 0000 3f00 0543 0002 3800
3146 6700 3e69 0041 6e00 436c 003a 6b01
b040 0068 903e 0002 4300 0041 0003 3a00
0146 000a 4065 0039 6900 3c68 0035 6807
b040 7f1b 9035 0001 3900 013c 0003 4000
32b0 4000 0690 4365 0039 6b00 4066 003c
6c10 b040 7f09 903c 0000 3900 0140 0004
4300 24b0 4000 0690 476b 003c 6e00 4070
0043 6e08 b040 7f06 4000 0290 4300 0140
0002 4700 033c 001a 405a 0b40 000d 4069
003b 6800 3e6e 0043 7081 0943 0000 3e00
0040 0001 3b00 0739 5800 4269 0034 5800
4769 003e 6601 b040 7f11 9039 0001 3400
0442 0002 3e00 0047 0016 405a 0840 000d
b040 0003 9038 4500 4461 003b 6900 2d4c
0040 6c00 3d6d 0034 5012 b040 7f16 9034
0005 3d00 0238 0001 3b00 0140 0001 4400
022d 0044 4469 003d 6300 4168 0133 6100
3869 02b0 4000 812d 9033 000a 3d00 0344
0000 4100 0038 0004 3f5c 003c 6b00 3a6d
0037 6900 2c5b 0143 6c06 b040 7f1c 903f
0001 4300 013c 0000 3a00 3337 0003 2c00
04b0 4000 0190 3e70 003a 6d00 416c 0135
6800 305e 12b0 407f 0e90 3a00 023e 0006
4100 2735 0008 3000 03b0 4000 0490 436b
003c 6900 4072 0239 6c00 3566 0cb0 407f
1590 3c00 0140 0002 4300 2735 0002 3900
0eb0 4000 0390 396c 0034 6800 4275 0045
6800 3e68 0fb0 407f 0e90 4500 0042 0002
3e00 2739 0001 3400 0144 6100 4765 0040
6900 3d63 0239 6b03 b040 0010 903d 0000
4400 0247 0000 3900 0140 0030 4469 003d
6700 4072 003b 6600 2d70 8105 4000 013b
0000 2d00 003d 0004 4400 0644 7001 3668
0047 7200 406d 013d 6800 3b68 3447 0004
4400 0140 0003 3d00 013b 0001 3600 083d
5900 4669 0036 5c00 3f65 0142 5f00 3a5c
663d 0001 3f00 0142 0000 4600 013a 0001
3600 0e3d 5f00 415d 003a 6300 366f 07b0
407f 5890 3600 013a 0000 3d00 0641 0059
b040 0002 903f 6500 4370 0038 7200 3c69
30b0 407f 1590 3800 013c 0000 4300 013f
0074 b040 0003 9044 6900 406e 003d 6500
3968 28b0 407f 1e90 3900 023d 0002 4000
0544 0071 426d 003f 6d00 466b 003b 690b
b040 0081 2e90 3b00 0042 0000 3f00 0046
0009 476b 0043 6e00 4072 003c 6e35 3c00
0040 0001 4300 0147 006f 406b 0047 6900
4365 003c 6b12 4300 0240 0001 4700 023c
0033 426b 003c 6b00 456c 0040 746a 4200
0145 0002 4000 023c 001f 3966 003e 5f00
426b 003c 5a10 3c00 2442 0003 3e00 0039
0071 426d 003e 7200 3968 1042 0002 3e00
0339 0034 3e69 0040 6900 3b69 0137 6881
0437 0002 3b00 023e 0001 4000 3640 6600
3b66 0043 6600 3c69 012d 5a00 375d 223c
0001 3b00 0040 0001 4300 062d 0005 3700
5f40 6900 4364 003b 6c00 3c70 0137 5a01
2d5d 3f43 0002 3c00 0140 0000 3b00 052d
0002 3700 7740 6400 3c64 0043 6400 375f
0032 5d81 3832 0003 4300 033c 0002 4000
0037 002e 3764 0032 5000 4064 003c 6600
4356 0b43 0000 3700 0132 0000 3c00 0140
0023 4362 013b 6601 406b 0035 5300 2b3e
002d 4010 2d00 4a3b 0004 4000 0143 0000
3d63 0040 6b00 4465 0039 6400 2a5f 0135
0001 2b00 3e44 0002 3d00 0140 0001 3900
062a 005e 446b 002a 6101 3d67 0040 6600
3966 123d 0001 4000 0539 0001 4400 052a
002a 4263 002f 6800 3f69 003c 7800 396c
8102 3900 003f 0001 4200 013c 0001 2f00
0a42 6700 3b69 0037 6400 3e61 0028 6944
4200 013e 0003 3b00 0137 0006 2800 5a42
6701 3e6b 003b 6800 3769 0228 661a 3e00
0342 0000 3b00 0228 0001 3700 2a37 6100
3d61 013a 6b01 3f5f 022d 5481 0637 0002
3d00 003a 0002 2d00 023f 0029 3c6c 0040
6900 3964 0032 5f00 3558 3140 0001 3c00
0239 0001 3200 0235 0059 3553 002b 5300
3962 003b 6400 4062 5a3b 0000 3900 0140
0002 2b00 0235 0062 4064 003b 6100 3e62
0043 6100 305b 7643 0003 3e00 0140 0000
3b00 0330 0014 3e6e 0043 6200 396c 002f
6232 2f00 0439 0000 4300 013e 0028 3e6c
0039 6601 4365 2339 0000 3e00 0143 0007
384b 002e 4801 3e6b 0143 6c07 3f5b 0b3e
001e 3f00 053e 5423 3e00 0043 000b 476b
0043 6e00 4072 003c 6e01 2e00 0138 0033
4000 003c 0001 4300 0147 006f 406b 0047
6900 4365 003c 6b12 4300 0240 0001 4700
023c 0033 426b 003c 6b00 456c 0040 746a
4200 0145 0002 4000 023c 001f 3966 003e
5f00 426b 003c 5a10 3c00 2442 0003 3e00
0039 0071 426d 003e 7200 3968 1042 0002
3e00 0339 0034 3e69 0040 6900 3b69 0137
6881 0437 0002 3b00 023e 0001 4000 3640
6600 3b66 0043 6600 3c69 012d 5a00 375d
223c 0001 3b00 0040 0001 4300 062d 0005
3700 5f40 6900 4364 003b 6c00 3c70 0137
5a01 2d5d 3f43 0002 3c00 0140 0000 3b00
052d 0002 3700 7740 6400 3c64 0043 6400
375f 0032 5d81 3832 0003 4300 033c 0002
4000 0037 002e 3764 0032 5000 4064 003c
6600 4356 0b43 0000 3700 0132 0000 3c00
0140 0023 4362 013b 6601 406b 0035 5300
2b3e 002d 4010 2d00 4a3b 0004 4000 0143
0000 3d63 0040 6b00 4465 0039 6400 2a5f
0135 0001 2b00 3e44 0002 3d00 0140 0001
3900 062a 005e 446b 002a 6101 3d67 0040
6600 3966 123d 0001 4000 0539 0001 4400
052a 002a 4263 003f 6900 2f68 003c 7800
396c 8102 3900 003f 0001 4200 013c 0001
2f00 0a28 6900 4267 003b 6900 3764 003e
6139 2800 0b42 0001 3e00 033b 0001 3700
6042 6701 3e6b 003b 6800 3769 0228 661a
3e00 0342 0000 3b00 0228 0001 3700 2a37
6100 3d61 013a 6b01 3f5f 022d 5481 0637
0002 3d00 003a 0002 2d00 023f 0029 3c6c
0040 6900 3964 0032 5f00 3558 3140 0001
3c00 0239 0001 3200 0235 0059 3553 002b
5300 3962 003b 6400 4062 5a3b 0000 3900
0140 0002 2b00 0235 0062 4064 003b 6100
3e62 0043 6100 305b 7643 0003 3e00 0140
0000 3b00 0330 0014 3e6e 0043 6200 396c
002f 6232 2f00 0439 0000 4300 013e 0028
3e6c 0039 6601 4365 2339 0000 3e00 0143
0007 384b 002e 4801 3e6b 0143 6c07 3f5b
0b3e 001e 3f00 053e 5423 3e00 0043 000b
476b 0043 6e00 4072 003c 6e01 2e00 0138
0033 4000 003c 0001 4300 0147 006f 406b
0047 6900 4365 003c 6b12 4300 0240 0001
4700 023c 0033 426b 003c 6b00 456c 0040
746a 4200 0145 0002 4000 023c 001f 3966
003e 5f00 426b 003c 5a10 3c00 2442 0003
3e00 0039 0071 426d 003e 7200 3968 1042
0002 3e00 0339 0034 3e69 0040 6900 3b69
0137 6881 0437 0002 3b00 023e 0001 4000
3640 6600 3b66 0043 6600 3c69 012d 5a00
375d 223c 0001 3b00 0040 0001 4300 062d
0005 3700 5f40 6900 4364 003b 6c00 3c70
0137 5a01 2d5d 3f43 0002 3c00 0140 0000
3b00 052d 0002 3700 7740 6400 3c64 0043
6400 375f 0032 5d81 3832 0003 4300 033c
0002 4000 0037 002e 3764 0032 5000 4064
003c 6600 4356 0b43 0000 3700 0132 0000
3c00 0140 0023 4362 013b 6601 406b 0035
5300 2b3e 002d 4010 2d00 4a3b 0004 4000
0143 0000 3d63 0040 6b00 4465 0039 6400
2a5f 0135 0001 2b00 3e44 0002 3d00 0140
0001 3900 062a 005e 446b 002a 6101 3d67
0040 6600 3966 123d 0001 4000 0539 0001
4400 052a 002a 4263 003f 6900 2f68 003c
7800 396c 8102 3900 003f 0001 4200 013c
0001 2f00 0a42 6700 3b69 0037 6400 3e61
0028 6944 4200 013e 0003 3b00 0137 0006
2800 5a42 6701 3e6b 003b 6800 3769 0228
661a 3e00 0342 0000 3b00 0228 0001 3700
2a37 6100 3d61 013a 6b01 3f5f 022d 5481
0637 0002 3d00 003a 0002 2d00 023f 0029
3c6c 0040 6900 3964 0032 5f00 3558 3140
0001 3c00 0239 0001 3200 0235 0059 3553
002b 5300 3962 003b 6400 4062 5a3b 0000
3900 0140 0002 2b00 0235 0062 4064 003b
6100 3e62 0043 6100 305b 7643 0003 3e00
0140 0000 3b00 0330 0014 3e6e 0043 6200
396c 002f 6232 2f00 0439 0000 4300 013e
0028 3e6c 0039 6601 4365 2339 0000 3e00
0143 0007 384b 002e 4801 3e6b 0143 6c07
3f5b 0b3e 001e 3f00 053e 5423 3e00 0043
000b 476b 0043 6e00 4072 003c 6e01 2e00
0138 0033 4000 003c 0001 4300 0147 006f
406b 0047 6900 4365 003c 6b12 4300 0240
0001 4700 023c 0033 426b 003c 6b00 456c
0040 746a 4200 0145 0002 4000 023c 001f
3966 003e 5f00 426b 003c 5a10 3c00 2442
0003 3e00 0039 0071 426d 003e 7200 3968
1042 0002 3e00 0339 0034 3e69 0040 6900
3b69 0137 6881 0437 0002 3b00 023e 0001
4000 3640 6600 3b66 0043 6600 3c69 012d
5a00 375d 223c 0001 3b00 0040 0001 4300
062d 0005 3700 5f40 6900 4364 003b 6c00
3c70 0137 5a01 2d5d 3f43 0002 3c00 0140
0000 3b00 052d 0002 3700 7740 6400 3c64
0043 6400 375f 0032 5d81 3832 0003 4300
033c 0002 4000 0037 002e 3764 0032 5000
4064 003c 6600 4356 0b43 0000 3700 0132
0000 3c00 0140 0023 4362 013b 6601 406b
0035 5300 2b3e 002d 4010 2d00 4a3b 0004
4000 0143 0000 3d63 0040 6b00 4465 0039
6400 2a5f 0135 0001 2b00 3e44 0002 3d00
0140 0001 3900 062a 005e 446b 002a 6101
3d67 0040 6600 3966 123d 0001 4000 0539
0001 4400 052a 002a 4263 003f 6900 2f68
003c 7800 396c 8102 3900 003f 0001 4200
013c 0001 2f00 0a42 6700 3b69 0037 6400
3e61 0028 6944 4200 013e 0003 3b00 0137
0006 2800 5a42 6701 3e6b 003b 6800 3769
0228 661a 3e00 0342 0000 3b00 0228 0001
3700 2a37 6100 3d61 013b 6b01 3f5f 022d
5481 0637 0002 3d00 003b 0002 2d00 023f
0029 3c6c 0040 6900 3964 0032 5f00 3558
3140 0001 3c00 0239 0001 3200 0235 0059
3553 002b 5300 3962 003b 6400 4062 5a3b
0000 3900 0140 0002 2b00 0235 0062 4064
003b 6100 3e62 0043 6100 305b 7643 0003
3e00 0140 0000 3b00 0330 0014 3e6e 0043
6200 396c 002f 6232 2f00 0439 0000 4300
013e 0028 3e6c 0039 6601 4365 2339 0000
3e00 0143 0007 384b 002e 4801 3e6b 0143
6c07 3f5b 0b3e 001e 3f00 053e 5423 3e00
0043 000b 476b 0043 6e00 4072 003c 6e01
2e00 0138 0033 4000 003c 0001 4300 0147
0030 b00b 7e18 0b7d 180b 7c0f 9040 6b00
4769 0043 6500 3c6b 09b0 0b7b 0990 4300
0240 0001 4700 023c 000a b00b 7a18 0b79
1190 426b 003c 6b00 456c 0040 7407 b00b
7818 0b77 180b 7618 0b75 180b 7403 9042
0001 4500 0240 0002 3c00 10b0 0b73 0f90
3966 003e 5f00 426b 003c 5a09 b00b 7207
903c 0011 b00b 7110 0b70 0390 4200 033e
0000 3900 12b0 0b6f 180b 6e18 0b6d 180b
6c17 9042 6d00 3e72 0039 6801 b00b 6b0f
9042 0002 3e00 0339 0004 b00b 6a18 0b69
1890 3e69 0040 6900 3b69 00b0 0b68 0190
3768 17b0 0b67 180b 6618 0b65 180b 6418
0b63 0d90 3700 023b 0001 b00b 6201 903e
0001 4000 16b0 0b61 180b 6008 9040 6600
3b66 0043 6600 3c69 012d 5a00 375d 0fb0
0b5f 1390 3c00 013b 0000 4000 0143 0003
b00b 5e03 902d 0005 3700 10b0 0b5d 180b
5c18 0b5b 180b 5a07 9040 6900 4364 003b
6c00 3c70 0137 5a01 2d5d 0fb0 0b59 180b
5818 9043 0000 b00b 5702 903c 0001 4000
003b 0005 2d00 0237 000e b00b 5618 0b55
100b 5418 0b53 180b 5211 9040 6400 3c64
0043 6400 375f 0032 5d07 b00b 5118 0b50
180b 4f18 0b4e 180b 4d18 0b4c 180b 4b18
0b4a 0990 3200 0343 0003 3c00 0240 0000
3700 07b0 0b49 180b 480f 9037 6400 3250
0040 6400 3c66 0043 5609 b00b 4702 9043
0000 3700 0132 0000 3c00 0140 000c b00b
4617 9043 6201 3b66 00b0 0b45 0190 406b
0035 5300 2b3e 002d 4010 2d00 07b0 0b44
180b 4318 0b42 1390 3b00 0440 0001 4300
003d 6300 406b 0044 6500 3964 002a 5f00
b00b 4101 9035 0001 2b00 16b0 0b40 180b
3f10 9044 0002 3d00 0140 0001 3900 04b0
0b3e 0290 2a00 16b0 0b3d 180b 3c18 0b3b
1890 446b 002a 6100 b00b 3a01 903d 6700
4066 0039 6612 3d00 0140 0004 b00b 3901
9039 0001 4400 052a 0009 b00b 3818 0b37
0990 4263 003f 6900 2f68 003c 7800 396c
0fb0 0b36 180b 3518 0b34 180b 3318 0b32
1390 3900 003f 0001 4200 013c 0001 2f00
02b0 0b31 0890 4267 003b 6900 3764 003e
6100 2869 10b0 0b30 180b 2f18 0b2e 0490
4200 013e 0003 3b00 0137 0006 2800 09b0
0b2d 180b 2c18 0b2b 100b 2a11 9042 6701
3e6b 003b 6800 3769 0228 6604 b00b 2916
903e 0002 b00b 2801 9042 0000 3b00 0228
0001 3700 14b0 0b27 1690 3761 003d 6101
3b6b 013f 5f00 b00b 2602 902d 5416 b00b
2518 0b24 180b 2318 0b22 180b 2110 9037
0002 3d00 003b 0002 2d00 023f 0002 b00b
2018 0b1f 0f90 3c6c 0040 6900 3964 0032
5f00 3558 09b0 0b1e 180b 1d10 9040 0000
b00b 1c01 903c 0002 3900 0132 0002 3500
12b0 0b1b 180b 1a18 0b19 1790 3553 002b
5300 3962 003b 6400 4062 01b0 0b18 180b
1718 0b16 180b 1511 903b 0000 3900 0140
0002 2b00 0235 0002 b00b 1418 0b13 180b
1218 0b11 1890 4064 003b 6100 3e62 0043
6100 305b 00b0 0b10 180b 0f10 0b0e 180b
0d18 0b0c 180b 0b06 9043 0003 3e00 0140
0000 3b00 0330 000b b00b 0a09 903e 6e00
4362 0039 6c00 2f62 0fb0 0b09 180b 080b
902f 0004 3900 0043 0001 3e00 08b0 0b07
180b 0608 903e 6c00 3966 0143 650f b00b
0514 9039 0000 3e00 0143 0003 b00b 0404
9038 4b00 2e48 013e 6b01 436c 073f 5b0b
3e00 00b0 0b03 180b 0206 903f 0005 3e54
0db0 0b01 100b 0006 903e 0000 4300 0c2e
0001 3800 00ff 2f00 4d54 726b 0000 153f
00ff 2101 0000 ff03 0442 6173 7300 c120
00b1 0764 00b1 0a40 00b1 7900 010b 7f01
5b0a 015d 0082 7e91 1d7f 3a1d 006d 1d7d
1e1d 0013 1d5e 0a1d 000c 247a 7924 0017
267f 4126 0081 1726 5608 2600 102e 7f1f
2e00 1227 7f4e 2700 4126 7f58 2600 2126
7d20 2600 0f26 5809 2600 0f2b 7f09 e133
4603 0e54 030a 5f03 1169 032e 7102 7775
0340 7a0e 7f7f 0591 2b00 04e1 0040 8360
911d 7f3a 1d00 6e1d 7d1e 1d00 131d 5e0a
1d00 0c24 7a79 2400 1726 7f3d 2600 811b
2647 0826 0010 2d7f 1f2d 0012 2b7f 4e2b
0013 1f75 2e2b 7d01 1f00 282b 0037 1f78
2b1f 0005 2b7f 412b 004f 1f70 2d1f 0004
2b7d 7b2b 0014 2b78 5c2b 0004 1f66 312b
7d54 2b00 011f 0086 0b1d 7f3a 1d00 6e1d
7d1e 1d00 131d 5e0a 1d00 0c24 7a79 2400
1826 7f41 2600 8116 2656 0826 0011 2e7f
1f2e 0011 277f 4e27 0041 267f 6826 0011
267d 2026 000f 2658 0926 000f 2b7f 3d2b
0083 541d 7f3a 1d00 6e1d 7d1e 1d00 131d
5e0a 1d00 0c24 7a79 2400 1726 7f3d 2600
811b 2647 0826 0010 2d7f 1f2d 0012 2b7f
4e2b 0012 1f75 2f1f 0000 2b7d 292b 0037
1f78 2b1f 0005 2b7f 412b 0051 1f70 211f
000e 2b7d 7b2b 0014 2b78 5c2b 0006 1f66
2f2b 7d54 2b00 031f 0086 0a1d 7f3a 1d00
6d1d 7d1e 1d00 131d 5e0a 1d00 0c24 7a79
2400 1826 7f41 2600 8116 2656 0826 0010
2e7f 1f2e 0012 277f 4e27 0012 267f 811c
2600 0c26 7d20 2600 0f26 5809 2600 0f2b
7f51 2b00 8340 1d7f 3a1d 006e 1d7d 1e1d
0013 1d5e 0a1d 000c 247a 7924 0018 267f
3d26 0081 1a26 4708 2600 102d 7f1f 2d00
122b 7f4e 2b00 121f 752f 1f00 002b 7d29
2b00 371f 782b 1f00 052b 7f41 2b00 511f
7021 1f00 0e2b 7d7b 2b00 162b 785c 2b00
041f 662f 2b7d 542b 0003 1f00 091f 752f
1f00 002b 7d29 2b00 371f 782b 1f00 052b
7f41 2b00 511f 7021 1f00 0e2b 7d7b 2b00
162b 785c 2b00 021f 6631 2b7d 542b 0001
1f00 0b22 752f 2200 002e 7d29 2e00 3722
782b 2200 052e 7f41 2e00 4f22 702f 2200
022e 7d7b 2e00 162e 785c 2e00 0422 6630
2e7d 542e 0002 2200 0922 752f 2200 002e
7d29 2e00 3722 782b 2200 052e 7f41 2e00
4f22 7029 2200 082e 7d7b 2e00 1427 7881
0027 0011 277d 5427 000c 207f 811f 2000
0a20 5b0a 2000 0c20 6e12 2000 1e20 7f78
2000 181e 7b81 291e 0001 2565 0925 000f
2a74 072a 000f 255b 0925 0011 1e7f 7f1e
0010 1d70 8158 1d00 1729 7237 2900 2929
702d 2900 0422 797f 2200 102e 5731 227a
042e 0051 2200 0c20 7f50 2000 0f1f 6181
0c1f 0005 2b70 4e2b 0012 1f6a 551f 0009
2b6e 322b 0000 2468 8110 2400 1624 5e07
2400 1124 6812 2400 1e24 7850 2400 101c
6e31 1d78 011c 0081 341d 000c 246e 8126
2400 021c 640b 1c00 0d1d 7281 3d1d 0033
2973 2a29 0035 246b 2924 0007 1d74 8106
1d00 0b29 752c 2900 0322 7481 0922 0006
2e71 2e2e 0004 2774 811d 2700 0a22 590a
2200 0d27 7709 2700 2727 7f55 2700 0c27
7f2c 2700 0526 7881 0826 0008 2668 2726
0009 267b 8107 2600 0924 6e29 2400 0723
7781 1823 000e 266f 1828 5901 2600 1328
001d 1c7e 551c 000a 2874 2528 000c 2477
8108 2400 072b 7f2e 2b00 0229 6a51 2900
101d 6e51 1d00 0e22 7f81 0822 0008 216e
2921 0008 1f70 612b 7802 1f00 2c29 5b01
2b00 1929 0018 277f 8104 2700 2227 7409
2700 0f27 7f81 0227 000e 2277 2b22 0007
2777 8105 2700 2127 7709 2700 0f27 6e7b
2700 1522 7b2e 2200 0427 7481 0727 001f
2771 0a27 000e 2774 8107 2700 0b22 7728
2200 0827 7b81 0d27 001a 277b 0827 000f
2774 8125 2700 1c1f 7f3a 1f00 6e1f 7d1e
1f00 131f 5e0a 1f00 0c26 7a79 2600 1828
7f41 2800 8116 2456 0824 0010 2477 1f24
0012 297f 4e29 0012 287f 811c 2800 0c28
7d20 2800 0f28 5809 2800 1021 7f42 2100
834e 1f7f 3a1f 006e 1f7d 1e1f 0013 1f5e
0a1f 000c 267a 7926 0018 287f 3d28 0081
1a28 4708 2800 102d 7f1f 2d00 1221 7f4e
2100 1221 752f 2100 002d 7d29 2d00 3721
782b 2100 052d 7f41 2d00 4f21 702f 2100
022d 767b 2d00 142d 7823 2d00 3d28 6425
2800 0c2b 7f29 2b00 0628 7224 2800 0d21
752f 2100 002d 7d29 2d00 3721 782b 2100
052d 7f41 2d00 4f21 7028 2100 092d 7d7b
2d00 142d 7823 2d00 3e28 6827 2800 082b
7f30 2b00 0128 6421 2800 0f21 752f 2100
002d 7d29 2d00 3721 782b 2100 052d 7f41
2d00 4f21 702f 2100 022d 7d7b 2d00 142d
782f 2d00 3121 7611 2100 2021 745b 2100
8605 1d7c 8270 1d00 1124 7782 6d24 0011
2677 8572 2600 1022 7b82 6d22 0011 277d
8857 2700 2b1d 7882 641d 001c 1f7b 826b
1f00 1321 7b85 7121 0010 267f 8b62 2600
1f1f 7d82 741f 000c 1f7b 8273 1f00 0d21
7c85 6721 0018 227c 826f 2200 1127 7b88
4427 003d 267d 826b 2600 151f 7c82 6e1f
0012 217a 856f 2100 1026 7e82 6f26 0010
287d 826f 2800 1222 7d82 7122 0010 217f
8267 2100 191f 7a82 6a1f 0015 267f 8268
2600 1724 7d82 7124 0011 237f 826d 2300
1227 7d82 6b27 0016 227d 8269 2200 1724
7d82 6c24 0014 247e 8269 2400 1720 7e82
6920 0017 207e 826d 2000 1320 7b82 5e20
0021 207b 8267 2000 1a24 7f82 7324 000d
247c 8242 2400 0d1f 6427 1f00 0a24 7e82
6d24 0013 247f 824b 2400 051f 5b2a 1f00
0524 7f82 5524 0012 2464 0c24 000c 247b
824c 2400 061f 6c29 1f00 0624 7d82 6a24
0016 247f 8268 2400 192c 7b81 2d2c 0011
2b72 8135 2b00 0b29 7d81 3029 0010 277e
8137 2700 0925 7f81 2e25 0012 247e 8137
2400 0922 7f81 1d22 000d 206c 0920 000d
207f 8105 2000 3c1d 7f3a 1d00 6e1d 7d1e
1d00 131d 5e0a 1d00 0e24 7a79 2400 1626
7f41 2600 8116 2256 0622 0013 227f 1f22
0012 277f 4e27 0012 267f 810b 2600 1c26
7d20 2600 0f26 5809 2600 0f2b 7f3d 2b00
8355 1d7f 3a1d 006d 1d7d 1e1d 0013 1d5e
0a1d 000e 247a 7924 0015 267f 3d26 0081
1b26 4708 2600 102d 7f1f 2d00 132b 7f4e
2b00 121f 752f 1f00 012b 7d29 2b00 351f
782b 1f00 052b 7f41 2b00 511f 7021 1f00
0f2b 7d81 072b 0020 2b78 282b 0008 265a
0826 0011 266a 1f26 0011 297f 2b29 0005
2678 2026 0010 1f75 2f1f 0001 2b7d 292b
0035 1f78 2b1f 0005 2b7f 412b 0051 1f70
211f 000f 2b7d 7b2b 0015 2b78 582b 0008
1f5f 1f1f 0011 2b7f 542b 000c 2275 2f22
0001 2e7d 292e 0035 2278 2b22 0005 2e7f
312e 0061 2270 2722 0009 2e7d 7b2e 0015
2e78 5c2e 0004 2972 2729 0007 2c7b 2d2c
0003 2972 2f29 0003 2275 2f22 0001 2e7d
292e 0035 2278 2b22 0005 2e7f 412e 0051
2270 2122 000f 2e7d 7b2e 0015 2778 8100
2700 0f27 7d54 2700 0c20 7f81 1f20 000a
205b 0a20 000c 206e 1220 001e 207f 7820
0018 1e7b 8129 1e00 0125 6509 2500 0f2a
7407 2a00 0f25 5b09 2500 111e 7f5b 1e00
041c 7f2d 1c00 031d 7a81 1c1d 000b 1d70
0a1d 000e 1d7f 7d1d 0013 2970 2d29 0004
2279 7f22 0010 2e73 3122 7a04 2e00 4c22
0011 207f 5020 000f 1f7d 810c 1f00 052b
704e 2b00 121f 7955 1f00 092b 7a32 2b00
0024 7d81 1024 0016 245e 0724 0011 247a
1224 0006 1f68 0e1f 000a 247c 5024 0010
1c74 291c 0008 1d78 8125 1d00 0424 5e07
2400 1124 6e81 0c24 0003 1c7a 0b1c 000e
1c78 0b1c 000d 1d7c 8148 1d00 2829 732a
2900 3524 7329 2400 071d 7a81 061d 000b
2975 2c29 0003 227b 5922 0007 2e79 592e
0008 277c 811d 2700 0a22 590a 2200 0d27
7709 2700 2727 7f55 2700 0c27 7f2c 2700
0526 7881 0826 0008 2668 2726 0009 267b
8107 2600 0924 6e29 2400 0723 7781 1823
000e 266f 1828 7a01 2600 1328 0005 2371
0d23 000b 1c7e 551c 000a 2874 2528 000c
2477 8115 2400 1324 720d 2400 0a29 7f5a
2900 071d 7751 1d00 0e22 7f81 0822 0008
216e 2921 0008 1f7a 612b 7802 1f00 2c29
5b01 2b00 1929 0018 277f 8104 2700 2227
7409 2700 0f27 7f81 0227 000e 2277 2b22
0007 277f 8105 2700 2127 7709 2700 0f27
7c7b 2700 1522 7b2e 2200 0427 7c81 0727
001f 2771 0a27 000e 277d 8107 2700 0b22
7728 2200 0827 7b81 0d27 001a 277b 0827
000f 277d 8125 2700 1c1f 7f3a 1f00 6e1f
7d1e 1f00 111f 5e0a 1f00 0e26 7a79 2600
1828 7f41 2800 8116 2456 0824 0011 2477
1f24 0011 297f 4e29 0012 287f 811c 2800
0c28 7d20 2800 0f21 5809 2100 0f21 7f42
2100 831e 267f 2d26 0004 1f7f 3a1f 006e
1f7d 1e1f 0013 1f5e 0a1f 000e 267a 7926
0015 287f 3d28 0081 1b28 4f08 2800 102d
771f 2d00 1221 7f4e 2100 1221 752f 2100
012d 7d29 2d00 3621 782b 2100 052d 7f41
2d00 5021 702f 2100 012d 767b 2d00 152d
7823 2d00 3d28 6425 2800 0b2b 7f29 2b00
0728 7224 2800 0c21 752f 2100 012d 7d29
2d00 3621 782b 2100 052d 7f41 2d00 5021
7028 2100 082d 7d7b 2d00 152d 7823 2d00
3d21 6e27 2100 082d 7f30 2d00 0121 6e21
2100 0f24 7f30 307f 0c24 0024 3000 3024
7f30 307f 0924 0034 3000 5324 6e30 307f
0124 0044 3000 4a30 7f60 2470 0130 0030
307f 0224 002d 2472 0230 002a 2400 0526
7f30 327f 0a26 002a 3200 2c26 7a24 2600
0c25 7f72 2500 1d25 7f25 2500 0c24 7f81
0024 0010 237f 4f23 0011 237f 2923 0007
217f 2021 000f 1f7f 2c1f 0005 1d7a 561d
000a 1d7c 401d 0008 227b 6d22 000b 2175
3c21 000d 217d 1921 0017 2154 0421 0013
267f 8100 2600 0f22 7f3b 2200 0d27 7f71
2700 081f 7f59 1f00 0726 7f3d 2600 0a2b
7f1c 2b00 1526 7a06 2600 1124 7f76 2400
1b28 7f1c 2800 1328 7f0c 2800 0c21 7f71
2100 0727 7f81 2227 0008 277f 0c27 000b
2c7f 512c 000f 247d 5724 0009 297f 5729
0009 287f 3628 0011 2d7f 1c2d 0016 287f
0b28 000c 217f 8105 2100 0b2a 7f16 2a00
192a 7f0e 2a00 0a23 7f62 2300 1720 7f5d
2000 022c 7f5d 2c00 0422 7f58 2200 072e
7f5b 2e00 0523 7f5e 2300 042f 7f58 2f00
0625 7f5d 2500 0531 7f52 3100 0d26 7f51
2600 1032 7f3c 3200 0a26 7f1f 2600 1121
6d0a 2100 0e21 7d2d 2100 0326 7f29 2600
0724 7d2a 2400 0823 7f50 2300 0e2f 7a48
2f00 0023 7f21 2300 0f1e 6b06 1e00 121e
7f2e 1e00 041c 7d4f 1c00 1021 7d67 2100
2821 7a2a 2100 0821 6a4c 2100 122d 7530
216a 0a2d 001d 2100 0926 7a5a 2600 0632
7530 267a 0432 004a 2600 122b 6211 2b00
1f2b 7f30 1d78 062b 002c 1d00 001e 7f4c
1e00 122a 6e40 2a00 081e 6b1a 1e00 161e
5b0d 1e00 0b21 6c2c 2100 0423 5e31 2f6a
0523 002b 2f00 0128 7f48 e112 4902 0355
030a 5f03 2767 037b 6a03 9128 0003 e13d
6503 153e 0291 347a 01e1 0040 4091 3400
0828 7a18 2800 171c 780f 1c00 091c 7a21
1c00 1121 7d30 2d75 0e21 001b 2d00 0726
7f52 2600 0c32 7530 267a 0432 0021 2600
0b2b 7a5a 2b00 071f 7f59 1f00 0724 7f7f
2400 1223 7848 2300 1721 6231 2100 0022
5f28 2200 0822 711e 2200 1126 7f51 2600
1032 7f3c 3200 0a26 7f1f 2600 1121 6d0a
2100 0e21 7d2d 2100 0326 7f29 2600 0724
7d2a 2400 0823 7f50 2300 0e2f 7a48 2f00
0023 7f21 2300 0f1e 6b06 1e00 121e 7f2e
1e00 041c 7d4f 1c00 1021 7d67 2100 2821
7a2a 2100 0821 6a4c 2100 122d 7530 216a
0a2d 001d 2100 0926 7a5a 2600 0632 7530
267a 0432 004a 2600 122b 6214 2b00 1c2b
7f27 2b00 091d 7832 1d00 001e 7f4c 1e00
122a 6e40 2a00 081e 6b1a 1e00 161e 5b0d
1e00 0b21 6c2c 2100 0423 5e31 2f6a 0523
002b 2f00 0128 7f48 e112 4902 0355 030a
5f03 2767 037b 6a03 9128 0003 e13d 6503
153e 0291 347a 01e1 0040 4091 3400 0828
7a18 2800 171c 780f 1c00 091c 7a21 1c00
1121 7d30 2d75 0e21 001b 2d00 0726 7f52
2600 0c32 7530 267a 0432 0021 2600 0b2b
7a5a 2b00 071f 7f59 1f00 0724 7f7f 2400
1223 7848 2300 1721 6231 2100 0022 5f28
2200 0822 711e 2200 1126 7f51 2600 1032
7f3c 3200 0a26 7f1f 2600 1121 6d0a 2100
0e21 7d2d 2100 0326 7f29 2600 0724 7d2a
2400 0823 7f50 2300 0e2f 7a48 2f00 0023
7f21 2300 0f1e 6b06 1e00 121e 7f2e 1e00
041c 7d4f 1c00 1021 7d67 2100 2821 7a2a
2100 0821 6a4c 2100 122d 7530 216a 0a2d
001d 2100 0926 7a5a 2600 0632 7530 267a
0432 004a 2600 122b 6214 2b00 1c2b 7f27
2b00 091d 7832 1d00 001e 7f4c 1e00 122a
6e40 2a00 081e 6b1a 1e00 161e 5b0d 1e00
0b21 6c2c 2100 0423 5e31 2f6a 0523 002b
2f00 0128 7f48 e112 4902 0355 030a 5f03
2767 037b 6a03 9128 0003 e13d 6503 153e
0291 347a 01e1 0040 4091 3400 0828 7a18
2800 171c 780f 1c00 091c 7a21 1c00 1121
7d30 2d75 0e21 001b 2d00 0726 7f52 2600
0c32 7530 267a 0432 0021 2600 0b2b 7a5a
2b00 071f 7f59 1f00 0724 7f7f 2400 1223
7848 2300 1721 6231 2100 0022 5f28 2200
0822 711e 2200 1126 7f51 2600 1032 7f3c
3200 0a26 7f1f 2600 1121 6d0a 2100 0e21
7d2d 2100 0326 7f29 2600 0724 7d2a 2400
0823 7f50 2300 0e2f 7a48 2f00 0023 7f21
2300 0f1e 6b06 1e00 121e 7f2e 1e00 041c
7d4f 1c00 1021 7d67 2100 2821 7a2a 2100
0821 6a4c 2100 122d 7530 216a 0a2d 001d
2100 0926 7a5a 2600 0632 7530 267a 0432
004a 2600 122b 6214 2b00 1c2b 7f27 2b00
091d 7832 1d00 001e 7f4c 1e00 122a 6e40
2a00 081e 6b1a 1e00 161e 5b0d 1e00 0b21
6c2c 2100 0423 5e31 2f6a 0523 002b 2f00
0128 7f48 e112 4902 0355 030a 5f03 2767
037b 6a03 9128 0003 e13d 6503 153e 0291
347a 01e1 0040 4091 3400 0828 7a18 2800
171c 780f 1c00 091c 7a21 1c00 1121 7d30
2d75 0e21 001b 2d00 0726 7f52 2600 0c32
7530 267a 0432 0021 2600 0b2b 7a5a 2b00
071f 7f59 1f00 0724 7f7f 2400 1223 7848
2300 1721 6231 2100 0022 5f28 2200 0822
711e 2200 1126 7f51 2600 1032 7f07 b10b
7e18 0b7d 180b 7c05 9132 000a 267f 09b1
0b7b 1691 2600 02b1 0b7a 0f91 216d 09b1
0b79 0191 2100 0e21 7d09 b10b 7818 0b77
0c91 2100 0326 7f09 b10b 7618 0b75 0891
2600 0724 7d09 b10b 7418 0b73 0991 2400
0823 7f07 b10b 7218 0b71 100b 7018 0b6f
0991 2300 0e2f 7a01 b10b 6e18 0b6d 180b
6c17 912f 0000 237f 01b1 0b6b 180b 6a08
9123 000f 1e6b 01b1 0b69 0591 1e00 121e
7f01 b10b 6818 0b67 1591 1e00 03b1 0b66
0191 1c7d 17b1 0b65 180b 6418 0b63 0891
1c00 08b1 0b62 0891 217d 10b1 0b61 180b
6018 0b5f 180b 5e0f 9121 0009 b10b 5d18
0b5c 0791 217a 11b1 0b5b 180b 5a01 9121
0008 216a 0fb1 0b59 180b 5818 0b57 0d91
2100 0bb1 0b56 0791 2d75 11b1 0b55 100b
540f 9121 6a09 b10b 5301 912d 0017 b10b
5206 9121 0009 267a 09b1 0b51 180b 5018
0b4f 180b 4e09 9126 0006 3275 09b1 0b4d
180b 4c0f 9126 7a04 3200 05b1 0b4b 180b
4a18 0b49 1591 2600 03b1 0b48 0f91 2b62
09b1 0b47 0b91 2b00 05b1 0b46 1791 2b7f
01b1 0b45 180b 440e 912b 0009 1d78 01b1
0b43 180b 4218 0b41 0191 1d00 001e 7f17
b10b 4018 0b3f 180b 3e05 911e 0012 2a6e
01b1 0b3d 180b 3c18 0b3b 0f91 2a00 081e
6b01 b10b 3a18 0b39 0191 1e00 0fb1 0b38
0791 1e5b 0d1e 0004 b10b 3707 9121 6c11
b10b 3618 0b35 0391 2100 0423 5e11 b10b
3418 0b33 0891 2f6a 0523 000b b10b 3218
0b31 0891 2f00 0128 7f0f b10b 3018 0b2f
180b 2e09 e112 4902 0355 030a 5f03 2767
037b 6a03 9128 0001 b10b 2d02 e13d 6503
153e 0291 347a 01e1 0040 10b1 0b2c 180b
2b10 0b2a 0891 3400 0828 7a08 b10b 2910
9128 0008 b10b 280f 911c 7809 b10b 2706
911c 0009 1c7a 09b1 0b26 1891 1c00 00b1
0b25 1191 217d 07b1 0b24 180b 2311 912d
7507 b10b 2207 9121 0011 b10b 210a 912d
0007 267f 07b1 0b20 180b 1f18 0b1e 180b
1d03 9126 000c 3275 01b1 0b1c 180b 1b17
9126 7a01 b10b 1a03 9132 0015 b10b 190c
9126 000b 2b7a 01b1 0b18 180b 1718 0b16
180b 1511 912b 0007 1f7f 00b1 0b14 180b
1318 0b12 180b 1111 911f 0007 247f 00b1
0b10 180b 0f10 0b0e 180b 0d18 0b0c 180b
0b0f 9124 0009 b10b 0a09 9123 780f b10b
0918 0b08 180b 0709 9123 000f b10b 0608
9121 6210 b10b 0518 0b04 0991 2100 0022
5f0f b10b 0318 0b02 0191 2200 0822 710f
b10b 010f 9122 0001 b10b 0000 ff2f 004d
5472 6b00 0018 c900 ff21 0100 00ff 0305
4f72 6761 6e00 c711 00b7 075a 00b7 0a78
00b7 7900 010b 7f01 5b46 015d 1ebf 5d97
454d 0048 4c01 4c43 0043 451a 4800 034c
0001 4500 0343 006a b70b 1f02 0b20 020b
2100 0b22 0197 4653 0045 5c00 4154 004a
5e01 b70b 2302 0b24 000b 2502 0b26 020b
2700 0b28 040b 2900 0b2a 020b 2b02 0b2c
000b 2d02 0b2e 020b 2f00 0b30 020b 3102
0b32 020b 3302 0b34 000b 3502 0b36 020b
3700 0b38 020b 3902 0b3a 000b 3b04 0b3c
000b 3d02 0b3e 020b 3f00 0b40 020b 4102
0b42 000b 4302 0b44 020b 4502 0b46 020b
4700 0b48 020b 4902 0b4a 000b 4b02 0b4c
020b 4d00 0b4e 020b 4f02 0b50 020b 5102
0b52 000b 5302 0b54 020b 5500 0b56 020b
5702 0b58 020b 5902 0b5a 000b 5b02 0b5c
020b 5d00 0b5e 020b 5f02 0b60 000b 6102
0b62 020b 6302 0b64 020b 6500 0b66 020b
6702 0b68 000b 6902 0b6a 020b 6b02 0b6c
020b 6d00 0b6e 020b 6f02 0b70 000b 7102
0b72 020b 7300 0b74 020b 7502 0b76 020b
7702 0b78 000b 7902 0b7a 020b 7b00 0b7c
0297 4a00 0041 0000 4500 00b7 0b7d 0297
4600 00b7 0b7e 000b 7f09 9740 3900 4141
0048 3c00 453d 1e45 0000 4100 0240 0001
4800 64b7 0b15 020b 1604 0b17 000b 1804
0b19 0197 4858 004d 5201 4354 00b7 0b1a
020b 1b02 0b1c 020b 1d02 0b1e 020b 1f04
0b20 000b 2104 0b22 000b 2304 0b24 020b
2502 0b26 020b 2702 0b28 020b 2902 0b2a
040b 2b00 0b2c 040b 2d02 0b2e 020b 2f02
0b30 020b 3102 0b32 020b 3302 0b34 020b
3504 0b36 000b 3704 0b38 020b 3902 0b3a
020b 3b02 0b3c 020b 3d02 0b3e 020b 3f02
0b40 040b 4100 0b42 040b 4302 0b44 020b
4502 0b46 020b 4702 0b48 020b 4902 0b4a
020b 4b04 0b4c 000b 4d04 0b4e 020b 4f02
0b50 020b 5102 0b52 020b 5302 0b54 040b
5500 0b56 040b 5700 0b58 040b 5902 0b5a
020b 5b02 0b5c 020b 5d02 0b5e 020b 5f04
0b60 000b 6104 0b62 020b 6302 0b64 020b
6502 0b66 020b 6702 0b68 020b 6902 0b6a
040b 6b00 0b6c 040b 6d02 0b6e 020b 6f02
0b70 020b 7102 0b72 020b 7302 0b74 020b
7504 0b76 000b 7704 0b78 020b 7902 0b7a
020b 7b02 0b7c 020b 7d02 0b7e 020b 7f0e
974d 0002 4300 0048 0002 4543 004c 4300
4843 0043 4381 0f43 0003 4800 014c 0000
4500 1445 3c00 4c3c 0048 4400 4139 1648
0005 4c00 0341 0001 4500 2b45 4200 413e
0046 3600 4a3e 1e46 0004 4500 0141 0000
4a00 836d 4543 0048 4200 4c3c 0043 3e16
4800 024c 0001 4500 0343 0081 0c45 4300
4843 004c 4200 433e 0d43 0000 4800 014c
0000 4500 35b7 0b1f 020b 2002 0b21 000b
2201 9746 5300 455c 0041 5400 4a5e 01b7
0b23 020b 2400 0b25 020b 2602 0b27 000b
2804 0b29 000b 2a02 0b2b 020b 2c00 0b2d
020b 2e02 0b2f 000b 3002 0b31 020b 3202
0b33 020b 3400 0b35 020b 3602 0b37 000b
3802 0b39 020b 3a00 0b3b 040b 3c00 0b3d
020b 3e02 0b3f 000b 4002 0b41 020b 4200
0b43 020b 4402 0b45 020b 4602 0b47 000b
4802 0b49 020b 4a00 0b4b 020b 4c02 0b4d
000b 4e02 0b4f 020b 5002 0b51 020b 5200
0b53 020b 5402 0b55 000b 5602 0b57 020b
5802 0b59 020b 5a00 0b5b 020b 5c02 0b5d
000b 5e02 0b5f 020b 6000 0b61 020b 6202
0b63 020b 6402 0b65 000b 6602 0b67 020b
6800 0b69 020b 6a02 0b6b 020b 6c02 0b6d
000b 6e02 0b6f 020b 7000 0b71 020b 7202
0b73 000b 7402 0b75 020b 7602 0b77 020b
7800 0b79 020b 7a02 0b7b 000b 7c02 974a
0000 4100 0045 0000 b70b 7d02 9746 0000
b70b 7e00 0b7f 0897 482e 0045 3800 4137
003e 2e11 4800 0245 0000 4100 013e 0048
b70b 1502 0b16 020b 1700 0b18 0197 545a
0059 5a01 b70b 1902 0b1a 000b 1b02 0b1d
020b 1e00 0b1f 020b 2002 0b21 000b 2202
0b24 020b 2500 0b26 020b 2702 0b28 000b
2902 0b2b 020b 2c00 0b2d 020b 2e02 0b2f
000b 3002 0b32 020b 3300 0b34 020b 3502
0b36 000b 3702 0b39 020b 3a00 0b3b 020b
3c02 0b3d 000b 3e02 0b40 020b 4100 0b42
020b 4302 0b44 000b 4502 0b47 020b 4800
0b49 020b 4a02 0b4b 000b 4c02 0b4e 020b
4f00 0b50 020b 5102 0b52 000b 5302 0b55
020b 5600 0b57 020b 5802 0b59 000b 5a02
0b5c 020b 5d00 0b5e 020b 5f02 0b60 000b
6102 0b63 020b 6400 0b65 020b 6602 0b67
000b 6802 0b6a 020b 6b00 0b6c 020b 6d02
0b6e 000b 6f02 0b71 020b 7200 0b73 020b
7402 0b75 000b 7602 0b78 020b 7900 0b7a
020b 7b02 0b7c 000b 7d02 0b7f 1697 5900
0254 0003 4842 004d 4300 4a44 0051 3908
4a00 0151 0000 4d00 0348 0024 4944 0047
4e00 454b 004d 447d 4500 0049 0000 4700
014d 0011 464b 014a 4e00 454a 004d 471a
4a00 0346 0000 4500 004d 0073 4640 004a
4900 4543 004d 4028 4500 0246 0000 4a00
004d 0081 1645 4600 463c 004a 4600 4d45
304f 4630 5150 044f 000c 4d00 0d4a 000e
5100 034d 5039 4600 0545 000b 4d00 1746
3e00 4d41 0045 4400 4a3f 0b4a 0001 4600
0245 0000 4d00 224d 5101 4648 004a 4c00
454a 4f4d 0006 4500 004a 0002 4600 3a45
3e00 4645 004d 3400 4a42 154a 0000 4600
034d 0003 4500 744a 4e00 4643 0045 4a00
4d4a 2346 0003 4a00 0345 0004 4d00 8114
463c 004d 4b00 453b 004a 4430 4f48 084d
0028 4f00 0051 4a27 5100 074d 4241 4a00
0646 0000 4500 024d 0019 4642 004d 4600
453c 004a 3908 4500 024a 0001 4600 014d
0024 4d54 004a 4c00 464e 0045 4b3f 4500
0146 0001 4a00 004d 004e 494b 014d 4e00
484a 0050 471a 4d00 0349 0000 4800 0050
0073 4940 004d 4900 4843 0050 4028 4800
0249 0000 4d00 0050 0081 1648 4600 493c
004d 4600 5045 3052 4630 5450 0452 000c
5000 0d4d 000e 5400 0350 5039 4900 0548
000b 5000 1749 3e00 5041 0048 4400 4d3f
0b4d 0001 4900 0248 0000 5000 2250 5101
4948 004d 4c00 484a 4f50 0006 4800 004d
0002 4900 3a48 3e00 4945 0050 3400 4d42
154d 0000 4900 0350 0003 4800 744d 4e00
4943 0048 4a00 504a 2349 0003 4d00 0348
0004 5000 8114 504b 0049 3c00 483b 004d
4430 524b 3052 0000 5459 8213 5400 0450
0001 4800 024d 0001 4900 0446 4400 484e
004b 5000 434a 8141 5247 004f 5581 364b
0001 5200 004f 0001 4800 0743 0001 4b48
0050 4700 4742 004c 4e02 4600 8200 4700
0446 4772 4600 024b 0000 5000 034c 0002
4b3b 0044 3c00 4851 0043 3d82 7e43 0001
4143 813b 4b00 0248 0003 4640 004a 5081
3f46 0001 4100 0044 0000 4a00 0146 4200
413e 004a 4681 3f4a 0002 4b3f 813b 4b00
0046 0002 4100 014a 4601 4d4e 0046 4581
414d 0000 4c3c 8136 4600 054c 0001 4a00
044f 4c00 454e 0048 4600 4c46 812a 4800
1446 4602 4c00 004d 4b00 4a4e 044f 0081
3645 0003 4d00 0046 0000 4a00 034f 5300
453a 0048 4e00 4c50 8137 4c00 054f 0002
4800 004d 5300 4646 004a 4981 1045 0001
4d00 014c 4e00 454e 0048 4d01 4600 004a
002d 4c00 024b 3b00 4443 0145 0082 1f4b
0000 4a53 5b4a 0003 4800 0044 0000 4647
024a 4d00 4346 8140 4952 014a 0081 3c46
0001 4300 0049 0002 4c4c 004f 5200 484f
8140 534d 6053 0000 4f00 004e 4300 514c
5b4c 0002 5100 004e 0001 4800 024e 5200
4a4c 0045 4c82 0651 5748 474e 004f 4e02
5100 0345 0001 4e00 294a 0000 4700 004f
0002 5242 013f 4000 4647 004a 5100 4345
821a 5200 0645 5205 4600 5745 0001 3f00
004a 0003 414a 003e 4800 454c 0048 4e03
4300 813a 4800 0345 0000 4649 0043 4781
3a43 0000 4100 0246 0003 3e00 0046 4800
414a 0043 4a00 4a52 827d 4300 0248 4f00
4547 024a 0002 4600 827c 4500 0041 0001
4800 014a 5300 464a 0041 4a00 4345 813d
4600 0145 4801 4300 0048 5003 4a00 813d
4500 0041 0001 4800 0046 4e00 4a58 0041
4e00 433f 813f 4600 0143 0000 4850 0045
4a04 4a00 8139 4100 0048 0002 4500 81d2
5f48 4782 2045 4a82 2148 0001 4500 004a
4f00 463f 5e4c 4201 4600 004a 0001 434a
0048 4a81 674c 0001 4300 0248 0004 4a48
0146 2000 4543 0041 3519 4100 004a 0000
4600 0445 0084 5454 5a81 4051 4c00 4a4a
0046 4400 4d48 5c4a 0002 484a 0045 4201
4600 004d 0000 5100 004f 4700 4c46 8215
4c00 0445 0000 4f00 00b7 0b4e 0197 5567
0248 0000 5400 0045 6700 4d67 00b7 0b4f
0197 4968 00b7 0b50 0197 5168 02b7 0b51
010b 5203 0b53 010b 5403 0b55 010b 5603
0b57 010b 5803 0b59 010b 5a03 0b5b 010b
5c03 0b5d 010b 5e03 0b5f 010b 6003 0b61
010b 6203 0b63 010b 6403 0b65 010b 6603
0b67 010b 6803 0b69 010b 6a03 0b6b 010b
6c03 0b6d 010b 6e03 0b6f 010b 7003 0b71
010b 7203 0b73 010b 7403 0b75 010b 7603
0b77 010b 7803 0b79 010b 7a03 0b7b 010b
7c03 0b7d 010b 7f2f 9749 0000 4d00 0151
0003 5500 0052 3d01 4500 0051 4601 5645
014d 3d16 5200 0151 0001 5600 014d 0078
5247 0151 5301 564f 004d 4833 5100 0052
0002 5600 004d 0081 094d 3b02 4a46 0145
402a 4500 0146 432b 4600 0247 4107 4853
0a47 001d 4800 0445 4708 4a00 044d 0007
4500 7e50 5c07 5000 0051 6485 7451 0002
534c 0a54 6c0a 5300 8573 564b 0354 0005
5453 0057 6f07 5600 8465 4426 004d 3a02
493a 0048 4581 6048 0000 4400 0049 0002
4d00 0457 0000 5400 b762 b70b 3e04 0b3f
010b 4003 0b41 010b 4204 0b43 0297 535a
004c 5800 4f5e 0054 5401 b70b 4401 0b45
030b 4601 0b47 040b 4803 0b49 010b 4a03
0b4b 040b 4c01 0b4d 030b 4e01 0b4f 030b
5004 0b51 010b 5203 0b53 010b 5403 0b55
040b 5601 0b57 030b 5801 0b59 040b 5a03
0b5b 010b 5c03 0b5d 010b 5e04 0b5f 030b
6001 0b61 030b 6201 0b63 040b 6403 0b65
010b 6603 0b67 040b 6801 0b69 030b 6a01
0b6b 030b 6c04 0b6d 010b 6e03 0b6f 010b
7003 0b71 040b 7201 0b73 030b 7401 0b75
040b 7603 0b77 010b 7803 0b79 010b 7a04
0b7b 030b 7c01 0b7d 0397 4f00 00b7 0b7e
0197 5300 004c 0000 b70b 7f03 9754 0001
4f5b 004a 5a00 4e5e 0053 5e27 4e00 014a
0001 4f00 0353 0034 4f4b 044a 4781 0a51
4604 5245 054f 0004 5347 0451 0003 5200
054a 0009 5300 114f 4e01 4c46 574c 0000
4f00 074e 4000 4a4c 0047 4700 4542 8210
4a00 0445 0003 4700 004e 0006 5757 0156
5a03 5b51 0157 0001 5860 8131 5800 813c
5600 095b 0000 525c 0552 0000 5655 0153
605c 5300 0151 4c0a 534d 0151 0010 5300
0051 4807 4f49 0351 000e 4f00 0251 4b81
704f 5603 5100 5953 3f01 4e43 054f 0081
5c53 0001 5600 074e 0007 5345 014a 4701
4c4e 004f 5008 4f00 0153 0001 4c00 024a
0023 4957 014b 5000 4f57 0047 547b 4700
0049 0001 4b00 024f 0012 4852 004c 5000
4f50 0047 491b 4f00 0147 0000 4c00 0348
0070 4855 004f 5001 4c4e 0047 4c33 4c00
0148 0000 4f00 0047 0081 0c4f 4e00 484c
004c 4a00 4746 827f 4c00 004f 0001 4700
0148 002f 4f4f 0048 4b00 4c4a 0047 421c
4c00 0148 0001 4f00 0047 0071 4c4c 0048
4e00 4748 004f 4c37 4f00 004c 0000 4800
0147 0011 3943 0f39 0007 484b 0047 4800
4c49 014f 4527 4700 054f 0001 4c00 0048
0003 4747 0048 5401 4c4b 004f 4f28 4f00
084f 4c2f 5150 0a4f 0027 534f 0851 0027
4f50 0153 0043 4c00 004f 0004 4800 0147
0016 4843 0047 4400 4f45 024c 2c07 4c00
0047 0001 4f00 0248 0025 4f57 004c 4e00
4852 0147 504e 4f00 014c 0000 4800 0147
0040 5249 004b 4700 4f51 004a 4816 4f00
0752 0000 4b00 044a 006d 4f55 004b 4700
5246 014a 442c 3c4a 0852 0001 4b00 024f
0001 4a00 023c 0009 3c3c 0a3c 0029 3c48
0a3c 000e 4142 0f41 0024 4f4e 004b 4700
4a45 0052 4381 5c52 0002 4b00 014f 0002
4a00 0f4a 3100 4b32 054b 0003 4a00 284f
5900 5249 004a 4b00 4b42 604b 0000 4a00
0352 0000 4f00 5b4f 5300 4c53 0048 5401
474d 3847 0001 4c00 0148 0000 4f00 574b
5100 4f53 0047 502d 4700 014b 0001 4f00
614c 5700 4851 004f 6000 474e 3051 5330
5350 044c 0003 4f00 1651 0001 4700 0948
0001 5300 0745 4d01 4a50 004f 4f27 4a00
024f 0005 4500 3045 5001 4f55 014a 502e
4845 014c 5301 4a00 0043 4f02 4500 034f
0029 4750 004a 4b01 4c00 0148 0000 424c
0343 0028 4700 014a 0003 4200 0143 4200
4b4a 0046 4d00 4a53 5746 0001 4300 034b
0000 4a00 0343 4100 4b4d 0046 4d01 4a5d
3c4a 0005 4b00 0446 0003 4a4c 0143 0000
4849 004d 5100 454a 6f45 0004 4800 014d
0000 4a00 044a 5300 4c53 0043 5300 4753
384c 0002 4a00 0047 0001 4300 0d47 5300
434e 004a 5500 4c4f 1343 0004 4700 004c
0001 4a00 2e49 5400 4e40 0045 4d01 4c4c
810c 4c00 0145 0003 4900 014e 0000 4b58
0048 5100 444d 0043 4c40 4400 034b 0002
4800 0043 0003 4a61 0046 4500 4d5b 0043
4168 4600 034a 0001 4300 024d 0009 454c
0040 4b00 4853 004c 5101 4143 5640 0001
4c00 0145 0000 4800 0441 0004 4858 0045
4c00 4346 004c 5738 4500 074c 0001 4800
0847 5300 4856 004f 5600 4c53 0143 0011
4700 004c 0001 4800 034f 0030 4a53 0040
5300 474e 0043 4f81 0a40 0003 4a00 0047
0001 4300 034e 5100 454b 0047 5400 4a59
1c45 0000 4e00 014a 0008 4700 2244 4d00
4c5b 0047 5b00 4951 7649 0002 4400 0147
0000 4c00 0144 5400 4959 0041 5881 3b44
0001 4900 0341 0001 4b59 0046 5800 4860
0043 5357 4800 044b 0000 4600 0043 0005
4a5e 0041 5000 4658 0043 5355 4300 0446
0001 4100 034a 0003 4357 004c 5f00 4853
0045 5459 4300 024c 0000 4500 0248 0002
4e4e 014a 6800 4556 4345 0000 4e00 044a
0001 494d 0050 5300 4c5b 0047 531f 4c00
0147 0000 4900 0350 0025 4c60 0044 5300
4952 0047 5281 0447 0004 4900 014c 0003
4400 0450 5700 475a 004c 5b1b 4c00 0147
0003 5000 274e 5800 4953 004b 5100 465c
7146 0001 4900 044b 0000 4e00 0442 5200
465c 0049 5e81 2d46 0006 4900 0942 0002
4453 014b 5b01 4860 8131 4b00 0248 0008
4400 034c 5d00 495f 0045 5381 374c 0001
4900 0445 0004 4e5b 004b 5c00 4756 8138
4700 004b 0000 4e00 0a4c 5900 4f5b 0048
5300 4752 3747 0001 4800 034f 0000 4c00
6d4f 5900 4c59 0048 5000 4750 0d47 0002
4800 024c 0000 4f00 3648 5700 4e55 004c
5a01 454b 8106 4800 014c 0001 4e00 0245
0006 4e51 004a 5d00 4553 254a 0001 4e00
0245 0081 004e 5100 4a5f 0045 530c 4a00
004e 0003 4500 374a 5800 4c51 0047 5300
434e 8103 4300 0347 0000 4a00 014c 003b
4c5a 004f 5a00 484c 0047 4b1b 4700 014f
0002 4800 004c 0072 4f53 004c 5300 484c
0047 4a27 4700 0148 0001 4f00 014c 0081
1648 5300 4c56 004f 5030 5145 2551 000b
5366 1d4f 0013 4f58 0553 0014 4c00 0348
0008 4f00 3c4c 4f00 4f50 0048 460a 4800
004f 0001 4c00 2441 5300 4f53 014c 5000
474b 584c 0004 4700 004f 0004 4950 0050
5300 4c5e 0045 4f04 4100 2750 0001 4900
0145 0000 4c00 7a49 4900 504e 0045 5301
4c55 0b4c 0000 4900 0145 0001 5000 394e
5302 485b 004b 4900 454e 8102 4500 024b
0001 4800 014e 0008 434b 004a 5500 4e49
0047 4b5a 4e00 0043 0003 4a00 0047 0005
5665 005a 6300 5358 0051 5a43 5100 0153
0002 5600 015a 0001 4e4d 0043 4c00 4753
004a 5217 4300 004e 0001 4700 044a 002a
4b4d 0149 4b01 4f4a 0046 5381 084f 0004
4b00 0049 0000 4600 3245 5101 4859 004c
5300 4150 004f 5829 4f00 054c 0000 4800
0445 0004 4100 5b41 4b00 4554 004f 5300
475a 004c 4f42 4500 0147 0002 4c00 004f
0001 4100 7948 5700 4f58 004c 5300 4750
7847 0001 4800 054c 0002 4f00 0f4f 4b00
4551 004a 592a 4500 014a 0003 4f00 8144
4c59 004f 5b00 4853 0047 5237 4700 0148
0003 4f00 004c 006d 4f59 004c 5900 4850
0047 500d 4700 0248 0002 4c00 004f 0036
4857 004e 5500 4c5a 0145 4b81 0648 0001
4c00 014e 0002 4500 064e 5100 4a5d 0045
5325 4a00 014e 0002 4500 8100 4e51 004a
5f00 4553 0c4a 0000 4e00 0345 0037 4a58
004c 5100 4753 0043 4e81 0343 0003 4700
004a 0001 4c00 3b4c 5a00 4f5a 0048 4c00
474b 1b47 0001 4f00 0248 0000 4c00 724f
5300 4c53 0048 4c00 474a 2747 0001 4800
014f 0001 4c00 8116 4853 004c 5600 4f50
3051 4525 5100 0b53 661d 4f00 134f 5805
5300 144c 0003 4800 084f 003c 4c4f 004f
5000 4846 0a48 0000 4f00 014c 0024 4153
004f 5301 4c50 0047 4b58 4c00 0447 0000
4f00 0449 5000 5053 004c 5e00 454f 0441
0027 5000 0149 0001 4500 004c 007a 4949
0050 4e00 4553 014c 550b 4c00 0049 0001
4500 0150 0039 4e53 0248 5b00 4b49 0045
4e81 0245 0002 4b00 0148 0001 4e00 0843
4b00 4a55 004e 4900 474b 5a4e 0000 4300
034a 0000 4700 0556 6500 5a63 0053 5800
515a 4351 0001 5300 0256 0001 5a00 014e
4d00 434c 0047 5300 4a52 1743 0000 4e00
0147 0004 4a00 2a4b 4d01 494b 014f 4a00
4653 8108 4f00 044b 0000 4900 0046 0032
4551 0148 5900 4c53 0041 5000 4f58 294f
0005 4c00 0048 0004 4500 0441 005b 414b
0045 5400 4f53 0047 5a00 4c4f 4245 0001
4700 024c 0000 4f00 0141 0079 4857 004f
5800 4c53 0047 5078 4700 0148 0005 4c00
024f 000f 4f4b 0045 5100 4a59 2a45 0001
4a00 034f 0081 444c 5900 4f5b 0048 5300
4752 3747 0001 4800 034f 0000 4c00 6d4f
5900 4c59 0048 5000 4750 0d47 0002 4800
024c 0000 4f00 3648 5700 4e55 004c 5a01
454b 8106 4800 014c 0001 4e00 0245 0006
4e51 004a 5d00 4553 254a 0001 4e00 0245
0081 004e 5100 4a5f 0045 530c 4a00 004e
0003 4500 374a 5800 4c51 0047 5300 434e
8103 4300 0347 0000 4a00 014c 003b 4c5a
004f 5a00 484c 0047 4b1b 4700 014f 0002
4800 004c 0072 4f53 004c 5300 484c 0047
4a27 4700 0148 0001 4f00 014c 0081 1648
5300 4c56 004f 5030 5145 2551 000b 5366
1d4f 0013 4f58 0553 0014 4c00 0348 0008
4f00 3c4c 4f00 4f50 0048 460a 4800 004f
0001 4c00 2441 5300 4f53 014c 5000 474b
584c 0004 4700 004f 0004 4950 0050 5300
4c5e 0045 4f04 4100 2750 0001 4900 0145
0000 4c00 7a49 4900 504e 0045 5301 4c55
0b4c 0000 4900 0145 0001 5000 394e 5302
485b 004b 4900 454e 8102 4500 024b 0001
4800 014e 0008 434b 004a 5500 4e49 0047
4b5a 4e00 0043 0003 4a00 0047 0005 5665
005a 6300 5358 0051 5a43 5100 0153 0002
5600 015a 0001 4e4d 0043 4c00 4753 004a
5217 4300 004e 0001 4700 044a 002a 4b4d
0149 4b01 4f4a 0046 5381 084f 0004 4b00
0049 0000 4600 3245 5101 4859 004c 5300
4150 004f 5829 4f00 054c 0000 4800 0445
0004 4100 5b41 4b00 4554 004f 5300 475a
004c 4f42 4500 0147 0002 4c00 004f 0001
4100 7948 5700 4f58 004c 5300 4750 7847
0001 4800 054c 0002 4f00 0f4f 4b00 4551
004a 592a 4500 014a 0003 4f00 00ff 2f00
4d54 726b 0000 0654 00ff 2101 0000 ff03
0653 7472 696e 6700 c233 00b2 0778 00b2
0a40 00b2 7900 010b 7f01 5b6f 015d 3c81
c87d 9229 4201 3c46 0039 3a00 4040 0037
4182 7b40 0000 3900 0029 0000 3c00 0137
0002 3e40 0035 4000 3940 003a 4701 304e
827c 3a00 0039 0000 3e00 0135 0002 3934
003c 4601 353d 0032 4601 3000 0040 4000
3736 857b 3500 003c 0001 3200 0040 0000
3700 0339 0000 4140 003e 3e00 3c3b 0045
3c00 2e40 8279 2e00 033c 0000 4100 003e
0000 4500 033a 3500 3e41 0041 4500 3731
0033 3b88 773e 0000 3a00 0337 0001 4100
0533 0001 3942 003c 4300 373d 0040 4200
292c 827b 3c00 0039 0001 4000 0037 0003
3940 003e 4600 373d 002b 4000 3b44 0329
0082 7839 0003 3b00 022b 0000 3d39 0040
4700 3935 002d 3c01 3e00 0037 0000 3b3a
857b 4000 003d 0001 3b00 0039 0003 2d00
0143 3b00 393a 0026 3800 3c44 0040 4200
3533 886d b240 7f47 9235 0002 3c00 0139
0001 4000 0343 000a 2600 823b 3c3f 002b
4400 3b3d 0037 3201 403c 15b2 4000 6740
7f32 9240 0000 3c00 0237 0000 3b00 172b
0081 2b3e 4101 353b 002b 4200 3a3d 0039
3e01 b240 0081 4740 7f1d 9239 0000 3500
043e 0000 3a00 162b 0081 0b40 3700 2d3b
0037 3200 3b3b 013c 410d b240 0081 2340
7f81 1792 3c00 0037 0001 3b00 0140 0024
2d00 830e 2e3b 0245 3900 3c38 003e 4200
4146 0bb2 4000 2d40 7f2c 9241 0003 4500
003e 0004 3c00 042e 0082 093a 3500 3e47
0137 3200 4138 0127 4b14 b240 0083 4940
7f3e 9227 0011 3e00 033a 0000 4100 0537
0084 4f40 3a01 2650 003c 4200 3535 0139
3e0a b240 005e 407f 3992 3c00 0239 0001
4000 0026 0000 3500 8156 3e3e 012b 4200
3b44 0037 3a01 3944 0db2 4000 6c40 7f31
922b 0004 3900 0137 0001 3b00 023e 0081
512d 3e01 3d3b 0039 3b01 4041 003b 4211
b240 0085 6592 3d00 0140 0000 3b00 0139
0004 2d00 0843 4b00 4044 0047 4700 3c45
0035 4400 393e 0032 3d4f b240 7f3a 9239
0005 3500 0232 0001 4300 0140 0003 4700
013c 0081 6242 3a01 3b42 0045 4400 3e48
0134 4702 373f 0db2 4000 5840 7f27 9242
0002 3e00 013b 0001 3700 0134 0003 4500
816c 3c42 012e 4201 4545 003e 4c00 4150
0cb2 4000 2b40 7f29 923e 0001 4100 013c
0001 4500 092e 0082 132d 4500 3c44 0043
4900 3b44 0047 4500 4047 08b2 4000 8273
923b 0001 3c00 0240 0001 2d00 0043 0002
4700 0342 3c01 2b42 0047 4300 3e49 0039
4401 3b45 25b2 407f 5392 4700 0042 0001
3e00 003b 0001 3900 0a2b 0081 743c 3e01
2651 0045 4100 4042 0041 490c b240 0049
407f 2992 4000 0545 0000 4100 013c 0081
5b26 001f 4348 0040 4600 3b3f 0024 4300
3c42 0045 4412 b240 0058 407f 1692 4000
0143 0002 3c00 013b 0003 4500 8104 2400
7147 3e00 4244 0037 4100 3940 003e 5000
2346 17b2 4000 8133 924a 4381 3123 000b
3700 023e 0000 4700 0042 0001 4a00 0139
0000 4a44 0046 4000 3e40 003a 3c00 434b
0041 4900 3753 0033 410e b240 7f2f 9233
0000 3700 033a 000f 4100 0143 0002 4600
013e 0000 4a00 8222 383f 0044 4300 4847
012e 2c00 3f3a 0043 4c02 3c32 0cb2 4000
4440 7f10 9243 0000 4400 013f 0005 4800
0c3c 0004 3800 032e 0082 0b30 3c01 3e2c
0041 4b00 483e 003a 2e03 463d 0037 4203
332e 02b2 4000 8137 9248 0001 4a3e 8353
4d50 094a 0062 3300 0146 0001 4100 013e
0001 3700 014d 0000 4146 002c 3800 4443
0048 5000 3550 004d 4701 3000 003a 0000
3d46 0bb2 407f 6d40 002a 407f 2492 4800
014d 0004 4400 0641 0000 3500 013d 000e
2c00 8113 2c35 013a 4400 4b31 0133 4301
3f45 0043 4d02 4638 0048 4209 b240 0088
7792 3300 003a 0003 4300 004b 0000 3f00
002c 0000 4600 0148 0003 3a3b 0043 4700
3049 003f 4300 3e4e 5eb2 407f 1a92 3a00
013f 0000 3e00 0643 0012 3000 8164 4339
0041 4600 3935 013e 4500 3c44 0030 3e08
b240 0081 4540 7f26 923c 0000 3e00 0241
0001 3900 0343 0000 3000 810d 4346 013a
3800 3e4a 003f 4600 3044 11b2 4000 8124
407f 0c92 3f00 013a 0002 4300 013e 000a
3000 812d 3042 0043 4200 4145 0139 3800
3c46 003e 4901 b240 0081 3440 7f20 923e
0000 3c00 0241 0000 3900 0530 0002 4300
8122 3a3a 0043 4800 3e4c 003f 4600 3046
0db2 4000 5f40 7f1c 923a 0002 3f00 003e
0004 4300 0630 0081 6841 4801 4342 0139
3800 3046 013e 4c00 3c49 0ab2 4000 8145
407f 2492 3c00 003e 0001 3900 0041 0005
4300 0130 0081 0a30 4600 3a3e 0043 4c01
3e4c 003f 4814 b240 0081 1d40 7f12 923f
0000 3a00 023e 0003 4300 0630 0081 2d43
4201 393c 0041 4901 3c49 003e 4c01 3046
18b2 4000 8261 9239 0002 3e00 003c 0000
3000 0341 0002 4300 00ff 2f00 4d54 726b
0000 02d4 00ff 2101 0000 ff03 0b50 6961
6e6f 2045 6c65 632e 00c3 0400 b307 6f00
b30a 3500 b379 0001 0b7f 015b 4601 5d32
827e 9340 642c 4000 7c40 6c19 4000 2f3e
6881 083e 0008 3c64 2e3c 0081 4245 7010
4500 2041 6860 4100 3040 6c6e 4000 0a40
611d 4000 2a41 6627 4100 836a 4064 2c40
007c 406c 1940 002f 3e68 8108 3e00 083c
642e 3c00 8142 4570 1045 0020 4168 6041
002f 4164 1c41 0075 4168 2241 0081 1d41
542a 4100 0543 5c2b 4300 0545 6a2e 4500
0341 5f35 4100 2a41 510e 4100 2441 6852
4100 860e 4064 2c40 007c 406c 1940 002f
3e68 8108 3e00 083c 642e 3c00 8142 4570
1045 0020 4168 6041 0030 406c 6e40 000a
4061 1d40 002a 4166 2741 0083 6a40 642c
4000 7c40 6c19 4000 2f3e 6881 083e 0008
3c64 2e3c 0081 4245 7010 4500 2041 6860
4100 2f41 641c 4100 7541 6822 4100 811d
4154 2a41 0005 435c 2b43 0005 456a 2e45
0003 415f 3541 002a 4151 0e41 0024 4168
5241 0086 0e40 642c 4000 7c40 6c19 4000
2f3e 6881 083e 0008 3c64 2e3c 0081 4245
7010 4500 2041 685f 406c 0141 0081 1040
0018 4061 1d40 002a 4166 2741 0083 6a40
642c 4000 7c40 6c19 4000 2f3e 6881 083e
0008 3c64 2e3c 0081 4245 7010 4500 2041
6860 4100 2f41 641c 4100 7541 6822 4100
811d 4154 2a41 0005 435c 2b43 0005 456a
2e45 0003 415f 3541 002a 4151 0e41 0024
4168 5241 003d 4164 1c41 0075 4168 2241
0081 1d41 542a 4100 0543 5c2b 4300 0545
6a2e 4500 0341 5f35 4100 2a41 510e 4100
2441 6852 4100 3e44 6e22 4400 6e44 6e28
4400 8117 4463 2d44 0004 465b 2946 0007
486e 2e48 0002 445b 2744 0039 4454 0a44
0026 446b 5d44 0033 446e 1a44 0076 4471
2744 0081 1944 6527 4400 0946 5f28 4600
0848 6423 4800 0d44 6a81 6f44 00f2 5cb3
0b40 0d5d 5000 9343 682f 4665 304a 5e1c
b30b 7f14 934d 6111 b30b 0017 0b7f 180b
0018 0b7f 180b 0018 0b7f 180b 0018 0b7f
180b 0018 0b7f 180b 0018 0b7f 180b 0018
0b7f 180b 0018 0b7f 180b 0018 0b7f 180b
0018 0b7f 180b 000f 934a 0001 4d00 0246
0001 4300 00ff 2f00 4d54 726b 0000 3836
00ff 2101 0000 ff03 0647 7569 7461 7200
c51a 00b5 0779 00b5 0a40 00b5 7900 010b
7f01 5b50 015d 64a1 22e5 0000 0c95 3e5a
17e5 6002 0263 1703 4c39 0300 4005 953e
000a 415c 1441 0006 4151 1741 003a e52b
3c03 0335 035b 2d03 3326 036a 2101 9545
5a02 e50b 1f05 6a21 031d 2803 452f 034c
3903 0040 0595 4500 1843 5414 4300 1d41
4c55 4100 0a3e 5011 3e00 2141 5e1a 4100
164a 6018 4a00 1845 510b 4500 0d48 5828
4800 3841 5514 4100 1c43 6214 4300 1244
3309 455c 0244 0039 4500 1e44 330b 4400
0045 5e36 4500 2548 5a1a 4800 0045 4c1a
4500 1446 5711 4600 214a 5e1a 4a00 15e5
0020 0195 4d58 17e5 0040 2c95 4d00 0543
503a e52b 3c02 4c39 020e 3402 502e 021d
2802 6a21 0237 1b02 0415 0246 0f01 9543
0001 e57d 0a02 3406 087d 0a02 211d 026a
4102 0040 1895 413e 2041 000b 4055 1c41
3f04 4000 1341 0016 4358 1945 4506 4300
1445 0013 3c37 223c 001f e57c 4a03 415a
0339 7003 7e7f 027f 7f06 953c 511a e51f
7d03 446f 026d 5603 0040 0895 3c00 0641
3c1d 4352 0241 0014 4300 16e5 413a 0250
2e03 0020 0330 1103 6002 0300 0004 9545
5c10 e560 0203 720b 0379 1502 0020 037c
2a03 6d36 0300 4010 9545 0002 484d 1448
000e e503 3502 6a21 0330 1103 5503 0300
0006 954a 5a14 e576 0003 080a 030f 1402
7520 0345 2f03 0a3f 0300 400a 954d 5403
4a00 0f4d 0041 e575 4003 3346 037c 4a03
504e 0324 5201 9543 5702 e50e 5403 0355
1419 5303 2f51 025b 4d03 2847 0300 401b
9543 0007 413f 1541 001d 434c 1043 0020
454d 1145 0021 4159 4441 0005 3e3c 113e
004b 4158 2c41 0003 3e3a 253e 000b 4158
2041 0070 3e58 303c 3701 3e00 183c 0017
4157 2f41 0003 4341 2f43 0001 4552 2445
000c 4150 2141 003f 4155 0f41 0021 3e66
123e 0004 3c3f 453c 0086 3641 3800 352a
0d35 0000 4100 254a 5e00 3e49 1a4b 2e00
3f22 013e 0000 4a00 0d4b 0000 3f00 0945
4400 3934 1239 0000 4500 0148 5000 3c3e
493c 0000 4800 074a 4a00 3e39 0f3e 0000
4a00 8129 413c 0035 2e0a 3500 0041 001f
e53e 4503 664c 0324 5202 9543 6200 374c
01e5 7855 0362 570b 7855 0319 5303 3a50
035b 4d03 074a 0233 4603 5f42 0300 4081
1795 3700 0043 000a 414a 0035 3917 3500
0041 001a 4357 0037 4317 3700 0043 0013
455e 0039 495b 3900 0045 0007 485e 003c
493f 3c00 0048 0003 453d 0039 2e08 3900
0045 0005 e50e 3403 7520 0330 1103 3406
0295 4a5e 003e 4901 e56b 0105 3406 0367
0c03 0415 0316 1e03 2827 0350 2e03 0335
034c 3902 153e 0300 4044 953e 0000 4a00
084d 5700 4143 2c41 0000 4d00 1c43 5500
3742 1737 0000 4300 0044 3300 3826 0c43
2700 371d 0138 0000 4400 0643 0000 3700
0141 3c00 352e 1443 5100 373e 0135 0000
4100 1443 0000 3700 0343 4e00 373c 1741
3800 352a 0237 0000 4300 1341 0000 3500
0341 5a00 3546 1a3e 2e00 3222 0235 0000
4100 0b3e 0000 3200 2446 5500 3a42 173a
0000 4600 08e5 413a 012f 3103 2827 020b
1f02 4d19 0204 1502 3011 0246 0f01 9545
4b00 393a 03e5 1a13 026e 1602 211d 0249
2402 662c 0203 3502 2b3c 0200 400d 9539
0000 4500 0de5 664c 0253 6302 5678 0295
4349 00e5 7e7f 0095 3738 06e5 357b 0218
7302 5363 0266 4c02 0040 0c95 3700 0043
0004 4144 0035 3413 3500 0041 0000 3e3c
0032 2e12 3200 003e 0035 e53e 4503 6961
034b 7903 7e7f 037f 7f10 953c 5200 303f
15e5 147e 0223 7203 1953 0300 400c 9530
0000 3c00 0141 4300 3533 1935 0000 4100
0243 4600 3736 1437 0000 4300 3645 4c00
393a 2839 0000 4500 0a48 5700 3c43 1945
3300 3926 023c 0000 4800 0b45 0000 3900
07e5 6d36 0195 4a57 003e 4301 e56a 2102
720b 0200 000c 6b01 0267 0c02 6317 036a
2102 662c 0262 3702 0040 0e95 3e00 004a
0004 4d51 0041 3e1c 4100 004d 0037 e575
4002 7c4a 0219 5302 365b 027f 5f02 5e62
0195 4f55 0043 4201 e548 6408 6961 0574
600c 0a5f 022b 5c02 5758 020e 5402 664c
023e 4502 7540 0400 4006 7540 0c00 4005
9543 0000 4f00 074d 4600 4136 1a41 0000
4d00 174f 4600 4336 1c43 0000 4f00 1351
5100 453e 1445 0000 5100 1d4d 5800 4144
464a 4700 3e36 0141 0000 4d00 114a 0000
3e00 504d 5a21 4d00 1048 4615 4800 1a45
5023 b501 1503 012c 0301 3502 0148 0301
5403 015c 0901 6215 9545 0002 b501 5a03
0146 0201 2803 0110 0301 0103 0100 2f95
4155 303e 3801 4100 0a3e 0016 e50e 3403
1d28 0316 1e03 6317 030f 1403 3011 033b
1001 9545 4604 e50f 1403 5818 030b 1f03
3e25 0366 2c03 2432 0357 3802 203d 0300
4014 9546 4402 4500 2146 000c 4858 2948
000c 4544 1845 002b e50a 5f02 0275 027e
7f13 953c 4e11 e51f 7d02 6c76 0227 6702
5758 023e 4502 0040 0e95 3c00 0541 4b10
4100 0843 4613 4300 1a41 4c13 4100 3c45
4e14 4500 4645 5225 e520 3d03 4c39 0324
3202 9545 0001 e512 2902 0020 0458 1802
3011 0372 0b03 1e08 0630 1103 0040 022b
3c03 0040 4d95 3c4e 133c 0019 3c4a 0f3c
0021 454b 3145 0003 4648 2946 0002 4850
2c44 2901 4800 0844 0000 4549 2e45 002f
4138 0b41 0016 e575 4003 504e 022b 5c03
3d65 0295 4362 01e5 1c68 0932 6603 4864
0269 6103 0a5f 0341 5a03 0355 035b 4d03
3e45 0300 4022 9543 0005 4146 1c41 002e
485a 2548 0009 3f2f 153f 001d 4857 2048
0010 3f1f 153f 001a 4853 2148 0013 3f26
113f 001c 3f22 153f 001d 485c 2b48 0005
4953 2c49 0005 4b43 214b 000c 4742 0948
4705 4700 2048 0009 4128 1541 0019 444b
1344 001b e500 6002 9546 6301 e559 5302
504e 033a 5006 504e 0366 4c03 7c4a 031d
4803 3e45 025f 4203 0040 2395 4600 0744
3417 4400 2d48 5a25 4800 093f 2f15 3f00
1d48 571b e50a 3f03 5738 0224 3203 072a
035f 2203 421a 030f 1403 670c 0334 0602
7600 0300 0003 9548 0009 e54a 0402 0f14
0300 4003 153e 0300 4045 953f 2611 3f00
1d3f 2215 3f00 1c48 542d 4800 0449 5b2e
4b4b 0249 0029 4b00 044c 3f0a 4d4d 044c
0017 b501 0403 012c 0301 3503 0144 0301
4f07 954d 0007 b501 4603 0137 0301 2d02
011d 0301 0204 0100 b62c 9546 4d00 4142
22e5 2b3c 0378 3502 502e 0333 2603 211d
0304 1503 460f 0395 4100 00e5 7d0a 0295
4600 01e5 1e08 0229 0703 1e08 0300 2003
7540 0300 4081 0d95 4b3b 003f 2d04 3f00
004b 0003 4c5b 0040 4629 4000 004c 0005
4731 003b 2513 3b00 0047 0005 4a52 003e
3f44 3e00 004a 0004 4c58 0040 442f 4000
004c 0079 4038 0034 2a18 434d 0037 3b03
3400 0040 0010 4300 0037 0018 e55f 4202
1249 0250 4e01 9545 6800 3951 01e5 1953
0278 5502 6257 024c 590a 6257 0478 5504
1953 0250 4e03 074a 025f 4202 0040 7895
3900 0045 0028 4358 0037 4418 3700 0043
0015 4562 0039 4c12 3900 0045 001e 475e
003b 495c 3b00 0047 0004 4a60 003e 4a53
3e00 004a 0009 4b4d 003f 3b06 3f00 004b
0003 4c5c 0040 4754 4000 004c 0009 4f54
0043 412c 4300 004f 001d 455a 0039 461d
3900 0045 0001 4631 003a 250b 3a00 0046
0001 4524 0039 1a06 3900 0045 0002 433f
0037 300b 3700 0043 0007 455e 0039 4918
3900 0045 0003 4555 0039 421a 3900 0045
0000 4329 0037 1e0e 3700 0043 0006 4358
0037 4418 3700 0043 0002 403c 0034 2e0c
3400 0040 0020 4852 003c 3f1a 3c00 0048
0019 4752 003b 3f10 3b00 0047 0012 e575
4002 714b 0278 5502 205d 0274 6003 9545
5800 3944 05e5 365b 022f 5102 3e45 0200
4017 9539 0000 4500 0143 4300 3733 1137
0000 4300 0140 3c00 342e 1734 0000 4000
2ce5 2f51 0227 6702 5678 0209 7f02 7f7f
1895 3e49 0032 3814 e57e 7f02 6177 0206
6a02 714b 0200 4009 9532 0000 3e00 0443
4d00 373b 1837 0000 4300 0045 4c00 393a
0e39 0000 4500 1ee5 413a 0266 2c02 0b1f
023b 1002 7600 0200 0015 9547 5c00 3b47
09e5 5503 0246 0f02 161e 0245 2f02 0040
1c95 3b00 0047 0000 4a52 003e 3f0f 3e00
004a 0017 e550 2e02 211d 025c 0d02 0100
0200 000b 954c 5c00 4047 0ce5 1e08 0204
1501 4924 0203 3503 0040 1695 4000 004c
0003 4f4d 0043 3b10 4300 004f 004a 515a
0045 4610 e533 4602 5b4d 0219 5302 6257
0236 5b06 6d56 0219 5302 664c 023e 4502
0040 2195 4500 0051 0003 4f4a 0043 3916
4300 004f 0018 5158 0045 4418 4500 0051
0018 535c 0047 4714 4700 0053 001f 4f55
0043 4245 4300 004f 0003 4c50 0040 3e21
4000 004c 0039 4f5d 0043 481e 4300 004f
0017 4a51 003e 3e19 3e00 004a 0016 4747
003b 365b 3b00 0047 0037 434d 0037 3b24
3700 0043 0008 403b 0034 2d0b 3400 0040
0021 4667 003a 500a 3a00 0046 0000 4755
003b 421f 3b00 0047 000c 4847 003c 3625
3c00 0048 0008 4a57 003e 432c 3e00 004a
0007 474b 003b 3a1c 3b00 0047 0018 4035
0034 2824 3400 0040 0009 4339 0037 2b18
3700 0043 0017 4562 0039 4c0b e575 4002
4944 021d 4802 7c4a 025b 4d02 2f51 020e
5402 7855 0a2f 5102 714b 023e 4502 0040
1595 3900 0045 000d 4342 0037 3216 3700
0043 002e 4755 003b 4229 3b00 0047 000d
3e37 0032 2a22 3200 003e 000b 4757 003b
431c 3b00 0047 0012 3e1c 0032 1420 3200
003e 0017 3e2a 0032 1f23 3200 003e 0032
3e29 0032 1e0c 3200 003e 0020 464b 003a
3a05 3a00 0046 0000 4757 003b 4329 3b00
0047 0008 4855 003c 4226 3c00 0048 000a
4a51 003e 3e26 3e00 004a 0008 4653 003a
4005 3a00 0046 0001 474b 003b 3a1f 3b00
0047 000f 4331 0037 2519 3700 0043 0019
433b 0037 2d0c 3700 0043 0023 4354 0037
4115 3700 0043 0008 433c 0037 2e12 3700
0043 001c 434a 0037 3912 3700 0043 0030
475e 003b 4921 3b00 0047 0010 3e24 0032
1a11 3200 003e 001e 4758 003b 4474 3b00
0047 001f 3e51 0032 3e24 3200 003e 000e
3e2c 0032 2105 3200 003e 0027 4755 003b
422b 3b00 0047 0006 4858 003c 4428 3c00
0048 0007 4a62 003e 4c26 3e00 004a 000a
4f60 0043 4a51 4300 004f 0012 432e 0037
220e 3700 0043 001f 4358 0037 4417 455a
0039 4604 3700 0043 0042 4500 0039 0005
4351 0037 3e19 3700 0043 0029 e56a 4102
7460 0135 7b01 7f7f 1995 4c4e 104c 0008
4a52 13e5 6c76 015b 4d02 0040 1a95 473f
014a 0019 4542 0147 000d 4500 0a40 2211
4000 0743 4612 4300 0640 270e 4000 0942
3012 4200 0545 4c18 4328 0245 000d 4300
08e5 0060 0195 414b 18e5 0040 1695 4100
023e 3f12 3e00 053a 3313 3a00 04e5 0060
0295 3848 18e5 0040 1595 3800 0534 4517
3400 0137 3a12 3700 05e5 0020 0195 3a57
16e5 0040 1695 3a00 043c 4a14 3c00 043d
3011 3d00 0640 4a17 4000 0243 3918 4300
0045 4414 4500 0446 3015 4600 0348 4c13
4800 0444 3104 4400 0545 551f 4500 3044
300a 4558 0244 0081 5d45 0000 4346 1b43
0004 414b 2041 0008 4352 3c45 3f05 4300
4745 0002 3e3f 8128 3e00 1240 5513 e554
4303 074a 033a 5003 0e54 0262 5703 415a
032b 5c06 415a 020e 5403 1249 0200 403a
9540 0002 3c46 4d3c 0002 473a 0948 5506
4700 814e 4800 004a 5a1c 4c54 024a 0022
4c00 094d 5e1b 4d00 1545 382c 4500 1744
3908 4400 0145 3881 2545 0002 4331 1743
0000 411d 1841 0002 4346 31e5 7855 022a
7c02 7f7f 0b95 4300 15e5 2372 0319 5302
0040 0595 3d30 093d 0001 3e32 814b 3e00
0741 3c21 4100 043e 411a 3e00 0b41 5811
e53e 4503 2452 0315 5e03 1c68 0302 7503
7e7f 037f 7f1c 1873 0320 5d03 5f42 0300
4036 953a 3303 4100 1e3a 0008 3c3d 213c
000d 3d2c 143e 3202 3d00 814c 3e00 0041
3f27 4100 0036 090f 3725 0536 0082 1237
0081 1f32 3409 3200 09e5 0000 0895 3e50
19e5 6002 0272 0b02 4d19 0207 2a02 413a
0200 4005 953e 0004 413c 1741 0003 3e38
153e 0003 4143 1c41 0000 4346 1443 0016
3f25 023f 0007 4032 4d40 0000 e554 4302
1d48 025b 4d02 2452 026d 5602 4c59 0095
4046 02e5 365b 104c 5902 0355 023a 5002
1d48 0200 4019 9540 0004 3e3b 123e 0018
3c2e 193c 0015 3939 6f39 0008 3c43 173c
0004 393a 0f39 0008 3b4d 173e 4b02 3b00
163e 0000 4351 1847 5501 4300 1047 0019
493c 074a 5a04 4900 813c 4a00 294c 5a1c
4c00 0249 4e39 4900 0947 3c16 4700 0349
6417 4900 084a 5a19 4a00 114c 5774 4c00
0445 461a 4500 1150 1e08 5155 0250 0081
6651 0009 5151 3a51 0009 e50a 5f02 9551
580c e520 5d02 2b5c 0241 5a02 5758 0203
5502 3a50 0207 4a02 3346 0200 4030 9551
0009 e528 4702 454f 0262 5702 205d 027f
5f02 6961 0095 5156 0de5 7f5f 0515 5e02
205d 0236 5b02 6257 0224 5202 714b 0233
4602 0040 7695 5100 044b 2e05 4c57 024b
0020 e515 3e02 3a30 025f 2202 2512 024a
0402 0000 2476 0002 080a 020f 1402 0b1f
027c 2a02 6237 0200 4082 2d95 4c00 364b
4d18 4c43 014b 001b 4c00 144f 582e e500
201a 0040 0195 4d45 084f 000e 4d00 184b
1609 4c45 054b 007f 4c00 024f 4e15 4f00
1f44 1807 4537 0244 0081 7c45 002f 455e
1844 3102 4500 1645 3f03 4400 0e45 0009
485a 2648 000a 4a51 174a 0014 464f 0346
0007 4746 4047 0000 4554 1545 0005 434d
1b43 0015 4347 1643 0002 4346 10e5 3a30
0195 4300 01e5 5818 0260 0202 0000 0595
4352 13e5 1e08 0279 1502 712b 0200 4010
9543 0007 433c 1543 0002 4352 1343 0007
4349 2443 0009 4547 1745 0001 474b 1847
000f 4725 0a48 4803 4700 3e48 0009 433c
3443 0004 412f 5c41 000c 4062 2040 0001
3e36 3b3e 000b 3c45 193c 0001 3a20 173a
0000 3c37 183c 0001 3e4b 113e 0005 4168
1e41 0002 4031 4ce5 413a 0250 2e02 5f22
0195 4000 01e5 6e16 0267 0c02 4a04 0200
0005 9540 4d09 e576 0002 2907 0251 0e02
0415 0237 1b02 6a21 0333 2602 712b 013a
3003 1933 0103 3502 6237 024c 3902 2b3c
020a 3f02 0040 1b95 4000 0145 5823 4500
0840 3532 4000 013e 581e 3e00 013c 361c
3c00 0239 3f1b 3900 023c 3c0f 3c00 123f
3c06 4037 043f 0022 e50a 3f02 0e34 021d
2802 161e 026e 1602 2512 023b 1002 2512
0263 1702 5f22 023a 3002 0040 8120 9540
0068 3540 1235 0005 3738 1637 0004 3942
1439 0003 3c4c 163c 001a 3936 1639 0002
3a44 163a 0005 3e42 163e 0015 404a 1140
000a 4147 2a41 0007 4354 2243 0010 4546
2645 0008 4851 1648 0002 454c 0845 0010
455e 04e5 5f42 0271 4b02 0e54 0257 5802
205d 0269 6102 5363 080a 5f02 6257 0250
4e02 3e45 0200 4021 9545 000b 434b 1e43
0014 414d 1441 0012 4928 0749 0000 4a54
813a 4a00 054a 2911 4a00 064f 5212 4f00
094f 4718 4a3a 024f 0017 4a00 154f 4015
4f00 074f 3517 4a2c 014f 0010 4a00 1a4f
3b13 4f00 094f 3018 4a24 024f 000f 4a00
1c4f 3316 4f00 044f 2614 4f00 064a 1b0f
4a00 204f 1747 4f00 813d 485e 1948 0017
4659 1946 0005 e557 3802 452f 0233 2602
211d 0204 1502 510e 0208 0a02 3406 023f
0503 9545 5807 e534 0602 1309 027d 0a02
510e 0225 1202 6e16 0237 1b02 7520 0249
2402 1d28 0271 2b02 452f 0219 3302 7835
024c 3902 203d 0200 400d 9545 0001 4851
1048 0008 4343 8103 4300 2141 5e18 4031
0141 000c 4000 093f 5718 3f00 033e 300f
3e00 073d 521a 3c34 013d 0012 3c00 0537
280e 3700 073b 4e1f 3b00 0f39 3e1f 3900
1137 3816 3700 063b 4620 3b00 1332 3869
3200 3c2f 5513 2f00 042f 3e0d 2f00 0f31
5519 3100 1434 4d10 3400 0434 3f10 3400
0c37 4a12 3700 0539 3016 3900 003d 4e1c
3d00 1240 5019 4000 0340 3a12 4000 0243
4914 4300 0345 5715 4500 0448 2908 4962
0348 0081 3349 001f 4060 1b41 4e01 4000
1341 0003 494d 0d49 000b 4c5b 164c 0015
4c62 204c 0012 4d5c 1c4d 0013 4f68 174f
0018 5162 4951 0015 5160 5151 0013 5158
2751 0006 5462 1d54 0000 5344 2153 000b
5154 1e51 0010 5162 2e51 0007 4f58 1d4f
000d 4c57 0c4c 000e 4f73 1ae5 7460 0214
7e02 7f7f 1661 7702 7855 0195 4f00 01e5
0040 0807 2a02 460f 0200 0002 954c 580a
e501 0002 080a 026e 1602 3e25 020e 3402
0040 7395 4c00 404c 4911 4c00 074f 6217
4f00 054d 5117 4d00 134c 4b1f 4c00 0b4d
4e1a 4d00 134a 3f48 4a00 074a 5717 e520
3d02 5b2d 022c 1c02 510e 0255 0302 0000
141e 0802 0f14 025f 2202 7835 0200 4013
954a 0003 4d51 134d 0006 e54c 3902 662c
020b 1f02 1a13 0208 0a02 6002 0200 0002
954c 4e10 e576 0002 3f05 0208 0a02 2512
0237 1b02 4924 025b 2d02 7835 0220 3d02
0040 1195 4c00 014d 4114 4d00 0ae5 7835
021d 2802 211d 021a 1302 080a 026b 0102
0000 0495 4c54 0fe5 6002 011e 0803 5c0d
011a 1303 4d19 0200 2002 3326 0266 2c02
2f31 026d 3602 413a 0215 3e02 0040 1e95
4c00 024a 4720 4a00 1048 4c2e e515 3e02
6237 0250 2e03 4924 022c 1c02 0f14 0267
0c01 9548 0001 e534 0602 6002 0400 4001
9543 3a0f 4300 0845 462c 4500 0648 4e17
4800 06e5 0335 0207 2a02 7520 0258 1803
3011 0172 0b02 2907 034a 0402 6002 0295
4749 02e5 7600 0e60 0202 2907 0251 0e02
6e16 026a 2102 5b2d 0241 3a02 0040 1495
4700 004a 4a1c 4a00 1247 4275 4700 0e3b
541b 3b00 053e 4d1e 3e00 0143 5213 4300
0947 5c13 4700 0d4a 5514 4a00 1248 461a
4800 0547 4118 4700 1345 3b81 2845 0049
3f67 103f 0002 4046 1040 0000 433d 0d43
0003 4754 0c47 0006 4c50 224c 0010 4e57
1e4e 0012 4f53 3c4f 0009 4e44 264e 000b
515e 1c51 000b 4f54 18e5 363b 0195 4f00
01e5 3a30 0249 2402 421a 021a 1301 954e
5101 e551 0e02 7d0a 0646 0f02 0f14 024d
1902 0b1f 023e 2502 712b 022f 3102 6237
032b 3c01 0040 2395 4e00 024c 3515 4c00
094e 5717 e500 602d 954e 0000 e500 4002
954a 4b72 4a00 0847 510f 453f 0147 000d
4345 0345 000e 4300 0242 5116 4200 0343
4214 4300 0545 4a19 4746 0145 0017 484b
0147 0014 4800 044a 4615 4b55 024a 002f
4b00 054a 411a 4a00 124b 5e27 4b00 0a4a
4315 4a00 1c46 4a25 4600 0c43 381f 4300
253e 4916 3f4d 023e 0014 3f00 0343 5512
4300 0646 6417 4600 0548 561e 4800 0546
5718 4600 0e44 3e1a 4400 0646 4217 4600
0e48 556d 4800 284a 511c 4a00 024b 591f
4b00 074d 5035 4d00 064d 5035 4d00 0552
5532 5200 01e5 0a3f 0119 3302 6a21 0330
1101 6002 0195 4f4e 01e5 0000 1301 0002
3406 0272 0b02 3011 0263 1702 161e 0254
2302 1229 0245 2f02 1933 0262 3702 363b
020a 3f02 0040 4a95 4f00 3943 250e 4300
0e48 5316 4800 0448 6116 4800 0046 4a14
4600 0446 6117 4600 0043 4711 4300 0543
5c15 4300 0341 2f0f 4100 0641 5218 3f47
0141 0016 3f00 003a 3518 3a00 003e 551a
3a41 023e 0013 3a00 023f 6117 3f00 0541
5a1e 4100 0d43 461e 4300 0044 5360 e52b
3c02 0335 0195 4400 02e5 072a 036a 2102
9543 5201 e52c 1c03 4d19 0363 170b 371b
030b 1f03 4924 0312 2903 452f 0303 3502
413a 030a 3f03 0040 1695 4300 0141 5539
e515 3e03 4c39 0303 3503 662c 035f 2202
5818 0495 4100 00e5 510e 0229 0703 5503
0600 4001 953f 5b17 3f00 043d 5313 3d00
043f 4710 3f00 0841 4513 4100 06e5 0060
0195 435e 1be5 0040 2c95 4300 0544 641b
4400 14e5 0100 0195 4860 17e5 0040 2b95
4800 053f 5776 3f00 343c 3716 3f41 013c
0015 3f00 0543 4c18 4300 0344 5b17 4400
1548 4b19 4800 154b 5314 4b00 1a4f 551b
4f00 0ae5 5f42 0207 4a02 3a50 0203 5502
954f 5400 e557 5802 365b 022b 5c06 155e
047f 5f08 205d 0262 5702 504e 0254 4302
0040 1295 4f00 014d 461d 4d00 064f 581f
4f00 104d 4d0d e566 4c02 4f6e 021f 7d02
097f 027f 7f0a 097f 1600 4001 954b 4701
4d00 811c 4b00 6143 500c 4300 0b46 6422
4600 1043 4612 4300 1be5 504e 0065 6c00
1f7d 007f 7f00 9546 673e e509 7f03 5a6d
036a 4103 0040 0995 4600 10e5 6257 0002
7500 7f7f 0095 415c 14e5 097f 0202 7503
5758 0300 4007 953f 4503 4100 143f 0004
3c37 0f3a 2e0b 3c00 053a 0008 3f57 2d3f
0001 3c2d 183c 0002 3a31 133a 0005 3f5b
2e3f 0001 3c2e 153a 4002 3c00 0d3a 0010
4150 1de5 4c59 0244 6f02 2a7c 0214 7e02
7e7f 1214 7e02 1f7d 0235 7b02 0275 021c
6802 6257 0207 4a02 0040 6c95 4100 7f48
3f13 4800 054b 5b17 4b00 0148 4112 4800
0a4d 5c12 e549 4402 504e 0262 5702 205d
0215 5e06 415a 0278 5502 454f 0228 4702
0040 0895 4d00 044b 470f 4b00 074d 4f56
4d00 4a4d 641a 4b2f 014d 000f 4b00 0b4d
551d e520 5d02 0d74 021f 7d02 7e7f 027f
7f1d 7e7f 0214 7e01 2a7c 0202 7503 5363
017c 4a02 954d 0001 e500 400e 363b 0250
2e02 5423 022c 1c02 6317 0095 4d4c 02e5
0415 0463 1702 161e 021d 2802 7835 0200
400f 954d 0012 483f 1948 0001 463a 1446
0003 484d 810e 4800 2c48 5516 4800 054a
5415 4a00 034b 5316 4b00 044d 5010 4d00
084f 5129 4f00 044f 5014 4f00 044f 5c10
e50e 3401 954f 0001 e56a 2102 1a13 0234
0602 0000 0295 4f58 0ee5 5503 025c 0d03
6317 0275 2002 1229 023a 3002 7835 024c
3902 203d 0200 4006 954f 0005 4f57 114f
0005 4f43 11e5 0a3f 0295 4f00 00e5 4924
0267 0c02 0000 0595 4f58 0fe5 6002 0272
0b02 7915 0200 2002 7c2a 0278 3502 0a3f
0200 4014 363b 0319 3303 1229 0300 2003
6317 0346 0f02 3406 0376 0003 0000 0495
4f00 02e5 0415 037c 4a03 413a 0300 4005
9548 5212 4a49 0348 0013 4a00 084b 4d15
4d57 024b 0011 4d00 084f 582b 4f00 044f
5013 4f00 064f 5a11 e524 3201 954f 0001
e50b 1f02 510e 0201 0001 954f 5201 e500
0012 1309 020f 1402 0b1f 027c 2a02 0e34
022b 3c02 0040 0b95 4f00 064f 5c0e 4f00
094f 5813 4f00 00e5 203d 0233 2601 2512
0276 0002 0000 0195 4f62 0ee5 0100 0208
0a02 0415 025f 2202 2f31 020a 3f02 0040
3362 3702 1229 032c 1c03 7915 0295 4f00
01e5 072a 0300 4005 9548 5818 4800 044a
4e13 4a00 054b 5315 4b00 024d 5712 4d00
01e5 0000 0195 4f58 01e5 4a04 0108 0a02
3011 0258 1802 7520 011d 2802 3a30 0262
3701 203d 0200 401b 954f 0006 4f55 124f
0005 4f46 0ce5 413a 0295 4f00 00e5 2827
016e 1602 2907 0200 0003 954f 5a09 e576
0002 7d0a 011a 1302 211d 023e 2501 662c
020e 3402 4c39 0120 3d02 0040 1195 4f00
074f 5811 4f00 054f 4d0f 4f00 02e5 413a
0254 2301 510e 0200 0001 954f 5c0d e56b
0101 1309 023b 1002 5818 0275 2001 072a
0219 3302 363b 0100 4014 954f 0005 4f4c
134f 0004 4f55 104f 0003 e541 3a01 5423
023b 1002 0000 0095 4f57 0fe5 3406 025c
0d01 6e16 020b 1f02 2827 0145 2f02 6237
020a 3f02 0040 1295 4f00 064f 6012 4f00
044f 5211 4f00 07e5 5738 0050 2e00 4924
0042 1a00 3011 0013 0900 6b01 0000 0005
954f 5a0c e501 0002 3406 0167 0c02 0f14
024d 1901 0020 023e 2502 7c2a 0245 2f01
1933 0262 3702 2b3c 0100 4007 954f 0007
4f52 124f 0004 4f52 0f4f 0004 e503 3502
7520 013b 1001 954f 5501 e534 0602 0000
0a6b 0102 2907 0172 0b04 5c0d 0146 0f02
2512 0279 1501 5818 0221 1d02 5f22 027c
2a01 6237 0200 4004 954f 0007 4f57 144f
0004 4f51 134f 0006 545c 1c54 0004 5264
1952 0005 4f58 15e5 6d36 0295 4f00 00e5
2827 0142 1a02 0f14 0246 0f01 954e 6700
e567 0c05 5c0d 0246 0f02 3011 021a 1301
0415 026e 1601 5818 022c 1c02 7520 0233
2601 5b2d 0262 3702 954e 0000 e500 4011
954d 541f 4d00 144b 5b37 4b00 0f48 4d20
4800 2243 3710 444d 0143 000c 4400 0448
3a0d 4800 044b 6214 4b00 034a 4c41 4a00
0246 510e 4600 233e 4310 3e00 013f 4f0a
3f00 0343 3c0f 4300 0246 5909 4600 0748
5e30 4800 0346 4d14 4600 0748 5a1c 4800
114a 551a 4a00 1146 641f e536 3b01 7835
023a 3002 1229 015f 2202 4d19 0225 1202
670c 0195 4600 00e5 2907 023f 0503 1309
0200 401b 9543 5a10 413f 0343 000b 4100
003f 5310 3f00 043e 5215 3e00 023f 5713
3f00 0541 4311 4100 0543 4b12 4300 0644
531a 4400 0141 4719 4100 133d 6318 3d00
023c 4114 3c00 033d 4f15 3d00 0341 4614
4100 0444 5e14 4400 0443 5c13 4300 0541
6015 4100 033f 4d15 3f00 033c 5513 3c00
053a 5516 3a00 0237 5415 3700 0335 5418
334b 0135 000d 3300 0c31 5e17 3100 0735
5719 3500 1238 5b16 3800 063a 5b15 3a00
053c 4d16 3c00 113d 5716 3d00 053f 4f15
3f00 0641 4615 4100 1043 5016 4300 0644
5515 4400 0a46 5519 4600 0847 5e18 4700
0848 602c 4800 0347 331d 4700 1148 601c
4800 0147 331d 4700 0945 4f1c 4500 1a3c
381a 3c00 003e 3c17 4048 043e 0011 4000
0543 5d18 4300 0040 461b 4135 0340 000f
4100 0345 6115 4500 1e45 5e17 462f 0145
0018 4600 0242 3c13 4200 0345 5e14 4500
0442 3611 4200 0845 4e17 4500 1941 4919
4100 8111 4464 14e5 0a3f 0241 3a01 0e34
0245 2f02 1d28 026a 2101 2c1c 024d 1902
9544 0002 e521 1d01 0040 0a95 4354 2243
000d 4155 17e5 2b3c 024c 3902 1933 0171
2b02 3e25 025f 2201 5b2d 0200 4006 9541
001b 3e52 193e 0003 3c35 0e3c 0009 3e50
0c3e 000b 3e5d 183c 3c02 3e00 163c 0018
415e 283e 3c02 4100 043e 0014 4533 0546
6703 4500 1446 001c 4554 1c45 0014 4149
1e41 0011 3c41 133c 000d e541 3a02 3e25
0346 0f03 0000 0895 4a59 04e5 7d0a 0316
1e02 413a 0300 4010 954a 0015 453e 1a45
0017 4b61 1d4b 0011 4a64 15e5 2432 0275
2001 510e 0200 0021 954a 0008 e508 0a01
3e25 0200 405d 9545 4b15 4500 0848 5715
4800 174f 571c 4f00 144d 5e1c 4d00 1351
5e16 5100 19e5 0060 0195 516b 05e5 0e54
0e24 5201 454f 0271 4b02 1d48 015f 4202
0040 2c95 5100 7a4f 3604 4d4e 054f 0012
4d00 014c 4a12 4c00 074a 5019 4a00 0049
1d0d 4900 0b47 6114 453b 0147 0013 4500
0244 5e1c 4338 0344 000d 4300 083f 5e0b
3f00 0b42 5715 4200 043e 280e 3e00 0a41
4a15 4100 033e 5015 3e00 193e 5018 3c3d
053e 0021 3c00 0a3a 441f 3a00 113a 5e1a
3a00 0037 3f19 3700 1637 4224 3700 0b3a
5717 3a00 193e 400d 3e00 0d41 4b16 4100
023e 4c12 3e00 1e45 6220 4500 0e41 4d22
4100 0e48 632c 4800 0645 4517 4500 1945
581c 4500 173d 4f11 3d00 023e 3f0e 3e00
0341 3c0e 4100 0245 550c 4500 084c 5c15
4c00 0448 4b13 4800 1648 5545 4800 0445
4014 4500 1b48 5c4c 4800 0645 4c0b 4500
2345 4712 4842 0545 0008 4800 024a 500d
4a00 064d 5a0c 4d00 0351 622c 5100 0252
6415 5200 0551 5020 5100 104d 5415 4d00
1b51 6425 5100 094d 5312 e536 3b02 502e
0295 4d00 00e5 5f22 0242 1a01 0f14 023b
1003 0f14 022c 1c02 712b 0100 400e 954d
4f11 e520 3d02 6d36 0150 2e02 3e25 020b
1f01 371b 024d 1904 211d 013e 2501 954d
0001 e541 3a02 0040 2395 4a41 0f4a 003f
e500 6001 954f 6010 e536 5b02 2f51 021d
4801 7540 0200 400b 954f 0000 4b4d 0f4b
0001 483b 0c48 0007 4f50 2a4f 0003 4b41
154b 0006 4d5a 124d 001f 4d54 134d 0002
4933 0e49 0004 4630 0c46 0002 483e 0b48
0007 4b5e 21e5 0a3f 012b 3c02 4c39 0278
3501 2f31 0266 2c02 1d28 0254 2301 0020
0221 1d02 4d19 016e 1602 0415 0550 2e02
954b 0000 e500 400a 9548 4d14 4800 5041
3309 4100 0a44 5911 4400 0041 3309 4100
0443 5c11 4030 0243 0007 4000 0742 5910
4200 013f 3d0c 3f00 0441 4c0e 4100 0344
5f0c 4400 0341 4c10 4100 003d 330e 3d00
0340 550f 3c3d 0140 000b 3c00 053f 670f
3f00 003b 3a0a 3b00 043e 5813 3e00 003a
400e 3a00 013c 5811 3c00 0039 3909 3900
0a3a 5521 e515 3e03 502e 0316 1e02 3b10
0313 0903 1e08 037d 0a03 953a 0000 e52b
3c03 0040 0995 3c49 173d 5903 3c00 143d
0005 3f51 183f 0015 415a 2941 000a 4460
2044 0013 4868 31e5 714b 0262 5701 7f5f
0153 6305 5e62 0174 6003 7f5f 0115 5e02
9548 0000 e520 5d01 415a 020e 5401 074a
0200 4011 9546 561e e520 3d01 363b 024c
3901 6237 0203 3501 2432 023a 3001 662c
011d 2802 6a21 012c 1c02 6e16 0130 1102
5c0d 0195 4600 00e5 7d0a 011e 0803 662c
0200 4032 0335 014d 1901 0000 06b5 0144
0201 5f01 014d 0101 1d02 0116 0101 1002
0103 0101 0000 9548 6612 4800 0448 7318
e56b 0102 7c4a 010e 3401 0040 1f95 4800
1249 6715 4900 0346 2d04 4600 144b 6716
4b00 0146 3305 4600 164d 6418 4d00 134f
5e17 4f00 b522 464d 0041 4222 e52b 3c03
7835 0250 2e03 3326 0321 1d03 0415 0346
0f03 9541 0000 e57d 0a02 9546 0001 e51e
0802 2907 031e 0803 0020 0375 4003 0040
810d 954b 3b00 3f2d 043f 0000 4b00 034c
5b00 4046 2940 0000 4c00 0547 3100 3b25
133b 0000 4700 054a 5200 3e3f 443e 0000
4a00 044c 5800 4044 2f40 0000 4c00 7940
3800 342a 1843 4d00 373b 0334 0000 4000
1043 0000 3700 18e5 5f42 0212 4902 504e
0195 4568 0039 5101 e519 5302 7855 0262
5702 4c59 0a62 5704 7855 0419 5302 504e
0307 4a02 5f42 0200 4078 9539 0000 4500
2843 5800 3744 1837 0000 4300 1545 6200
394c 1239 0000 4500 1e47 5e00 3b49 5c3b
0000 4700 044a 6000 3e4a 533e 0000 4a00
094b 4d00 3f3b 063f 0000 4b00 034c 5c00
4047 5440 0000 4c00 094f 5400 4341 2c43
0000 4f00 1d45 5a00 3946 1d39 0000 4500
0146 3100 3a25 0b3a 0000 4600 0145 2400
391a 0639 0000 4500 0243 3f00 3730 0b37
0000 4300 0745 5e00 3949 1839 0000 4500
0345 5500 3942 1a39 0000 4500 0043 2900
371e 0e37 0000 4300 0643 5800 3744 1837
0000 4300 0240 3c00 342e 0c34 0000 4000
2048 5200 3c3f 1a3c 0000 4800 1947 5200
3b3f 103b 0000 4700 12e5 7540 0271 4b02
7855 0220 5d02 7460 0395 4558 0039 4405
e536 5b02 2f51 023e 4502 0040 1795 3900
0045 0001 4343 0037 3311 3700 0043 0001
403c 0034 2e17 3400 0040 002c e52f 5102
2767 0256 7802 097f 027f 7f18 953e 4900
3238 14e5 7e7f 0261 7702 066a 0271 4b02
0040 0995 3200 003e 0004 434d 0037 3b18
3700 0043 0000 454c 0039 3a0e 3900 0045
001e e541 3a02 662c 020b 1f02 3b10 0276
0002 0000 1595 475c 003b 4709 e555 0302
460f 0216 1e02 452f 0200 401c 953b 0000
4700 004a 5200 3e3f 0f3e 0000 4a00 17e5
502e 0221 1d02 5c0d 0201 0002 0000 0b95
4c5c 0040 470c e51e 0802 0415 0149 2402
0335 0300 4016 9540 0000 4c00 034f 4d00
433b 1043 0000 4f00 4a51 5a00 4546 10e5
3346 025b 4d02 1953 0262 5702 365b 066d
5602 1953 0266 4c02 3e45 0200 4021 9545
0000 5100 034f 4a00 4339 1643 0000 4f00
1851 5800 4544 1845 0000 5100 1853 5c00
4747 1447 0000 5300 1f4f 5500 4342 4543
0000 4f00 034c 5000 403e 2140 0000 4c00
394f 5d00 4348 1e43 0000 4f00 174a 5100
3e3e 193e 0000 4a00 1647 4700 3b36 5b3b
0000 4700 3743 4d00 373b 2437 0000 4300
0840 3b00 342d 0b34 0000 4000 2146 6700
3a50 0a3a 0000 4600 0047 5500 3b42 1f3b
0000 4700 0c48 4700 3c36 253c 0000 4800
084a 5700 3e43 2c3e 0000 4a00 0747 4b00
3b3a 1c3b 0000 4700 1840 3500 3428 2434
0000 4000 0943 3900 372b 1837 0000 4300
1745 6200 394c 0be5 7540 0249 4402 1d48
027c 4a02 5b4d 022f 5102 0e54 0278 550a
2f51 0271 4b02 3e45 0200 4015 9539 0000
4500 0d43 4200 3732 1637 0000 4300 2e47
5500 3b42 293b 0000 4700 0d3e 3700 322a
2232 0000 3e00 0b47 5700 3b43 1c3b 0000
4700 123e 1c00 3214 2032 0000 3e00 173e
2a00 321f 2332 0000 3e00 323e 2900 321e
0c32 0000 3e00 2046 4b00 3a3a 053a 0000
4600 0047 5700 3b43 293b 0000 4700 0848
5500 3c42 263c 0000 4800 0a4a 5100 3e3e
263e 0000 4a00 0846 5300 3a40 053a 0000
4600 0147 4b00 3b3a 1f3b 0000 4700 4143
3b00 372d 0c37 0000 4300 234f 7000 433b
2be5 6237 035b 2d03 3e25 0321 1d02 7915
0351 0e03 2907 0301 0003 0000 0695 4300
004f 0019 e500 402c 954a 5e00 3e49 213e
0000 4a00 1041 2400 351a 1135 0000 4100
1e4a 5800 3e44 743e 0000 4a00 1f41 5100
353e 2435 0000 4100 0e41 2c00 3521 0535
0000 4100 274a 5500 3e42 2b3e 0000 4a00
064b 5800 3f44 283f 0000 4b00 074d 6200
414c 2641 0000 4d00 0a4a 6000 464a 474a
0008 4600 1446 2e00 3a22 0e3a 0000 4600
1f49 5800 3d44 1748 4700 3c46 043d 0000
4900 2f46 4d00 3a3e 013c 0003 4800 1546
0000 3a00 2d47 6000 3b4a 2a3b 0000 4700
073e 3f00 3230 2132 0000 3e00 0e47 6400
3b4e 253b 0000 4700 3d3e 5200 323f 2632
0000 3e00 383e 3000 3224 0532 0000 3e00
27e5 0000 0795 475e 003b 4907 e534 0602
3011 0216 1e02 662c 0241 3a02 0040 1b95
3b00 0047 0005 485c 003c 4728 3c00 0048
0008 4a62 003e 4c29 3e00 004a 0005 475c
003b 472f 3b00 0047 0032 4351 0037 3e12
3700 0043 001b e500 0004 9545 6e00 3956
15e5 0040 3e95 3900 0045 0098 0be5 363b
002f 3100 2827 0021 1d00 0f14 0072 0b00
3f05 0000 0001 9547 5706 e501 0003 2907
033b 1003 2c1c 0228 2703 1933 0320 3d03
0040 2995 4700 44e5 413a 0324 3203 1229
036a 2103 5818 023b 1003 2907 0300 000c
9547 660e e501 0003 1309 031a 1302 161e
0307 2a03 6d36 0300 4002 9547 0028 4566
6e45 0010 e557 3803 5b2d 035f 2202 5818
033b 1003 9545 6300 e567 0c06 510e 031a
1303 4d19 036a 2102 712b 036d 3603 0040
1895 4500 6ce5 4c39 0312 2902 2c1c 0325
1203 720b 031e 0803 9545 5a06 e508 0a02
510e 030f 1403 371b 0349 2403 3a30 032b
3c03 0040 0995 4500 2343 6081 0e43 002e
435a 2543 003f 4026 0f40 0021 4362 3043
0030 4046 2840 0009 3e28 0c3e 0026 4351
2b43 0006 4552 2445 000a 4760 2c47 0004
4354 2643 003e 433a 0e43 001f 4366 1043
0007 455c 2145 000f e557 3803 072a 032c
1c03 460f 033f 0503 0000 0495 475a 04e5
6002 0308 0a03 1a13 0316 1e03 072a 036d
3602 0040 2495 4700 7447 5e14 4700 20e5
6961 0361 7703 7e7f 0795 455e 07e5 1f7d
0277 7503 2767 0378 5503 7540 0300 407b
9545 0009 455c 3be5 2b3c 0362 3703 2f31
0371 2b03 3326 0300 2002 6317 0346 0f02
9545 0001 e508 0a03 3f05 0355 0302 3f05
0351 0e03 0040 3736 3b02 712b 0316 1e04
3011 0234 0601 9545 5e02 e500 0014 3f05
0330 1103 0b1f 0324 3201 9545 0001 e500
402c 9543 5581 0343 003c 4352 1f43 0072
435c 2a43 0064 4043 1840 001a 4364 2a43
0005 4557 2845 0006 4758 2a47 0007 4354
3443 0028 4346 1343 001c 4355 1043 000a
455e 1b45 0015 434c 0943 0011 e536 3b00
2f31 0028 2700 211d 000f 1400 720b 003f
0500 0000 0195 4757 06e5 0100 0329 0703
3b10 032c 1c02 2827 0319 3303 203d 0300
4029 9547 0044 e541 3a03 2432 0312 2903
6a21 0358 1802 3b10 0329 0703 0000 0c95
4766 0ee5 0100 0313 0903 1a13 0216 1e03
072a 036d 3603 0040 0295 4700 2845 666e
4500 10e5 5738 035b 2d03 5f22 0258 1803
3b10 0395 4563 00e5 670c 0651 0e03 1a13
034d 1903 6a21 0271 2b03 6d36 0300 4018
9545 006c e54c 3903 1229 022c 1c03 2512
0372 0b03 1e08 0395 455a 06e5 080a 0251
0e03 0f14 0337 1b03 4924 033a 3003 2b3c
0300 4009 9545 0023 4360 810e 4300 2e43
5a25 4300 3f40 260f 4000 2143 6230 4300
3040 4628 4000 093e 280c 3e00 2643 512b
4300 0645 5224 4500 0a47 602c 4700 0443
5426 4300 3e43 3a0e 4300 1f43 6610 4300
0745 5c21 4500 0fe5 5738 0307 2a03 2c1c
0346 0f03 3f05 0300 0004 9547 5a04 e560
0203 080a 031a 1303 161e 0307 2a03 6d36
0200 4024 9547 0074 475e 1447 0020 e569
6103 6177 037e 7f07 9545 5e07 e51f 7d02
7775 0327 6703 7855 0375 4003 0040 7b95
4500 0945 5c3b e52b 3c03 6237 032f 3103
712b 0333 2603 0020 0263 1703 460f 0295
4500 01e5 080a 033f 0503 5503 023f 0503
510e 0300 4037 363b 0271 2b03 161e 0430
1102 3406 0195 455e 02e5 0000 143f 0503
3011 030b 1f03 2432 0195 4500 01e5 0040
2c95 4355 8103 4300 3c43 521f 4300 7243
5c2a 4300 6440 4318 4000 1a43 642a 4300
0545 5728 4500 0647 582a 4700 0743 5434
4300 2843 4613 4300 1c43 5510 4300 0a45
5e1b 4500 1543 4c09 4300 11e5 363b 002f
3100 2827 0021 1d00 0f14 0072 0b00 3f05
0000 0001 9547 5706 e501 0003 2907 033b
1003 2c1c 0228 2703 1933 0320 3d03 0040
2995 4700 44e5 413a 0324 3203 1229 036a
2103 5818 023b 1003 2907 0300 000c 9547
660e e501 0003 1309 031a 1302 161e 0307
2a03 6d36 0300 4002 9547 0028 4566 6e45
0010 e557 3803 5b2d 035f 2202 5818 033b
1003 9545 6300 e567 0c06 510e 031a 1303
4d19 036a 2102 712b 036d 3603 0040 1895
4500 6ce5 4c39 0312 2902 2c1c 0325 1203
720b 031e 0803 9545 5a06 e508 0a02 510e
030f 1403 371b 0349 2403 3a30 032b 3c03
0040 0995 4500 2343 6081 0e43 002e 435a
2543 003f 4026 0f40 0021 4362 3043 0030
4046 2840 0009 3e28 0c3e 0026 4351 2b43
0006 4552 2445 000a 4760 2c47 0004 4354
2643 003e 433a 0e43 001f 4366 1043 0007
455c 2145 000f e557 3803 072a 032c 1c03
460f 033f 0503 0000 0495 475a 04e5 6002
0308 0a03 1a13 0316 1e03 072a 036d 3602
0040 2495 4700 7447 5e14 4700 20e5 6961
0361 7703 7e7f 0795 455e 07e5 1f7d 0277
7503 2767 0378 5503 7540 0300 407b 9545
0009 455c 3be5 2b3c 0362 3703 2f31 0371
2b03 3326 0300 2002 6317 0346 0f02 9545
0001 e508 0a03 3f05 0355 0302 3f05 0351
0e03 0040 3736 3b02 712b 0316 1e04 3011
0234 0601 9545 5e02 e500 0014 3f05 0330
1103 0b1f 0324 3201 9545 0001 e500 402c
9543 5581 0343 003c 4352 1f43 0072 435c
2a43 0064 4043 1840 001a 4364 2a43 0005
4557 2845 0006 4758 2a47 0007 4354 3443
0028 4346 1343 001c 4355 1043 000a 455e
1b45 0015 434c 0943 0011 e536 3b00 2f31
0028 2700 211d 000f 1400 720b 003f 0500
0000 0195 4757 06e5 0100 0329 0703 3b10
032c 1c02 2827 0319 3303 203d 0300 4029
9547 0044 e541 3a03 2432 0312 2903 6a21
0358 1802 3b10 0329 0703 0000 0c95 4766
0ee5 0100 0313 0903 1a13 0216 1e03 072a
036d 3603 0040 0295 4700 2845 666e 4500
10e5 5738 035b 2d03 5f22 0258 1803 3b10
0395 4563 00e5 670c 0651 0e03 1a13 034d
1903 6a21 0271 2b03 6d36 0300 4018 9545
006c e54c 3903 1229 022c 1c03 2512 0372
0b03 1e08 0395 455a 06e5 080a 0251 0e03
0f14 0337 1b03 4924 033a 3003 2b3c 0300
4009 9545 0023 4360 810e 4300 2e43 5a25
4300 3f40 260f 4000 2143 6230 4300 3040
4628 4000 093e 280c 3e00 2643 512b 4300
0645 5224 4500 0a47 602c 4700 0443 5426
4300 3e43 3a0e 4300 1f43 6610 4300 0745
5c21 4500 0fe5 5738 0307 2a03 2c1c 0346
0f03 3f05 0300 0004 9547 5a04 e560 0203
080a 031a 1303 161e 0307 2a03 6d36 0200
4024 9547 0074 475e 1447 0020 e569 6103
6177 037e 7f07 9545 5e07 e51f 7d02 7775
0327 6703 7855 0375 4003 0040 7b95 4500
0945 5c3b e52b 3c03 6237 032f 3103 712b
0333 2603 0020 0263 1703 460f 0295 4500
01e5 080a 033f 0503 5503 023f 0503 510e
0300 4037 363b 0271 2b03 161e 0430 1102
3406 0195 455e 02e5 0000 143f 0503 3011
030b 1f03 2432 0195 4500 01e5 0040 2c95
4355 8103 4300 3c43 521f 4300 7243 5c2a
4300 6440 4318 4000 1a43 642a 4300 0545
5728 4500 0647 582a 4700 0743 5434 4300
2843 4613 4300 1c43 5510 4300 0a45 5e1b
4500 1543 4c09 4300 11e5 363b 002f 3100
2827 0021 1d00 0f14 0072 0b00 3f05 0000
0001 9547 5706 e501 0003 2907 033b 1003
2c1c 0228 2703 1933 0320 3d03 0040 2995
4700 24b5 0b7e 180b 7d08 e541 3a03 2432
0312 2903 6a21 0358 1802 3b10 02b5 0b7c
01e5 2907 0300 000c 9547 6608 b50b 7b06
e501 0003 1309 031a 1302 161e 0307 2a03
6d36 0300 4001 b50b 7a01 9547 0017 b50b
7911 9545 6607 b50b 7818 0b77 180b 7618
0b75 180b 7407 9545 0010 e557 3801 b50b
7302 e55b 2d03 5f22 0258 1803 3b10 0395
4563 00e5 670c 0651 0e03 1a13 02b5 0b72
01e5 4d19 036a 2102 712b 036d 3603 0040
0cb5 0b71 0c95 4500 04b5 0b70 180b 6f18
0b6e 180b 6d18 0b6c 08e5 4c39 0312 2902
2c1c 0325 1203 720b 031e 0802 b50b 6b01
9545 5a06 e508 0a02 510e 030f 1403 371b
0349 2403 3a30 032b 3c00 b50b 6a03 e500
4009 9545 000c b50b 6917 9543 6001 b50b
6818 0b67 180b 6618 0b65 180b 6418 0b63
100b 6205 9543 0013 b50b 6118 0b60 0395
435a 15b5 0b5f 1095 4300 08b5 0b5e 180b
5d18 0b5c 0795 4026 0f40 0002 b50b 5b18
0b5a 0795 4362 11b5 0b59 180b 5807 9543
0011 b50b 5718 0b56 0795 4046 11b5 0b55
100b 5407 9540 0009 3e28 08b5 0b53 0495
3e00 14b5 0b52 1295 4351 06b5 0b51 180b
500d 9543 0006 4552 05b5 0b4f 180b 4e07
9545 000a 4760 07b5 0b4d 180b 4c0d 9547
0004 4354 07b5 0b4b 180b 4a07 9543 0011
b50b 4918 0b48 1595 433a 03b5 0b47 0b95
4300 05b5 0b46 180b 4502 9543 6610 4300
06b5 0b44 0195 455c 17b5 0b43 0a95 4500
0eb5 0b42 01e5 5738 0307 2a03 2c1c 0346
0f03 3f05 0300 0004 9547 5a04 e560 0200
b50b 4103 e508 0a03 1a13 0316 1e03 072a
036d 3602 0040 07b5 0b40 180b 3f05 9547
0013 b50b 3e18 0b3d 180b 3c18 0b3b 180b
3a01 9547 5e14 4700 03b5 0b39 100b 380d
e569 6103 6177 037e 7f05 b50b 3702 9545
5e07 e51f 7d02 7775 0327 6703 7855 0375
4003 0040 01b5 0b36 180b 3518 0b34 180b
3318 0b32 180b 3102 9545 0009 455c 0db5
0b30 180b 2f16 e52b 3c02 b50b 2e01 e562
3703 2f31 0371 2b03 3326 0300 2002 6317
0346 0f02 9545 0001 e508 0a03 3f05 00b5
0b2d 03e5 5503 023f 0503 510e 0300 400d
b50b 2c18 0b2b 100b 2a02 e536 3b02 712b
0316 1e04 3011 0234 0601 9545 5e02 e500
0008 b50b 290c e53f 0503 3011 030b 1f03
2432 0195 4500 01e5 0040 01b5 0b28 180b
2713 9543 5505 b50b 2618 0b25 180b 2418
0b23 180b 2218 0b21 0695 4300 12b5 0b20
180b 1f12 9543 5206 b50b 1e18 0b1d 0195
4300 0fb5 0b1c 180b 1b18 0b1a 180b 1918
0b18 0395 435c 15b5 0b17 1595 4300 03b5
0b16 180b 1518 0b14 180b 1318 0b12 0195
4043 17b5 0b11 0195 4000 17b5 0b10 0395
4364 15b5 0b0f 100b 0e05 9543 0005 4557
0eb5 0b0d 180b 0c02 9545 0006 4758 10b5
0b0b 180b 0a02 9547 0007 4354 0fb5 0b09
180b 080d 9543 000b b50b 0718 0b06 0595
4346 1343 0000 b50b 0518 0b04 0495 4355
1043 0004 b50b 0306 9545 5e12 b50b 0209
9545 000f b50b 0106 9543 4c09 4300 01b5
0b00 00ff 2f00 4d54 726b 0000 0f5f 00ff
2101 0000 ff03 0754 7275 6d70 6574 00c6
3800 b607 7800 b60a 3900 b679 0001 0b7f
015b 5001 5d0a 819e 4e96 4379 2c43 0004
4267 1942 0081 0f42 7f0c 4200 3c40 7481
0940 0007 3e72 1b3e 0081 5547 790f 4700
2043 6a58 4300 0942 7581 1442 0014 4268
1642 0031 4372 1243 0083 7e42 7f18 4200
8111 427f 1042 0038 4076 810b 4000 053e
7617 3e00 8157 477a 0f47 0023 436a 6043
0030 437e 1543 007a 437e 1743 0081 2a43
672a 4300 0645 622a 4500 0547 692a 4700
0743 6a16 4300 4a43 5a0b 4300 2543 665c
4300 3343 7019 4300 7643 7220 4300 8122
4361 2c43 0004 455d 2945 0006 4762 2447
000b 4363 2443 003c 435a 0b43 0026 4369
4943 0047 4363 2443 006b 436d 1a43 0081
2843 682c 4300 0445 5a26 4500 0847 6126
4700 0c43 6424 4300 3a43 510c 4300 2643
6d4d 4300 81ba 1339 5000 404a 003c 4c00
354a 163c 0003 3900 0440 0002 3500 8107
4050 003c 5000 3549 0039 4b10 3900 003c
0001 4000 0335 0035 3a47 0035 4400 394a
013e 4f81 0435 0003 3a00 0039 0000 3e00
0739 4800 404d 0035 4700 3c4d 1e3c 0002
3500 0039 0004 4000 8172 b60b 3209 9641
7e3e b60b 3503 0b39 030b 3d03 0b41 030b
4603 0b4b 020b 5003 0b55 030b 5903 0b5e
030b 6303 0b67 030b 6b02 0b6e 030b 7103
0b73 030b 7503 0b77 030b 7903 0b7b 020b
7f14 9641 0008 4163 0045 4600 3e45 003a
4d16 3a00 0345 0003 3e00 0241 0072 415c
003e 4b00 3a46 0045 4d1e 4500 013a 0001
4100 013e 0081 1f41 4f06 394c 2a43 6104
3a42 0241 0001 3900 2743 0001 3a00 0145
7601 3c54 2b3c 0004 4165 0039 5805 4500
1139 0009 4100 3d3a 3d01 3e46 0039 4103
4144 063a 0002 3e00 0139 0000 4100 263a
4d01 415e 0039 4600 3e4d 5c3e 0000 3a00
0339 0000 4100 2f3a 4600 3e4b 0039 4102
415e 0e3a 0002 3e00 0039 0009 4100 7741
5b00 3a46 003e 4800 393f 1d39 0000 3e00
003a 0006 4100 811b 4148 0239 512d 3900
013a 4d01 4100 0143 4a2a 3a00 0443 0000
3c4a 0045 6626 3c00 0a39 4c02 4153 0145
001a 3900 0441 003f 3e49 0039 4401 413e
013a 3305 3a00 0441 0000 3900 013e 0026
4364 003e 4600 414a 003a 403e 4300 073a
0001 4100 023e 0047 445f 003d 4700 4149
013c 420f 3d00 0141 0002 3c00 0444 0079
3d49 0144 6300 414e 003c 4d14 3d00 033c
0000 4100 0244 0081 2744 4c03 4146 003d
3b2a 4100 033d 0000 465d 003f 3301 4400
0143 4529 3f00 0143 0002 4871 0146 0000
444d 0241 4629 4400 0048 0001 4100 013d
4604 445b 0141 5107 3d00 0b41 0005 4400
4744 4401 4144 003c 3700 3d38 083d 0001
3c00 0141 0000 4400 2644 6500 3d52 0041
5500 3c47 5c41 0000 4400 033d 0001 3c00
2f3d 4901 4463 003c 4900 414b 103d 0002
4400 0241 0001 3c00 7944 5f02 3d4e 0041
4d00 3c4f 123d 0002 3c00 0041 0005 4400
8126 3d2b 0144 4e00 4141 2c41 0001 3f3c
0346 5d01 3d00 0043 5802 4400 2c46 0000
3f00 0043 0000 445b 0041 4a01 486d 2144
0002 4100 0848 0005 4d76 0149 5701 484c
0344 437e 4d00 0a4d 6c16 4d00 1048 0008
4900 0348 510a 4800 0c4b 6b1c 4400 8102
4b00 0c3f 7012 3f00 1c45 5203 467d 0a45
0036 4600 0544 7081 7544 0003 465d 2246
0005 476b 2147 0004 466b 8136 4600 0144
6981 0244 000b 4358 2243 0019 4473 4144
0001 466d 3f46 0003 4259 0943 6503 4200
2543 0003 4158 8161 4100 1a4a 7340 4a00
0546 7a39 4600 0643 737f 4300 014a 6816
4a00 074d 731d 4d00 034b 7a81 144b 0001
4355 2243 0009 4a77 3f49 4003 4a00 0549
0000 4854 0847 5f01 4800 0d46 6b06 4700
8114 4600 0545 6845 4500 0343 663b 4300
0540 6881 0840 0009 4066 1440 001d 4170
3d41 0007 456c 7545 0008 4375 4043 0004
406c 5c40 001b 4575 4545 0007 4877 4148
0002 4a6b 154a 001e 4665 014b 7a82 074b
0000 4a6f 6b4a 000a 4a6b 8106 4a00 0049
5e04 4a74 0149 0036 4a00 0249 6d70 4900
024a 6108 4b74 024a 003e 4b00 0348 6501
4600 0243 6181 3743 0005 4c71 0047 6802
4800 3e47 0001 4c00 0147 6109 4c69 3347
0007 4565 054c 0003 4a69 2545 000b 4a00
044a 6307 4e70 6b4a 0003 4e00 034a 6c01
4766 4142 6906 4700 054a 0001 4766 4042
0007 4575 3b45 0000 4700 0343 6b07 4a66
0a43 0008 4a00 1c46 7f04 4f6f 4546 0001
455f 034c 4f01 4f00 0744 6501 4b4a 0345
0002 4c00 0343 7301 4a67 0344 0001 4b00
810e 4a00 014a 6100 4f71 0f43 0034 4a00
044f 0001 485f 004d 6f43 4d00 024a 7701
4800 0251 7381 0951 0000 4a00 054d 6f01
486b 2e4d 0000 4577 0248 0004 4a6b 8105
4a00 0345 0003 4673 0641 4f2d 4100 0143
5881 3846 000b 4a78 404a 0005 4f7e 6f43
0003 4159 8144 4f00 0051 7449 567f 0451
0074 5600 004a 7304 4356 0141 003b 4a00
064f 7571 4f00 0951 6c01 4300 0341 543f
5100 0656 7c6f 5600 094a 7a01 4357 0241
003d 4a00 074f 7f6e 4f00 0951 7e01 414e
0143 003e 5100 0856 7f6c 5600 0541 0008
4254 013e 5400 3b50 0039 4c18 3b00 023e
0001 4200 0039 0081 0b3e 5300 3950 003b
5101 425b 0a3b 0001 3900 013e 0009 4200
3240 5702 3c57 0037 5000 3b55 7e3b 0000
3700 003c 0004 4000 0c47 4e00 4351 0042
3e01 4a49 2042 0000 4300 0147 0006 4a00
8308 4256 6045 5960 4755 304a 5a16 4a00
024c 672d 4c00 0042 0001 4500 0147 0083
1b42 4f00 3b53 003e 5300 394e 153e 0003
3b00 0339 0002 4200 8109 4255 003e 5400
3b57 0039 550c 3e00 013b 0001 3900 0342
0037 4050 003c 5401 3b4a 0137 497b 3c00
0140 0000 3b00 0237 0011 3b46 0142 5e00
3746 003e 5b20 3e00 003b 0000 4200 0637
0081 4a42 5400 3b55 003e 5b0a 3e00 0242
0002 3b00 223d 5700 3f52 0037 5000 3b53
8104 3b00 0037 0002 3d00 033f 0005 4358
003c 5a00 4053 003b 5516 3c00 013b 0000
4000 0843 0072 4a69 0047 5c00 4363 0040
5824 4000 0047 0005 4300 034a 0039 405a
8278 4000 0640 572c 465b 0140 0005 4600
0147 6185 7649 5904 4700 0349 0000 4a64
853a 4a00 134f 5f2c 4a50 034f 0012 4a00
7e3c 5f00 405b 003b 5700 4357 2743 0001
4000 013c 0002 3b00 653f 5200 3b53 0043
5800 3550 2543 0000 3f00 0135 0003 3b00
683c 5000 3b48 0040 4a01 374b 7b40 0009
3c00 033b 0007 3e53 0039 5338 3900 0037
0006 3e00 2239 5300 435f 003e 612f 4300
0140 4d00 3c54 0237 4901 3e00 0239 0025
3c00 0440 0000 3700 0236 5400 3b4f 003e
4d1a 3e00 003b 0007 3600 1043 6f01 3f5d
013a 5b4c 3a00 0343 0004 3f00 0a43 7703
3f5b 013a 5b36 3f00 053a 0003 4300 0441
6001 3c5d 0145 7570 4100 023c 0001 4500
063b 5c01 436f 0040 5f41 3b00 0140 0001
4300 0543 6f04 3b69 0040 6814 3b00 0240
000a 4300 2042 6502 4577 003d 5e48 3963
133d 0003 3900 043e 740b 4200 083e 0003
427b 1545 0001 4200 023c 5f00 3f69 0043
7546 4300 003c 0001 3f00 013e 5800 4165
0046 7375 4600 013e 0001 4100 023c 6000
3952 0140 7755 4000 033c 0001 3900 0643
7502 405f 013c 583b 4000 0043 0006 3c00
0347 7302 4369 0040 5917 4000 0443 0002
4700 1340 5909 4000 0d43 7505 3e59 013b
6642 3b00 003e 0002 3c6f 0243 0011 3c00
0540 7113 4000 0443 7314 4300 043e 6b00
3958 0147 7e00 4269 1c39 0001 3e00 0147
0001 4200 0f40 610b 4000 0d44 7d00 395d
023d 6202 4063 6e44 0002 3900 033d 0000
4000 0138 6500 3d65 0041 6881 353d 0004
4100 0138 0006 3f65 0043 5900 3a5e 553a
0005 4300 003f 0006 3e58 0041 5c02 3a59
503a 0005 4100 003e 0009 4360 0040 5e00
3c51 5a40 0000 4300 023c 0004 3e51 0045
6000 426b 3442 0000 4500 0b3e 0009 4061
0044 6b00 4769 1147 0000 4400 0140 0036
446d 003d 5300 3b60 0040 5e81 0544 0002
4000 033b 0002 3d00 0444 6200 4769 0040
581e 4400 0147 0002 4000 2742 6500 466d
013f 5b00 3d51 703d 0001 3f00 0242 0001
4600 0441 6f01 365d 003a 6900 3d62 812c
3600 0b3d 0003 3a00 0141 0003 4377 0138
6500 3c5f 013f 7a81 383f 0000 3800 033c
0001 4300 0240 7100 3d6d 0039 6300 447d
813a 4000 0144 0001 3900 003d 0004 467d
003f 7100 4273 003b 6781 3d3b 0000 4600
0242 0000 3f00 b000 467f 0746 0000 477d
2447 0006 4a75 2b4a 0081 1b40 5427 4000
0643 6125 4300 0645 5c28 4500 0546 6106
4600 0047 7529 4700 034a 6c2b 4a00 8144
467f 0746 0000 476e 5847 0006 4568 1945
0000 435b 1243 0005 4050 1740 0081 5d40
6c28 4000 053e 6881 2b3e 0015 3e58 0f3e
0021 4078 2f40 0003 4362 0e43 001f 4572
3143 5502 4500 0b43 0024 476a 0f47 001c
4477 3044 0003 4361 2b43 0004 425f 8146
4200 2c42 6912 4200 4d40 5a1d 4000 4543
6118 4300 464c 7219 4c00 014a 680e 4a00
1e4f 7f27 4f00 224c 6a1e 4c00 273f 4704
3f00 0040 6741 4000 0543 5082 7343 0071
406e 2940 0004 4361 0e43 0028 477d 2447
0006 4a75 2b4a 0081 1b40 5427 4000 0643
6125 4300 0645 5c28 4500 0546 6106 4600
0047 7529 4700 034a 6c2b 4a00 8144 467f
0746 0000 476e 5847 0006 4568 1945 0000
435b 1243 0005 4050 1740 0081 5d40 6c28
4000 053e 6881 2b3e 0015 3e58 0f3e 0021
4078 2f40 0003 4362 0e43 001f 4572 3143
5502 4500 0b43 0024 476a 0f47 001c 4477
3044 0003 4361 2b43 0004 425f 8146 4200
2c42 6912 4200 4d40 5a1d 4000 4543 6118
4300 464c 7219 4c00 014a 680e 4a00 1e4f
7f27 4f00 224c 6a1e 4c00 273f 4704 3f00
0040 6741 4000 0543 5082 7343 0071 406e
2940 0004 4361 0e43 0028 477d 2447 0006
4a75 2b4a 000e b60b 7e18 0b7d 180b 7c18
0b7b 180b 7a18 0b79 1596 4054 03b6 0b78
180b 770c 9640 0006 4361 06b6 0b76 180b
7507 9643 0006 455c 0bb6 0b74 180b 7305
9645 0005 4661 0646 0000 4775 08b6 0b72
180b 7109 9647 0003 4a6c 04b6 0b70 180b
6f0f 964a 0009 b60b 6e18 0b6d 180b 6c18
0b6b 180b 6a18 0b69 180b 6818 0b67 1396
467f 05b6 0b66 0296 4600 0047 6e16 b60b
6518 0b64 180b 6310 0b62 0296 4700 0645
6810 b60b 6109 9645 0000 435b 0fb6 0b60
0396 4300 0540 5010 b60b 5f07 9640 0011
b60b 5e18 0b5d 180b 5c18 0b5b 180b 5a18
0b59 180b 5818 0b57 180b 560c 9640 6c0c
b60b 5510 0b54 0c96 4000 053e 6807 b60b
5318 0b52 180b 5118 0b50 180b 4f18 0b4e
180b 4d14 963e 0004 b60b 4c11 963e 5807
b60b 4b08 963e 0010 b60b 4a11 9640 7807
b60b 4918 0b48 1096 4000 0343 6205 b60b
4709 9643 0007 b60b 4618 9645 7200 b60b
4518 0b44 180b 4301 9643 5502 4500 0b43
000a b60b 4218 0b41 0296 476a 0f47 0007
b60b 4015 9644 7703 b60b 3f18 0b3e 1596
4400 0343 6100 b60b 3d18 0b3c 1396 4300
0442 5f01 b60b 3b18 0b3a 180b 3910 0b38
180b 3718 0b36 180b 3518 0b34 180b 330d
9642 000b b60b 3218 0b31 0996 4269 0fb6
0b30 0396 4200 15b6 0b2f 180b 2e18 0b2d
0896 405a 10b6 0b2c 0d96 4000 0bb6 0b2b
100b 2a18 0b29 1296 4361 06b6 0b28 1296
4300 06b6 0b27 180b 2618 0b25 1096 4c72
08b6 0b24 1196 4c00 014a 6806 b60b 2308
964a 0010 b60b 220e 964f 7f0a b60b 2118
0b20 0596 4f00 13b6 0b1f 0f96 4c6a 09b6
0b1e 1596 4c00 03b6 0b1d 100b 1c14 963f
4704 3f00 0040 6700 b60b 1b18 0b1a 180b
1911 9640 0005 4350 02b6 0b18 180b 1718
0b16 180b 1518 0b14 180b 1318 0b12 180b
1118 0b10 180b 0f10 0b0e 180b 0d18 0b0c
180b 0b18 0b0a 180b 0911 9643 0007 b60b
0818 0b07 180b 0618 0b05 180b 040a 9640
6e0e b60b 0318 0b02 0396 4000 0443 610e
4300 03b6 0b01 100b 0000 ff2f 004d 5472
6b00 0005 db00 ff21 0100 00ff 030b 4672
656e 6368 2048 6f72 6e00 cb3c 00bb 0774
00bb 0a30 00bb 7900 010b 7f01 5b46 015d
0083 9c0e 9b3f 5e0e 3f00 2045 5803 4667
0d45 0031 4600 0344 5b81 7344 0005 4659
2246 0005 4758 2247 0000 466b 8137 4600
0444 6581 0d44 0003 435e 1443 0022 446d
3e44 0004 4656 3846 0002 4262 0b42 0002
435e 2743 0006 414f 8166 4100 144a 6146
4a00 0046 6d3b 4600 0543 5f79 4300 0049
7004 4900 074a 5f19 4a00 044d 5f1b 4d00
064b 6981 0c4b 0006 4359 1543 001f 4a71
434a 0003 4849 0647 6601 4800 0a46 5b07
4700 8112 4600 0645 6643 4500 0343 633d
395c 0143 0001 3c62 813f 3c00 0239 0000
3e5e 043a 6281 343a 0005 4058 003c 5c01
3e00 813c 3c00 0040 0004 3e63 0341 6181
0841 0004 3e00 0143 5601 405c 1243 0002
4000 1e3f 6782 013f 00b0 1d40 4782 7440
000c 4046 2e46 4901 4000 0846 0001 4751
8549 4700 0143 472c 4940 0243 0007 4900
024a 4085 454e 4303 4a00 044e 0001 4f54
2e4f 0000 4a50 134a 00ce 1946 6507 4600
0047 6424 4700 064a 5d2b 4a00 811b 4043
2740 0006 434d 2543 0006 4549 2845 0005
464d 0646 0000 475d 2947 0003 4a56 2b4a
0081 4446 6507 4600 0047 5858 4700 0645
5319 4500 0043 4812 4300 0540 4017 4000
815d 4056 2840 0005 3e53 812b 3e00 153e
460f 3e00 2140 602f 4000 0343 4e0e 4300
1f45 5b31 4344 0245 000b 4300 2447 540f
4700 1c44 5f30 4400 0343 4d2b 4300 0442
4c81 4642 002c 4254 1242 004d 4048 1d40
0045 434d 1843 0046 4c5b 194c 0001 4a53
0e4a 001e 4f65 274f 0022 4c54 1e4c 0027
3f38 043f 0000 4052 4140 0005 4340 8273
4300 7140 5829 4000 0443 4d0e 4300 2847
6424 4700 064a 5d2b 4a00 811b 4043 2740
0006 434d 2543 0006 4549 2845 0005 464d
0646 0000 475d 2947 0003 4a56 2b4a 0081
4446 6507 4600 0047 5858 4700 0645 5319
4500 0043 4812 4300 0540 4017 4000 815d
4056 2840 0005 3e53 812b 3e00 153e 460f
3e00 2140 602f 4000 0343 4e0e 4300 1f45
5b31 4344 0245 000b 4300 2447 540f 4700
1c44 5f30 4400 0343 4d2b 4300 0442 4c81
4642 002c 4254 1242 004d 4048 1d40 0045
434d 1843 0046 4c5b 194c 0001 4a53 0e4a
001e 4f65 274f 0022 4c54 1e4c 0027 3f38
043f 0000 4052 4140 0005 4340 8273 4300
7140 5829 4000 0443 4d0e 4300 2847 6424
4700 064a 5d2b 4a00 0ebb 0b7e 180b 7d18
0b7c 180b 7b18 0b7a 180b 7915 9b40 4303
bb0b 7818 0b77 0c9b 4000 0643 4d06 bb0b
7618 0b75 079b 4300 0645 490b bb0b 7418
0b73 059b 4500 0546 4d06 4600 0047 5d08
bb0b 7218 0b71 099b 4700 034a 5604 bb0b
7018 0b6f 0f9b 4a00 09bb 0b6e 180b 6d18
0b6c 180b 6b18 0b6a 180b 6918 0b68 180b
6713 9b46 6505 bb0b 6602 9b46 0000 4758
16bb 0b65 180b 6418 0b63 100b 6202 9b47
0006 4553 10bb 0b61 099b 4500 0043 480f
bb0b 6003 9b43 0005 4040 10bb 0b5f 079b
4000 11bb 0b5e 180b 5d18 0b5c 180b 5b18
0b5a 180b 5918 0b58 180b 5718 0b56 0c9b
4056 0cbb 0b55 100b 540c 9b40 0005 3e53
07bb 0b53 180b 5218 0b51 180b 5018 0b4f
180b 4e18 0b4d 149b 3e00 04bb 0b4c 119b
3e46 07bb 0b4b 089b 3e00 10bb 0b4a 119b
4060 07bb 0b49 180b 4810 9b40 0003 434e
05bb 0b47 099b 4300 07bb 0b46 189b 455b
00bb 0b45 180b 4418 0b43 019b 4344 0245
000b 4300 0abb 0b42 180b 4102 9b47 540f
4700 07bb 0b40 159b 445f 03bb 0b3f 180b
3e15 9b44 0003 434d 00bb 0b3d 180b 3c13
9b43 0004 424c 01bb 0b3b 180b 3a18 0b39
100b 3818 0b37 180b 3618 0b35 180b 3418
0b33 0d9b 4200 0bbb 0b32 180b 3109 9b42
540f bb0b 3003 9b42 0015 bb0b 2f18 0b2e
180b 2d08 9b40 4810 bb0b 2c0d 9b40 000b
bb0b 2b10 0b2a 180b 2912 9b43 4d06 bb0b
2812 9b43 0006 bb0b 2718 0b26 180b 2510
9b4c 5b08 bb0b 2411 9b4c 0001 4a53 06bb
0b23 089b 4a00 10bb 0b22 0e9b 4f65 0abb
0b21 180b 2005 9b4f 0013 bb0b 1f0f 9b4c
5409 bb0b 1e15 9b4c 0003 bb0b 1d10 0b1c
149b 3f38 043f 0000 4052 00bb 0b1b 180b
1a18 0b19 119b 4000 0543 4002 bb0b 1818
0b17 180b 1618 0b15 180b 1418 0b13 180b
1218 0b11 180b 1018 0b0f 100b 0e18 0b0d
180b 0c18 0b0b 180b 0a18 0b09 119b 4300
07bb 0b08 180b 0718 0b06 180b 0518 0b04
0a9b 4058 0ebb 0b03 180b 0203 9b40 0004
434d 0e43 0003 bb0b 0110 0b00 00ff 2f00
4d54 726b 0000 0994 00ff 2101 0000 ff03
0353 796e 00c8 5200 b807 6f00 b80a 3d00
b879 0001 0b7f 015b 5001 5d28 e81e 984d
6c2c 4d00 0148 591b 4b6a 0248 0082 5c4b
0005 445b 2d44 0004 446a 3e44 0003 4b63
8207 4840 034b 0004 4967 0448 002e 4900
0048 5f83 2248 0018 4466 4444 0001 435b
3d43 0000 415b 404d 6606 4100 364d 0001
4956 0749 0001 4a66 3946 6101 4a00 824f
4600 0746 5926 4600 0346 6748 4600 0145
590b 444d 0345 000c 4356 0144 0081 2045
6a03 4300 4046 6502 4500 3446 0005 4862
860b 4800 7148 4c1a 4d55 0548 0011 4f53
024d 0016 4f00 0350 5381 0951 4501 5000
0752 540b 5100 2152 0001 4f50 8304 4f00
7c4c 501e 4e4f 024c 0021 4f57 044e 0081
094e 4b04 4f00 2c50 3902 4e00 0651 5506
5000 6d4e 5107 5100 414e 0003 4a50 8139
4a00 7a4f 611d 4f00 0551 5b1e 5100 0752
6b81 0b52 0006 5161 2f51 0004 5463 8106
506b 0650 0000 5164 0154 0031 5100 014d
6181 094d 0006 4a61 2f4a 0003 4a61 414a
0002 5541 0456 5804 5500 8b11 5600 81fb
444d 6c2c 4d00 0148 591b 4b6a 0248 0082
5c4b 0005 445b 2d44 0004 446a 3e44 0003
4b63 8207 4840 034b 0004 4967 0448 002e
4900 0048 5f83 2248 0018 4466 4444 0001
435b 3d43 0000 415b 404d 6606 4100 364d
0001 4956 0749 0001 4a66 3946 6101 4a00
824f 4600 0746 5926 4600 0346 6748 4600
0145 590b 444d 0345 000c 4356 0144 0081
2045 6a03 4300 4046 6502 4500 3446 0005
4862 860b 4800 7148 4c1a 4d55 0548 0011
4f53 024d 0016 4f00 0350 5381 0951 4501
5000 0752 540b 5100 2152 0001 4f50 8304
4f00 7c4c 501e 4e4f 024c 0021 4f57 044e
0081 094e 4b04 4f00 2c50 3902 4e00 0651
5506 5000 6d4e 5107 5100 414e 0003 4a50
8139 4a00 7a4f 611d 4f00 0551 5b1e 5100
0752 6b79 5200 0251 6144 5100 0554 6381
0650 6b06 5000 0051 6401 5400 3151 0001
4d61 8109 4d00 064a 612f 4a00 034a 6141
4a00 0255 4104 5658 0455 008b 1156 00b4
6244 685e 4400 0344 6417 3d62 0244 0014
3d00 0441 6914 4100 0244 6d19 4400 0148
725c 4800 0246 6e5b 4600 0548 665d 4800
034a 6c46 4a00 044c 7617 4c00 1945 500f
4500 0749 6e3f 4900 0942 6816 4200 0245
6018 496c 0245 0014 4900 024c 6c15 4c00
1b42 5112 4200 0649 7131 425c 1049 0008
4200 0046 6816 4600 0149 6f16 4900 044b
7115 4b00 034d 7660 4d00 0046 4f15 4600
0349 5c17 4900 014d 6918 4d00 004f 7274
4f00 0448 5218 4800 004b 6316 4b00 024f
6a18 4f00 0050 7476 5000 0149 4617 4900
014c 5c17 4c00 0050 6c18 5271 0250 0081
3852 0009 536a 3653 0097 7847 612d 4700
024a 6831 4c68 024a 0081 364c 0007 4a62
2e4a 0032 4356 2d43 0003 4762 2c47 0004
4564 6043 5701 4500 3e43 0081 3143 6430
4300 0040 5030 4000 0248 6a55 4800 0947
6430 434d 0347 0027 4300 0645 6430 4354
0445 0025 4300 0747 6881 6747 006b 476c
2f46 6301 4700 2c46 0003 4562 812b 4500
4651 6a57 5100 094f 6a2f 4e6e 044f 002b
4c5b 014e 002c 4c00 034f 6481 1c4f 0081
344c 6860 4c00 004a 6c4b 4a00 1547 682d
4700 0345 5e2c 4500 0443 6230 4300 0140
625c 4000 0343 5e81 0843 0039 4761 2d47
0002 4a68 314c 6802 4a00 8136 4c00 074a
622e 4a00 3243 562d 4300 0347 622c 4700
0445 6460 4357 0145 003e 4300 8131 4364
3043 0000 4050 3040 0002 486a 5548 0009
4764 3043 4d03 4700 2743 0006 4564 3043
5404 4500 2543 0007 4768 8167 4700 6b47
6c2f 4663 0147 002c 4600 0345 6281 2b45
0046 516a 5751 0009 4f6a 2f4e 6e04 4f00
2b4c 5b01 4e00 2c4c 0003 4f64 811c 4f00
8134 4c68 604c 0000 4a6c 4b4a 0015 4768
2d47 0003 455e 2c45 0004 4362 3043 0001
4062 5c40 0003 435e 8108 4300 384a 5e01
4761 2a4a 0003 4700 004e 5502 4a68 2d4e
0003 4f50 014c 6802 4a00 8136 4c00 044f
0003 4a54 024e 542b 4e00 014a 0031 4746
0143 562b 4700 0243 0002 4a5b 0147 622c
4700 044a 0000 4564 0148 585d 4800 0147
4d01 4357 0145 003e 4300 0b47 0081 2647
5400 4364 2a43 0002 4342 0247 0002 4050
2e43 0002 4000 004c 5002 486a 5548 0006
4a4e 034c 0000 4764 2d47 0003 434d 0147
4103 4a00 2643 0005 4700 0145 6401 4850
2f48 0000 4746 0043 5401 4500 2843 0004
4700 014a 5402 4768 8161 4a00 0647 006a
4a54 0147 6c2d 4a00 0049 5702 4663 0147
0028 4900 0248 4c02 4600 0345 6281 1048
0001 4500 6054 5800 516a 5454 0003 5100
0753 5c02 4f6a 2b53 0004 514e 004e 6e04
4f00 2a51 0001 4c5b 014e 0000 4f50 274f
0005 4c00 0253 4e01 4f64 816e 4f00 0353
005f 4c68 0251 5a57 5100 064f 5c01 4c00
004a 6c4b 4a00 0e4f 0007 4768 014c 5b2c
4c00 0047 0002 4a49 0145 5e2c 4500 0147
4b01 4a00 0243 6228 4700 0843 0082 204a
5e01 4761 2a4a 0003 4700 004e 5502 4a68
09b8 0b7e 180b 7d0c 984e 0003 4f50 014c
6802 4a00 06b8 0b7c 180b 7b18 0b7a 180b
7918 0b78 180b 7718 0b76 180b 7508 984c
0004 4f00 034a 5402 4e54 07b8 0b74 180b
730c 984e 0001 4a00 0bb8 0b72 180b 710e
9847 4601 4356 01b8 0b70 180b 6f12 9847
0002 4300 024a 5b01 4762 01b8 0b6e 180b
6d13 9847 0004 4a00 0045 6401 4858 00b8
0b6c 180b 6b18 0b6a 180b 6915 9848 0001
474d 0143 5701 4500 00b8 0b68 180b 6718
0b66 0e98 4300 0ab8 0b65 0198 4700 17b8
0b64 180b 6310 0b62 180b 6118 0b60 180b
5f18 0b5e 0798 4754 0043 6411 b80b 5d18
0b5c 0198 4300 0243 4202 4700 0240 5011
b80b 5b18 0b5a 0598 4300 0240 0000 4c50
0248 6a0f b80b 5918 0b58 180b 5716 9848
0002 b80b 5604 984a 4e03 4c00 0047 6411
b80b 5510 0b54 0c98 4700 0343 4d01 4741
034a 0005 b80b 5318 0b52 0998 4300 0547
0001 4564 0148 5008 b80b 5118 0b50 0f98
4800 0047 4600 4354 0145 0008 b80b 4f18
0b4e 0898 4300 0447 0001 4a54 0247 6809
b80b 4d18 0b4c 180b 4b18 0b4a 180b 4918
0b48 180b 4710 0b46 180b 4518 0b44 0898
4a00 0647 000a b80b 4318 0b42 180b 4118
0b40 1898 4a54 00b8 0b3f 0198 476c 17b8
0b3e 1698 4a00 0049 5702 4663 00b8 0b3d
0198 4700 17b8 0b3c 1198 4900 0248 4c02
4600 0345 6200 b80b 3b18 0b3a 180b 3910
0b38 180b 3718 0b36 180b 3508 9848 0001
4500 0fb8 0b34 180b 3318 0b32 180b 3109
9854 5800 516a 0fb8 0b30 180b 2f18 0b2e
1598 5400 0351 0000 b80b 2d07 9853 5c02
4f6a 0fb8 0b2c 180b 2b04 9853 0004 514e
004e 6e04 4f00 04b8 0b2a 180b 290e 9851
0001 4c5b 014e 0000 4f50 08b8 0b28 180b
2707 984f 0005 4c00 0253 4e01 4f64 09b8
0b26 180b 2518 0b24 180b 2318 0b22 180b
2118 0b20 180b 1f18 0b1e 180b 1d0d 984f
0003 5300 00b8 0b1c 180b 1b18 0b1a 180b
1917 984c 6801 b80b 1801 9851 5a17 b80b
1718 0b16 180b 1510 9851 0006 4f5c 014c
0000 4a6c 01b8 0b14 180b 1318 0b12 180b
1102 984a 000e 4f00 0747 6801 4c5b 00b8
0b10 180b 0f10 0b0e 0498 4c00 0047 0002
4a49 0145 5e11 b80b 0d18 0b0c 0398 4500
0147 4b01 4a00 0243 6211 b80b 0b17 9847
0001 b80b 0a07 9843 0011 b80b 0918 0b08
180b 0718 0b06 180b 0518 0b04 180b 0318
0b02 180b 0110 0b00 00ff 2f00 4d54 726b
0000 0afb 00ff 2101 0000 ff03 0b53 796e
7468 2042 7261 7373 00c4 3f00 b407 6400
b40a 2a00 b479 0001 0b7f 015b 5001 5d3c
819e 4c94 3a63 0043 642f 3a00 0143 0000
3955 0042 5c01 3e5a 013b 5322 3e00 033b
0002 4200 0139 007e 3953 0042 5d00 3e5f
003b 5712 3e00 0142 0003 3b00 0339 002f
3751 0039 5700 4057 003c 5d81 0d3c 0002
3700 0039 0000 4000 0236 5900 3b54 0037
5400 3e4e 1b37 0002 3600 003b 0000 3e00
8154 345d 003b 5b00 3753 003e 4908 3e00
0337 0001 3400 013b 0023 3750 003c 5700
4053 0039 545a 3c00 0339 0001 4000 0037
0001 4252 003b 5400 3e5a 0045 5401 3749
810a 3700 0645 0002 4200 013e 0001 3b00
1242 5900 3b5b 003e 6600 4555 0037 5010
3e00 013b 0002 4200 0145 0001 3700 323c
6201 375f 003b 5700 4066 0043 5f1a 3b00
003c 0000 3700 0340 0002 4300 8372 3e5a
013b 5322 3e00 033b 0081 0139 5300 425d
003e 5f00 3b57 123e 0001 4200 033b 0003
3900 2f37 5100 3957 0040 5700 3c5d 810d
3c00 0237 0000 3900 0040 0002 3659 003b
5400 3754 003e 4e1b 3700 0236 0000 3b00
003e 0081 5436 5d00 3753 003b 5b00 3e5d
083e 0003 3700 0136 0001 3b00 233f 5300
3d57 003b 5400 3750 5a3d 0003 3b00 013f
0000 3700 303b 5700 3c5a 0037 4f00 4055
1940 0001 3b00 013c 0002 3700 743c 5b00
3b5a 0037 5201 4054 1d40 0002 3700 013b
0000 3c00 8120 3c5c 0037 5600 3b5a 0040
5b81 003c 0002 3b00 0137 0000 4000 0b37
5400 3b5b 003c 5b00 4058 1940 0003 3c00
003b 0001 3700 753c 5c00 3756 003b 5a00
405b 8100 3c00 023b 0001 3700 0040 000b
3754 003b 5b00 3c5b 0040 5819 4000 033c
0000 3b00 0137 0074 3754 003b 5b00 3c5b
0040 5819 4000 033c 0000 3b00 0137 0081
243c 5c00 3756 003b 5a00 405b 8100 3c00
023b 0001 3700 0040 000b 3754 003b 5b00
3c5b 0040 5819 4000 033c 0000 3b00 0137
0075 3c5c 0037 5600 3b5a 0040 5b81 003c
0002 3b00 0137 0000 4000 0b37 5400 3b5b
003c 5b00 4058 1940 0003 3c00 003b 0001
3700 7437 5400 3b5b 003c 5b00 4058 1940
0003 3c00 003b 0001 3700 8124 3c5c 0037
5600 3b5a 0040 5b81 003c 0002 3b00 0137
0000 4000 0b37 5400 3b5b 003c 5b00 4058
1940 0003 3c00 003b 0001 3700 433c 3e00
3739 0040 3a00 3b3c 083b 0002 4000 0137
0000 3c00 273c 5400 3b49 0037 4900 404c
5540 0000 3c00 003b 0000 3700 b30d 4368
8300 406a 0543 0082 7e3e 6805 4000 827e
4064 013e 0085 4e40 008c 2d40 6882 7b40
0002 3e64 8308 4064 013e 0085 5940 008c
2542 5d82 6e42 0003 415a 8309 4100 0140
6182 7f42 6304 4000 8269 4200 8c10 4467
8304 4400 0143 6886 6743 009a 0cb4 0b3f
0894 3a5d 003f 4e00 435f 003c 5f10 b40b
4018 0b41 180b 4218 0b43 180b 4414 0b45
180b 4618 0b47 0494 3f00 003a 0001 4300
003c 0006 3a4d 0041 5300 374c 003e 540d
b40b 4818 0b49 140b 4a18 0b4b 180b 4c18
0b4d 180b 4e14 0b4f 0d94 3700 033e 0000
3a00 0141 0002 374e 0038 5400 3f4b 003c
5705 b40b 5018 0b51 180b 5218 0b53 180b
5414 0b55 180b 5618 0b57 1094 3800 0037
0001 3f00 033c 0003 4156 0037 5600 3e56
003a 5601 b40b 5818 0b59 140b 5a18 0b5b
180b 5c18 0b5d 180b 5e14 0b5f 1894 3e00
00b4 0b60 0194 4100 0037 0000 3a00 063c
5b00 3f51 0038 5200 354e 11b4 0b61 180b
6218 0b63 180b 6414 0b65 180b 6618 0b67
180b 6808 9435 0000 3800 003f 0001 3c00
0041 5e00 3a5e 0037 5e00 3e5e 0fb4 0b69
140b 6a18 0b6b 180b 6c18 0b6d 180b 6e14
0b6f 180b 7006 943e 0004 3700 003a 0003
4100 0638 3f00 3f5f 013c 5f00 3d49 04b4
0b71 180b 7218 0b73 180b 7414 0b75 180b
7618 0b77 180b 7811 943c 0003 3800 003f
0000 3d00 033a 5d00 335d 003c 5d00 375d
01b4 0b79 140b 7a18 0b7b 180b 7c18 0b7d
180b 7e14 0b7f 3494 3700 0033 0001 3c00
003a 0085 7eb4 0b35 0394 3974 003c 7400
4074 0135 7400 b40b 3603 0b37 040b 3801
0b39 040b 3a03 0b3b 010b 3c04 0b3d 030b
3e04 0b3f 010b 4004 0b41 030b 4201 0b43
040b 4403 0b45 040b 4601 0b47 030b 4804
0b49 010b 4a04 0b4b 030b 4c04 0b4d 010b
4e03 0b4f 040b 5001 0b51 040b 5203 0b53
010b 5404 0b55 030b 5604 0b57 010b 5804
0b59 030b 5a01 0b5b 040b 5c03 0b5d 040b
5e01 0b5f 040b 6003 0b61 010b 6204 0b63
030b 6404 0b65 010b 6603 0b67 040b 6801
0b69 040b 6a03 0b6b 040b 6c01 0b6d 030b
6e04 0b6f 010b 7004 0b71 030b 7201 0b73
040b 7403 0b75 040b 7601 0b77 040b 7803
0b79 010b 7a04 0b7b 030b 7c04 0b7d 010b
7e03 0b7f 0b94 3900 033c 0000 4000 0235
000b 3e67 0141 6700 3967 003a 6724 3e00
0141 0000 3a00 0139 00a1 703f 3400 4635
003c 3501 433a 826a 4300 013c 0004 4600
013f 0012 3b39 0244 3902 3f35 0040 3881
383b 0003 3a3e 8127 4400 0240 0000 3f00
013a 0014 3834 0137 3001 3f3f 003c 3882
6337 0007 3800 043f 0000 3c00 0f38 3203
3f41 0135 2c00 3c40 8136 3e3c 013f 0081
343c 0003 3e00 0135 0006 3800 083e 4000
3a3e 0035 3182 6835 0001 3a00 003e 0012
3a3e 033e 3f00 413f 0035 3181 2835 0003
4100 023a 0003 3e00 0c37 3e00 3a41 003e
4000 4044 8127 3a00 0140 0000 3e00 0237
0015 3c48 0037 4400 403a 0139 4381 2737
0006 3900 033c 0002 4000 0f3a 3e01 4145
003e 4200 393a 812e 4100 013e 0003 3a00
0239 000e 4043 0137 4000 3945 003c 4881
2737 0002 3900 033c 0002 4000 1241 4501
3a3f 003e 4400 393a 7441 0001 3e00 043a
0001 3900 1440 4300 3948 013c 4800 3746
1137 0000 3900 033c 0004 4000 193f 4100
3840 003c 4000 3735 817f 3f00 0a3e 4065
3800 013c 0003 3700 023e 000a 3e38 013a
3c01 3739 813c 3d36 023e 0081 343a 0008
3700 003d 0007 3c3e 0037 3800 403d 8140
3b38 8138 4000 073b 0000 423f 013c 0000
3e40 0139 3801 3700 8276 4200 003e 0003
3a34 003e 3a01 4342 013f 3a02 3900 8211
3a00 0839 345f 3900 043f 0000 3e00 0043
0004 3e40 0039 3a00 3c3e 0041 3d81 4039
0000 3a35 0137 3d04 3c00 8137 3e00 0037
0003 3a00 0337 3c01 3e3e 003a 3502 4100
8272 3a00 043e 0000 3700 003c 3e02 3937
0135 2482 7f37 3801 3e3e 003a 3401 3500
023c 0000 3900 813b 3c40 0137 0000 3a00
0035 2c01 3e00 0139 3381 403a 3801 3e3f
033c 0001 3737 0139 0003 3500 8135 3700
0135 2e02 3e00 003a 0000 3c3a 0139 3181
3839 0003 3c00 0335 0001 4247 003e 4100
3b48 0039 462d 3e00 0142 0001 3b00 0239
0076 4244 003e 4500 3b48 0039 4619 3e00
0242 0000 3b00 0839 0027 3741 003c 4800
3b48 0040 4481 073b 0001 4000 003c 0003
3700 0337 4000 3644 003e 4800 3b4d 253b
0001 3700 0036 0002 3e00 8859 4252 003e
5c00 3b50 0039 4d1e 3900 0042 0000 3e00
003b 0081 0b42 5200 3e53 0039 5300 3b54
0b3e 0001 3b00 0142 0001 3900 3840 5000
3b57 003c 5600 3750 7e40 0002 3700 003c
0002 3b00 0e36 5500 3750 003e 5b00 3b58
1f3b 0002 3e00 0137 0001 3600 814f 3b50
0040 5500 3750 003e 5b0a 3e00 0140 0001
3700 013b 0023 3d51 003f 4a00 3751 003b
4a6c 3d00 013f 0000 3b00 0337 001e 3750
003b 5600 3c58 0040 531d 3c00 0140 0001
3b00 0337 006f 3c54 003b 5400 3753 0140
5524 3b00 003c 0001 3700 0240 0081 1937
4600 3b4d 003c 4f00 404d 8152 4000 0137
0000 3b00 003c 001b 3c44 0037 4000 3b40
0040 3e0a 4000 013b 0001 3700 003c 0024
3c50 003b 4900 3749 0040 4967 4000 0237
0000 3b00 013c 0028 3c54 0037 4f00 3b50
0040 4e12 3b00 003c 0000 3700 0140 007c
3c50 003b 4901 3744 0040 481e 3b00 003c
0001 3700 0040 0081 1f3c 4d00 3746 003b
4600 404a 814e 4000 063b 0002 3c00 0137
0019 3c42 0040 4200 3b40 0037 3d0d 3700
003b 0001 4000 003c 0022 3747 003c 4e00
3b48 0040 4e5f 3c00 0137 0000 3b00 0040
0030 3f4f 003a 5501 4356 003e 5a13 3f00
053e 0002 4300 013a 0074 3f51 003a 5400
3e5b 0043 5736 3e00 003f 0001 4300 013a
0081 083f 4e00 3a55 013e 5a00 4353 814f
3f00 013a 0000 3e00 0243 001f 3f43 003a
4800 434e 003e 500a 3e00 003f 0002 3a00
0143 0021 3a55 003f 4e00 435c 003e 5f58
3f00 003a 0001 3e00 0143 0000 ff2f 004d
5472 6b00 001d 6700 ff21 0100 00ff 0304
5269 6465 e901 9933 7f01 3300 5f33 7101
3300 5d33 6b01 3300 6133 7101 3300 5d33
6e01 3300 6133 7401 3300 5e33 7701 3300
6033 7401 3300 5f33 7401 3300 5e33 7701
3300 5e33 7401 3300 6133 7101 3300 5f33
6e01 3300 5d33 6b01 3300 6033 7101 3300
6033 7401 3300 5d33 7401 3300 5f33 6e01
3300 5f33 7101 3300 5f33 7101 3300 5f33
7401 3300 5f33 6e01 3300 5f33 6b01 3300
6033 7101 3300 5f33 7401 3300 5e33 6801
3300 5f33 6801 3300 5f33 6501 3300 5f33
7101 3300 5f33 7101 3300 5f33 7101 3300
5f33 6e01 3300 6033 6e01 3300 5e33 6b01
3300 5f33 6801 3300 5f33 6e01 3300 6033
7101 3300 6033 7101 3300 5f33 6b01 3300
5d33 6e01 3300 5f33 7101 3300 6033 7101
3300 6033 7101 3300 5f33 6b01 3300 5f33
6b01 3300 5f33 6e01 3300 5f33 6b01 3300
5d33 6e01 3300 5f33 6501 3300 5f33 6801
3300 5f33 6b01 3300 5f33 7101 3300 6133
7101 3300 5f33 6801 3300 5e33 6e01 3300
5e33 7701 3300 6033 7101 3300 5e33 7401
3300 5f33 6e01 3300 6033 6e01 3300 5e33
6e01 3300 6133 6801 3300 5f33 6b01 3300
5f33 6b01 3300 5d33 6e01 3300 6133 7101
3300 5f33 7101 3300 5d33 6b01 3300 5f33
6b01 3300 6033 7101 3300 5e33 6801 3300
5f33 7101 3300 6037 7a01 3700 ce00 3b68
013b 002f 3b50 013b 002f 3b72 013b 002d
3b54 013b 002f 3b70 013b 002f 3b51 013b
002f 3b66 013b 002f 3b50 013b 002f 3b66
013b 002f 3b54 013b 002f 3b68 013b 0031
3b49 013b 002f 3b64 013b 002f 3b4e 013b
002e 3b64 013b 002f 3b50 013b 0030 3b66
013b 002e 3b4c 013b 002e 3b6e 013b 0031
3b43 013b 002f 3b6a 013b 002f 3b54 013b
002f 3b66 013b 002f 3b4c 013b 002f 3b64
013b 002f 3b50 013b 002f 3b68 013b 002f
3b46 013b 002f 3b6c 013b 002f 3b49 013b
002f 3b68 013b 002f 3b53 013b 002f 3b68
013b 002f 3b50 013b 002f 3b72 013b 002d
3b54 013b 002f 3b70 013b 002f 3b51 013b
002f 3b66 013b 002f 3b50 013b 002f 3b66
013b 002f 3b54 013b 002f 3b68 013b 0031
3b49 013b 002f 3b64 013b 002f 3b4e 013b
002e 3b64 013b 002f 3b50 013b 0030 3b66
013b 002e 3b4c 013b 002e 3b6e 013b 0031
3b43 013b 002f 3b6a 013b 002f 3b54 013b
002f 3b66 013b 002f 3b4c 013b 002f 3b64
013b 002f 3b50 013b 002f 3b68 013b 002f
3b46 013b 002f 3b6c 013b 002f 3b49 013b
002f 3b68 013b 002f 3b53 013b 002f 3b68
013b 002f 3b50 013b 002f 3b72 013b 002d
3b54 013b 002f 3b70 013b 002f 3b51 013b
002f 3b66 013b 002f 3b50 013b 002f 3b66
013b 002f 3b54 013b 002f 3b68 013b 0031
3b49 013b 002f 3b64 013b 002f 3b4e 013b
002e 3b64 013b 002f 3b50 013b 0030 3b66
013b 002e 3b4c 013b 002e 3b6e 013b 0031
3b43 013b 002f 3b6a 013b 002f 3b54 013b
002f 3b66 013b 002f 3b4c 013b 002f 3b64
013b 002f 3b50 013b 002f 3b68 013b 002f
3b46 013b 002f 3b6c 013b 002f 3b49 013b
002f 3b68 013b 002f 3b53 013b 002f 3b68
013b 002f 3b50 013b 002f 3b72 013b 002d
3b54 013b 002f 3b70 013b 002f 3b51 013b
002f 3b66 013b 002f 3b50 013b 002f 3b66
013b 002f 3b54 013b 002f 3b68 013b 0031
3b49 013b 002f 3b64 013b 002f 3b4e 013b
002e 3b64 013b 002f 3b50 013b 0030 3b66
013b 002e 3b4c 013b 002e 3b6e 013b 0031
3b43 013b 002f 3b6a 013b 002f 3b54 013b
002f 3b66 013b 002f 3b4c 013b 002f 3b64
013b 002f 3b50 013b 002f 3b68 013b 002f
3b46 013b 002f 3b6c 013b 002f 3b49 013b
002f 3b68 013b 002f 3b53 013b 002e 3b68
013b 0030 3b50 013b 002f 3b72 013b 002d
3b54 013b 002f 3b70 013b 002f 3b51 013b
002f 3b66 013b 002f 3b50 013b 002f 3b66
013b 002f 3b54 013b 002f 3b68 013b 0031
3b49 013b 002f 3b64 013b 002f 3b4e 013b
002e 3b64 013b 002f 3b50 013b 0030 3b66
013b 002e 3b4c 013b 002e 3b6e 013b 0031
3b43 013b 002f 3b6a 013b 002f 3b54 013b
002f 3b66 013b 002f 3b4c 013b 002f 3b64
013b 002f 3b50 013b 002f 3b68 013b 002f
3b46 013b 002f 3b6c 013b 002f 3b49 013b
002f 3b68 013b 002f 3b53 013b 002f 3b68
013b 002f 3b50 013b 002f 3b72 013b 002d
3b54 013b 002f 3b70 013b 002f 3b51 013b
002f 3b66 013b 002f 3b50 013b 002f 3b66
013b 002f 3b54 013b 002f 3b68 013b 0031
3b49 013b 002f 3b64 013b 002f 3b4e 013b
002e 3b64 013b 002f 3b50 013b 0030 3b66
013b 002e 3b4c 013b 002e 3b6e 013b 0031
3b43 013b 002f 3b6a 013b 002f 3b54 013b
002f 3b66 013b 002f 3b4c 013b 002f 3b64
013b 002f 3b50 013b 002f 3b68 013b 002f
3b46 013b 002f 3b6c 013b 002f 3b49 013b
002f 3b68 013b 002f 3b53 013b 002f 3b68
013b 002f 3b50 013b 002f 3b72 013b 002d
3b54 013b 002f 3b70 013b 002f 3b51 013b
002f 3b66 013b 002f 3b50 013b 002f 3b66
013b 002f 3b54 013b 002f 3b68 013b 0031
3b49 013b 002f 3b64 013b 002f 3b4e 013b
002e 3b64 013b 002f 3b50 013b 0030 3b66
013b 002e 3b4c 013b 002e 3b6e 013b 0031
3b43 013b 002f 3b6a 013b 002f 3b54 013b
002f 3b66 013b 002f 3b4c 013b 002f 3b64
013b 002f 3b50 013b 002f 3b68 013b 002f
3b46 013b 002f 3b6c 013b 002f 3b49 013b
002f 3b68 013b 002f 3b53 013b 002f 3b68
013b 002f 3b50 013b 002f 3b72 013b 002d
3b54 013b 002f 3b70 013b 002f 3b51 013b
002f 3b66 013b 002f 3b50 013b 002f 3b66
013b 002f 3b54 013b 002f 3b68 013b 0031
3b49 013b 002f 3b64 013b 002f 3b4e 013b
002e 3b64 013b 002f 3b50 013b 0030 3b66
013b 002e 3b4c 013b 002e 3b6e 013b 0031
3b43 013b 002f 3b6a 013b 002f 3b54 013b
002f 3b66 013b 002f 3b4c 013b 002f 3b64
013b 002f 3b50 013b 002f 3b68 013b 002f
3b46 013b 002f 3b6c 013b 002f 3b49 013b
002f 3b68 013b 002f 3b53 013b 002f 3b68
013b 002f 3b50 013b 002f 3b72 013b 002d
3b54 013b 002f 3b70 013b 002f 3b51 013b
002f 3b66 013b 002f 3b50 013b 002f 3b66
013b 002f 3b54 013b 002f 3b68 013b 0031
3b49 013b 002f 3b64 013b 002f 3b4e 013b
002e 3b64 013b 002f 3b50 013b 0030 3b66
013b 002e 3b4c 013b 002e 3b6e 013b 0031
3b43 013b 002f 3b6a 013b 002f 3b54 013b
002f 3b66 013b 002f 3b4c 013b 002f 3b64
013b 002f 3b50 013b 002f 3b68 013b 002f
3b46 013b 002f 3b6c 013b 002f 3b49 013b
002f 3b68 013b 002f 3b53 013b 002f 3b68
013b 002f 3b50 013b 002f 3b72 013b 002d
3b54 013b 002f 3b70 013b 002f 3b51 013b
002f 3b66 013b 002f 3b50 013b 002f 3b66
013b 002f 3b54 013b 002f 3b68 013b 0031
3b49 013b 002f 3b64 013b 002f 3b4e 013b
002e 3b64 013b 002f 3b50 013b 0030 3b66
013b 002e 3b4c 013b 002e 3b6e 013b 0031
3b43 013b 002f 3b6a 013b 002f 3b54 013b
002f 3b66 013b 002f 3b4c 013b 002f 3b64
013b 002f 3b50 013b 002f 3b68 013b 002f
3b46 013b 002f 3b6c 013b 002f 3b49 013b
002f 3b68 013b 002f 3b53 013b 0033 3b4d
013b 0011 3343 0133 000f 3b37 013b 000d
333a 0133 000e 3b41 013b 0013 333a 0133
000b 3b43 013b 0012 333d 0133 000f 3b42
013b 000c 333d 0133 000f 3b46 013b 000e
3332 0133 000b 3b41 013b 0012 333c 0133
000f 3b42 013b 0012 333b 0133 000f 3b40
013b 000f 333a 0133 000e 3b45 013b 000f
3331 0133 000d 3b44 013b 0012 332c 0133
000b 3b40 013b 000c 3335 0133 000d 3b41
013b 0014 3338 0133 000c 3b40 013b 0010
3341 0133 0010 3b42 013b 000f 333f 0133
000d 3b45 013b 0013 3335 0133 000a 3b48
013b 0012 332b 0133 000b 3b44 013b 000f
3334 0133 000e 3b42 013b 000e 333d 0133
000e 3b45 013b 0012 3337 0133 000d 3b49
013b 0014 332a 0133 000a 3b44 013b 0017
3330 0133 000a 3b44 013b 0010 3338 0133
0010 3b44 013b 000d 3341 0133 000d 3b4c
013b 0013 334d 0133 0009 3b4e 013b 0014
334e 0133 000c 3b4e 013b 0013 3350 0133
000c 3b50 013b 0013 3351 0133 000d 3b51
013b 0011 3351 0133 000d 3b51 013b 0013
3352 0133 000c 3b52 013b 0013 3352 0133
000f 3b54 013b 000d 3354 0133 000e 3b55
013b 0014 3355 0133 000b 3b55 013b 0014
3355 0133 000d 3b57 013b 0012 3358 0133
000b 3b58 013b 0017 3359 0133 000a 3b5b
013b 0013 335d 0133 000d 3b5e 013b 0010
335e 0133 000d 3b5f 013b 0011 3360 0133
000c 3b60 013b 0015 3361 0133 0009 3b62
013b 0013 3362 0133 000d 3b64 013b 0012
3366 0133 000a 3b66 013b 0012 336c 0133
000c 3b72 013b 0012 3373 0133 0009 3b73
013b 0013 3375 0133 000b 3b76 013b 000f
337a 0133 000d 3b7b 013b 000f 337e 0133
000b 3b7e 013b 000b 337e 0133 000b 3b7e
013b 0009 3167 0131 0061 3b72 013b 002d
3b54 013b 002f 3b70 013b 002f 3b51 013b
002f 3b66 013b 002f 3b50 013b 002f 3b66
013b 002f 3b54 013b 002f 3b68 013b 0031
3b49 013b 002f 3b64 013b 002f 3b4e 013b
002e 3b64 013b 002f 3b50 013b 0030 3b66
013b 002e 3b4c 013b 002e 3b6e 013b 0031
3b43 013b 002f 3b6a 013b 002f 3b54 013b
002f 3b66 013b 002f 3b4c 013b 002f 3b64
013b 002f 3b50 013b 002f 3b68 013b 002f
3b46 013b 002f 3b6c 013b 002f 3b49 013b
002f 3b68 013b 002f 3b53 013b 002e 3b64
013b 002e 3b54 013b 002f 3b68 013b 0031
3b49 013b 002f 3b64 013b 002f 3b4e 013b
002e 3b64 013b 002f 3b50 013b 0030 3b66
013b 002e 3b4c 013b 002e 3b6e 013b 0031
3b43 013b 002f 3b6a 013b 002f 3b54 013b
002f 3b66 013b 002f 3b4c 013b 002f 3b64
013b 002f 3b50 013b 002f 3b68 013b 002f
3b46 013b 002f 3b6c 013b 002f 3b49 013b
002f 3b68 013b 002f 3b53 013b 002f 3b68
013b 002f 3b50 013b 002f 3b72 013b 002d
3b54 013b 002f 3b70 013b 002f 3b51 013b
002f 3b66 013b 002f 3b50 013b 002f 3b66
013b 002f 3b54 013b 002f 3b68 013b 0031
3b49 013b 002f 3b64 013b 002f 3b4e 013b
002e 3b64 013b 002f 3b50 013b 0030 3b66
013b 002e 3b4c 013b 002e 3b6e 013b 0031
3b43 013b 002f 3b6a 013b 002f 3b54 013b
002f 3b66 013b 002f 3b4c 013b 002d 395f
0139 0031 3b50 013b 002f 3b72 013b 002d
3b54 013b 002f 3b70 013b 002f 3b51 013b
002f 3b66 013b 002f 3b50 013b 002f 3b66
013b 002f 3b54 013b 002f 3b68 013b 0031
3b49 013b 002f 3b64 013b 002f 3b4e 013b
002e 3b64 013b 002f 3b50 013b 0030 3b66
013b 002e 3b4c 013b 002e 3b6e 013b 0031
3b43 013b 002f 3b6a 013b 002f 3b54 013b
002f 3b66 013b 002f 3b4c 013b 002f 3b64
013b 002f 3b50 013b 002f 3b68 013b 002f
3b46 013b 002f 3b6c 013b 002f 3b49 013b
002f 3b68 013b 002f 3b53 013b 0081 0f33
7101 3300 5d33 6b01 3300 6133 7101 3300
5d33 6e01 3300 6133 7401 3300 5e33 7701
3300 6033 7401 3300 5f33 7401 3300 5e33
7701 3300 5e33 7401 3300 6133 7101 3300
5f33 6e01 3300 5d33 6b01 3300 6033 7101
3300 6033 7401 3300 5d33 7401 3300 5f33
6e01 3300 5f33 7101 3300 5f33 7101 3300
5f33 7401 3300 5f33 6e01 3300 5f33 6b01
3300 6033 7101 3300 5f33 7401 3300 5e33
6801 3300 5f33 6801 3300 5f33 6501 3300
5f33 7101 3300 5f33 7101 3300 5f33 7101
3300 5f33 6e01 3300 813f 336b 0133 005f
3368 0133 005f 336e 0133 0060 3371 0133
0060 3371 0133 005f 336b 0133 005d 336e
0133 005f 3371 0133 0060 3371 0133 0060
3371 0133 005f 336b 0133 005f 336b 0133
005f 336e 0133 005f 336b 0133 005d 336e
0133 005f 3365 0133 005f 3368 0133 005f
336b 0133 005f 3371 0133 0061 3371 0133
005f 3368 0133 005e 336e 0133 005e 3377
0133 0081 3f33 7401 3300 5f33 6e01 3300
6033 6e01 3300 5e33 6e01 3300 6133 6801
3300 5f33 6b01 3300 5f33 6b01 3300 5d33
6e01 3300 6133 7101 3300 5f33 7101 3300
5d33 6b01 3300 5f33 6b01 3300 6033 7101
3300 5e33 6801 3300 5f33 7101 3300 5f39
6801 3900 313b 5001 3b00 2f3b 7201 3b00
2d3b 5401 3b00 2f3b 7001 3b00 2f3b 5101
3b00 2f3b 6601 3b00 2f3b 5001 3b00 2f3b
6601 3b00 2f3b 5401 3b00 2f3b 6801 3b00
313b 4901 3b00 2f3b 6401 3b00 2f3b 4e01
3b00 2e3b 6401 3b00 2f3b 5001 3b00 303b
6601 3b00 2e3b 4c01 3b00 2e3b 6e01 3b00
313b 4301 3b00 2f3b 6a01 3b00 2f3b 5401
3b00 2f3b 6601 3b00 2f3b 4c01 3b00 2f3b
6401 3b00 2f3b 5001 3b00 2f3b 6801 3b00
2f3b 4601 3b00 2f3b 6c01 3b00 2f3b 4901
3b00 2f3b 6801 3b00 2f3b 5301 3b00 2d39
6101 3900 2f3b 5401 3b00 2f3b 6801 3b00
313b 4901 3b00 2f3b 6401 3b00 2f3b 4e01
3b00 2e3b 6401 3b00 2f3b 5001 3b00 303b
6601 3b00 2e3b 4c01 3b00 2e3b 6e01 3b00
313b 4301 3b00 2f3b 6a01 3b00 2f3b 5401
3b00 2f3b 6601 3b00 2f3b 4c01 3b00 2f3b
6401 3b00 2f3b 5001 3b00 2f3b 6801 3b00
2f3b 4601 3b00 2f3b 6c01 3b00 2f3b 4901
3b00 2f3b 6801 3b00 2f3b 5301 3b00 2f3b
6801 3b00 2f3b 5001 3b00 2f3b 7201 3b00
2d3b 5401 3b00 2f3b 7001 3b00 2f3b 5101
3b00 2f3b 6601 3b00 2f3b 5001 3b00 2f3b
6601 3b00 2f3b 5401 3b00 2f3b 6801 3b00
313b 4901 3b00 2f3b 6401 3b00 2f3b 4e01
3b00 2e3b 6401 3b00 2f3b 5001 3b00 303b
6601 3b00 2e3b 4c01 3b00 2e3b 6e01 3b00
313b 4301 3b00 2f3b 6a01 3b00 2f3b 5401
3b00 2f3b 6601 3b00 2f3b 4c01 3b00 2e39
6401 3900 303b 5001 3b00 2f3b 6801 3b00
2f3b 4601 3b00 2f3b 6c01 3b00 2f3b 4901
3b00 2f3b 6801 3b00 2f3b 5301 3b00 2f3b
6801 3b00 2f3b 5001 3b00 2f3b 7201 3b00
2d3b 5401 3b00 2f3b 7001 3b00 2f3b 5101
3b00 2f3b 6601 3b00 2f3b 5001 3b00 2f39
6601 3900 5f31 6801 3100 313b 4901 3b00
2f3b 6401 3b00 2f3b 4e01 3b00 2e3b 6401
3b00 2f3b 5001 3b00 303b 6601 3b00 2e3b
4c01 3b00 2e3b 6e01 3b00 313b 4301 3b00
2f3b 6a01 3b00 2f3b 5401 3b00 2f3b 6601
3b00 2f3b 4c01 3b00 2e39 6401 3900 303b
5001 3b00 2f3b 6801 3b00 2f3b 4601 3b00
2f3b 6c01 3b00 2f3b 4901 3b00 2f3b 6801
3b00 2f3b 5301 3b00 2f3b 6801 3b00 2f3b
5001 3b00 2f3b 7201 3b00 2d3b 5401 3b00
2f3b 7001 3b00 2f3b 5101 3b00 2f3b 6601
3b00 2f3b 5001 3b00 2f3b 6601 3b00 2f3b
5401 3b00 2f3b 6801 3b00 313b 4901 3b00
2f3b 6401 3b00 2f3b 4e01 3b00 2e3b 6401
3b00 2f3b 5001 3b00 303b 6601 3b00 2e3b
4c01 3b00 2e3b 6e01 3b00 313b 4301 3b00
2f3b 6a01 3b00 2f3b 5401 3b00 2f3b 6601
3b00 2f3b 4c01 3b00 2f3b 6401 3b00 2f3b
5001 3b00 2f3b 6801 3b00 2f3b 4601 3b00
2f3b 6c01 3b00 2f3b 4901 3b00 2f3b 6801
3b00 2f3b 5301 3b00 2f3b 6801 3b00 2f3b
5001 3b00 2f3b 7201 3b00 2d3b 5401 3b00
2f3b 7001 3b00 2f3b 5101 3b00 2f3b 6601
3b00 2f3b 5001 3b00 2f3b 6601 3b00 2f3b
5401 3b00 2f39 6801 3900 313b 4901 3b00
2f3b 6401 3b00 2f3b 4e01 3b00 2e39 6901
3900 2f3b 5001 3b00 303b 6601 3b00 2e3b
4c01 3b00 2e39 6e01 3900 313b 4301 3b00
2f3b 6a01 3b00 2f3b 5401 3b00 2f39 6601
3900 2f3b 4c01 3b00 2e39 6401 3900 303b
5001 3b00 2f3b 6801 3b00 2f3b 4601 3b00
2f3b 6c01 3b00 2f3b 4901 3b00 2f3b 6801
3b00 2f3b 5301 3b00 2f3b 6801 3b00 2f3b
5001 3b00 2f3b 7201 3b00 2d3b 5401 3b00
2f3b 7001 3b00 2f3b 5101 3b00 2f3b 6601
3b00 2f3b 5001 3b00 2f3b 6601 3b00 2f3b
5401 3b00 2f3b 6801 3b00 313b 4901 3b00
2f3b 6401 3b00 2f3b 4e01 3b00 2e3b 6401
3b00 2f3b 5001 3b00 303b 6601 3b00 2e3b
4c01 3b00 2e3b 6e01 3b00 313b 4301 3b00
2f3b 6a01 3b00 2f3b 5401 3b00 2f3b 6601
3b00 2f3b 4c01 3b00 2f39 6401 3900 2f3b
5001 3b00 2f3b 6801 3b00 2f3b 4601 3b00
2f3b 6c01 3b00 2f3b 4901 3b00 2f3b 6801
3b00 2f3b 5301 3b00 2f3b 6801 3b00 2f3b
5001 3b00 2f3b 7201 3b00 2d3b 5401 3b00
2f3b 7001 3b00 2f3b 5101 3b00 2f3b 6601
3b00 2f3b 5001 3b00 2f3b 6601 3b00 2f3b
5401 3b00 2f3b 6801 3b00 313b 4901 3b00
2f3b 6401 3b00 2f3b 4e01 3b00 2e3b 6401
3b00 2f3b 5001 3b00 303b 6601 3b00 2e3b
4c01 3b00 2e3b 6e01 3b00 313b 4301 3b00
2f39 4901 3900 2f3b 5401 3b00 2f39 6301
3900 2f3b 5b01 3b00 2d39 7301 3900 313b
5001 3b00 2f3b 6801 3b00 2f3b 4601 3b00
2f3b 6c01 3b00 2f3b 4901 3b00 2f3b 6801
3b00 2f3b 5301 3b00 2f3b 6801 3b00 2f3b
5001 3b00 2f3b 7201 3b00 2d3b 5401 3b00
2f3b 7001 3b00 2f3b 5101 3b00 2f3b 6601
3b00 2f3b 5001 3b00 2f3b 6601 3b00 2f3b
5401 3b00 2f3b 6801 3b00 313b 4901 3b00
2f3b 6401 3b00 2f3b 4e01 3b00 2e3b 6401
3b00 2f3b 5001 3b00 303b 6601 3b00 2e3b
4c01 3b00 2e3b 6e01 3b00 313b 4301 3b00
2f3b 6a01 3b00 2f3b 5401 3b00 2f3b 6601
3b00 2f3b 4c01 3b00 2f39 6401 3900 2f3b
5001 3b00 2f3b 6801 3b00 2f3b 4601 3b00
2f3b 6c01 3b00 2f3b 4901 3b00 2f3b 6801
3b00 2f3b 5301 3b00 2f3b 6801 3b00 2f3b
5001 3b00 2f3b 7201 3b00 2d3b 5401 3b00
2f3b 7001 3b00 2f3b 5101 3b00 2f3b 6601
3b00 2f3b 5001 3b00 2f3b 6601 3b00 2f3b
5401 3b00 2f3b 6801 3b00 313b 4901 3b00
2f3b 6401 3b00 2f3b 4e01 3b00 2e3b 6401
3b00 2f3b 5001 3b00 303b 6601 3b00 2e3b
4c01 3b00 2e3b 6e01 3b00 313b 4301 3b00
2f39 4601 3900 2f3b 5401 3b00 2f39 5e01
3900 2f3b 4c01 3b00 2d39 7301 3900 313b
5001 3b00 2f3b 6801 3b00 2f3b 4601 3b00
2f3b 6c01 3b00 2f3b 4901 3b00 2f3b 6801
3b00 2f3b 5301 3b00 2f3b 6801 3b00 2f3b
5001 3b00 2f3b 7201 3b00 2d3b 5401 3b00
2f3b 7001 3b00 2f3b 5101 3b00 2f3b 6601
3b00 2f3b 5001 3b00 2f3b 6601 3b00 2f3b
5401 3b00 2f3b 6801 3b00 313b 4901 3b00
2f3b 6401 3b00 2f3b 4e01 3b00 2e3b 6401
3b00 2f3b 5001 3b00 303b 6601 3b00 2e3b
4c01 3b00 2e39 4a01 3900 313b 4301 3b00
2f39 5b01 3900 2f3b 5401 3b00 2f39 6b01
3900 2f3b 4c01 3b00 2e31 6401 3100 0037
7a01 3700 2f3b 5001 3b00 2f31 6801 3100
2f3b 4601 3b00 2f3b 6c01 3b00 2f3b 4901
3b00 2f3b 6801 3b00 2f3b 5301 3b00 2f3b
6801 3b00 2f3b 5001 3b00 2f3b 7201 3b00
2d3b 5401 3b00 2f3b 7001 3b00 2f3b 5101
3b00 2f3b 6601 3b00 2f3b 5001 3b00 2f3b
6601 3b00 2f3b 5401 3b00 2f3b 6801 3b00
313b 4901 3b00 2f3b 6401 3b00 2f3b 4e01
3b00 2e3b 6401 3b00 2f3b 5001 3b00 303b
6601 3b00 2e3b 4c01 3b00 2e3b 6e01 3b00
313b 4301 3b00 2f31 5801 3100 2f3b 5401
3b00 2f31 6601 3100 2f3b 4c01 3b00 2e39
7301 3900 303b 5001 3b00 2f3b 6801 3b00
2f3b 4601 3b00 2f3b 6c01 3b00 2f3b 4901
3b00 2f3b 6801 3b00 2f3b 5301 3b00 2f3b
6801 3b00 2f3b 5001 3b00 2f3b 7201 3b00
2d3b 5401 3b00 2f3b 7001 3b00 2f3b 5101
3b00 2f3b 6601 3b00 2f3b 5001 3b00 2f3b
6601 3b00 2f3b 5401 3b00 2f3b 6801 3b00
313b 4901 3b00 2f3b 6401 3b00 2f3b 4e01
3b00 2e3b 6401 3b00 2f3b 5001 3b00 303b
6601 3b00 2e3b 4c01 3b00 2e3b 6e01 3b00
313b 4301 3b00 2f3b 6a01 3b00 2f3b 5401
3b00 2f3b 6601 3b00 2f3b 4c01 3b00 2d39
6401 3900 313b 5001 3b00 2f3b 6801 3b00
2f3b 4601 3b00 2f3b 6c01 3b00 2f3b 4901
3b00 2f3b 6801 3b00 2f3b 5301 3b00 2f3b
6801 3b00 2f3b 5001 3b00 2f3b 7201 3b00
2d3b 5401 3b00 2f3b 7001 3b00 2f3b 5101
3b00 2f3b 6601 3b00 2f3b 5001 3b00 2f3b
6601 3b00 2f3b 5401 3b00 2f3b 6801 3b00
313b 4901 3b00 2f3b 6401 3b00 2f3b 4e01
3b00 2e3b 6401 3b00 2f3b 5001 3b00 3035
7101 3500 2e35 5001 3500 2e35 7301 3500
3135 5601 3500 2f35 7501 3500 2f35 5401
3500 2f35 7d01 3500 2f3b 6d01 3b00 2d39
7301 3900 313b 5001 3b00 2f3b 6801 3b00
06b9 0b7e 180b 7d11 993b 4601 3b00 06b9
0b7c 180b 7b11 993b 6c01 3b00 06b9 0b7a
180b 7911 993b 4901 3b00 06b9 0b78 180b
7711 993b 6801 3b00 06b9 0b76 180b 7511
993b 5301 3b00 06b9 0b74 180b 7311 993b
6801 3b00 06b9 0b72 180b 7110 0b70 0199
3b50 013b 0016 b90b 6f18 0b6e 0199 3b72
013b 0016 b90b 6d17 993b 5401 3b00 00b9
0b6c 180b 6b17 993b 7001 3b00 00b9 0b6a
180b 6917 993b 5101 3b00 00b9 0b68 180b
6717 993b 6601 3b00 00b9 0b66 180b 6517
993b 5001 3b00 00b9 0b64 180b 6310 0b62
0799 3b66 013b 0010 b90b 6118 0b60 0799
3b54 013b 0010 b90b 5f18 0b5e 0799 3b68
013b 0010 b90b 5d18 0b5c 0999 3b49 013b
000e b90b 5b18 0b5a 0999 3b64 013b 000e
b90b 5918 0b58 0999 3b4e 013b 000e b90b
5718 0b56 0899 3b64 013b 000f b90b 5510
0b54 1099 3b50 013b 0007 b90b 5318 0b52
1199 3b66 013b 0006 b90b 5118 0b50 1099
3b4c 013b 0007 b90b 4f18 0b4e 0f99 3b6e
013b 0008 b90b 4d18 0b4c 1199 3b43 013b
0006 b90b 4b18 0b4a 1199 3b6a 013b 0006
b90b 4918 0b48 1199 3b54 013b 0006 b90b
4710 0b46 180b 4501 993b 6601 3b00 16b9
0b44 180b 4301 993b 4c01 3b00 16b9 0b42
180b 4101 9939 6401 3900 16b9 0b40 180b
3f01 993b 5001 3b00 16b9 0b3e 180b 3d01
993b 6801 3b00 16b9 0b3c 180b 3b01 993b
4601 3b00 16b9 0b3a 180b 3901 993b 6c01
3b00 0eb9 0b38 180b 3709 993b 4901 3b00
0eb9 0b36 180b 3509 993b 6801 3b00 0eb9
0b34 180b 3309 993b 5301 3b00 0eb9 0b32
180b 3107 9939 6801 3900 10b9 0b30 180b
2f09 993b 5001 3b00 0eb9 0b2e 180b 2d09
993b 7201 3b00 0eb9 0b2c 180b 2b07 993b
5401 3b00 08b9 0b2a 180b 290f 993b 7001
3b00 08b9 0b28 180b 270f 993b 5101 3b00
08b9 0b26 180b 250f 993b 6601 3b00 08b9
0b24 180b 230f 993b 5001 3b00 08b9 0b22
180b 210f 9939 6601 3900 08b9 0b20 180b
1f0f 993b 5401 3b00 08b9 0b1e 180b 1d0f
993b 6801 3b00 00b9 0b1c 180b 1b18 0b1a
0199 3b49 013b 0016 b90b 1918 0b18 0199
3b64 013b 0016 b90b 1718 0b16 0199 3b4e
013b 0016 b90b 1518 993b 6400 b90b 1401
993b 0017 b90b 1318 993b 5000 b90b 1201
993b 0017 b90b 1118 0b10 0199 3b66 013b
0016 b90b 0f10 0b0e 0899 3b4c 013b 000f
b90b 0d18 0b0c 0799 3b6e 013b 0010 b90b
0b18 0b0a 0999 3b43 013b 000e b90b 0918
0b08 0999 394f 0139 000e b90b 0718 0b06
0999 3b6d 013b 000e b90b 0518 0b04 0999
3966 0139 000e b90b 0318 0b02 0999 3b67
013b 000e b90b 0110 0b00 00ff 2f00 4d54
726b 0000 3af3 00ff 2101 0000 ff03 0843
796d 6261 6c65 7300 c900 00b9 076e 00b9
0a40 00b9 7900 010b 7f01 5b3c 015d 0082
7d99 2c7f 012c 0016 2c4f 012c 0017 2c48
012c 0017 2c3a 012c 0019 2c7f 012c 0016
2c41 012c 0018 2c3d 012c 0017 2c34 012c
0017 2c7f 012c 0017 2c44 012c 0017 2c3a
012c 0017 2c35 012c 0017 2c7f 012c 0017
2c42 012c 0017 2c39 012c 0017 2c31 012c
0016 2c7f 012c 0016 2c4f 012c 0017 2c48
012c 0017 2c3a 012c 0019 2c7f 012c 0016
2c41 012c 0018 2c3d 012c 0017 2c34 012c
0017 2c7f 012c 0017 2c44 012c 0017 2c3a
012c 0017 2c35 012c 0017 2c7f 012c 0017
2c42 012c 0017 2c39 012c 0017 2c31 012c
0016 2c7f 012c 0016 2c4f 012c 0017 2c48
012c 0017 2c3a 012c 0019 2c7f 012c 0016
2c41 012c 0018 2c3d 012c 0017 2c34 012c
0017 2c7f 012c 0017 2c44 012c 0017 2c3a
012c 0017 2c35 012c 0017 2c7f 012c 0017
2c42 012c 0017 2c39 012c 0017 2c31 012c
0016 2c7f 012c 0016 2c4f 012c 0017 2c48
012c 0017 2c3a 012c 0019 2c7f 012c 0016
2c41 012c 0018 2c3d 012c 0017 2c34 012c
0017 2c7f 012c 0017 2c44 012c 0017 2c3a
012c 0017 2c35 012c 0017 2c7f 012c 0017
2c42 012c 0017 2c39 012c 0017 2c31 012c
0016 2c7f 012c 0016 2c4f 012c 0017 2c48
012c 0017 2c3a 012c 0019 2c7f 012c 0016
2c41 012c 0018 2c3d 012c 0017 2c34 012c
0017 2c7f 012c 0017 2c44 012c 0017 2c3a
012c 0017 2c35 012c 0017 2c7f 012c 0017
2c42 012c 0017 2c39 012c 0017 2c31 012c
0016 2c7f 012c 0016 2c4f 012c 0017 2c48
012c 0017 2c3a 012c 0019 2c7f 012c 0016
2c41 012c 0018 2c3d 012c 0017 2c34 012c
0017 2c7f 012c 0017 2c44 012c 0017 2c3a
012c 0017 2c35 012c 0017 2c7f 012c 0017
2c42 012c 0017 2c39 012c 0017 2c31 012c
0016 2c7f 012c 0016 2c4f 012c 0017 2c48
012c 0017 2c3a 012c 0019 2c7f 012c 0016
2c41 012c 0018 2c3d 012c 0017 2c34 012c
0017 2c7f 012c 0017 2c44 012c 0017 2c3a
012c 0017 2c35 012c 0017 2c7f 012c 0017
2c42 012c 0017 2c39 012c 0017 2c31 012c
0016 2c7f 012c 0016 2c4f 012c 0017 2c48
012c 0017 2c3a 012c 0019 2c7f 012c 0016
2c41 012c 0018 2c3d 012c 0017 2c34 012c
0017 2c7f 012c 0017 2c44 012c 0017 2c3a
012c 0017 2c35 012c 0017 2c7f 012c 0017
2c42 012c 0017 2c39 012c 0017 2c31 012c
0016 2c7f 012c 0016 2c4f 012c 0017 2c48
012c 0017 2c3a 012c 0019 2c7f 012c 0016
2c41 012c 0018 2c3d 012c 0017 2c34 012c
0017 2c7f 012c 0017 2c44 012c 0017 2c3a
012c 0017 2c35 012c 0017 2c7f 012c 0017
2c42 012c 0017 2c39 012c 0017 2c31 012c
0016 2c7f 012c 0016 2c4f 012c 0017 2c48
012c 0017 2c3a 012c 0019 2c7f 012c 0016
2c41 012c 0018 2c3d 012c 0017 2c34 012c
0017 2c7f 012c 0017 2c44 012c 0017 2c3a
012c 0017 2c35 012c 0017 2c7f 012c 0017
2c42 012c 0017 2c39 012c 0017 2c31 012c
0016 2c7f 012c 0016 2c4f 012c 0017 2c48
012c 0017 2c3a 012c 0019 2c7f 012c 0016
2c41 012c 0018 2c3d 012c 0017 2c34 012c
0017 2c7f 012c 0017 2c44 012c 0017 2c3a
012c 0017 2c35 012c 0017 2c7f 012c 0017
2c42 012c 0017 2c39 012c 0017 2c31 012c
0016 2c7f 012c 0016 2c4f 012c 0017 2c48
012c 0017 2c3a 012c 0019 2c7f 012c 0016
2c41 012c 0018 2c3d 012c 0017 2c34 012c
0017 2c7f 012c 0017 2c44 012c 0017 2c3a
012c 0017 2c35 012c 0017 2c7f 012c 0017
2c42 012c 0017 2c39 012c 0017 2c31 012c
0016 2c7f 012c 0016 2c4f 012c 0017 2c48
012c 0017 2c3a 012c 0019 2c7f 012c 0016
2c41 012c 0018 2c3d 012c 0017 2c34 012c
0017 2c7f 012c 0017 2c44 012c 0017 2c3a
012c 0017 2c35 012c 0017 2c7f 012c 0017
2c42 012c 0017 2c39 012c 0017 2c31 012c
0016 2c7f 012c 0016 2c4f 012c 0017 2c48
012c 0017 2c3a 012c 0019 2c7f 012c 0016
2c41 012c 0018 2c3d 012c 0017 2c34 012c
0017 2c7f 012c 0017 2c44 012c 0017 2c3a
012c 0017 2c35 012c 0017 2c7f 012c 0017
2c42 012c 0017 2c39 012c 0017 2c31 012c
0016 2c7f 012c 0016 2c4f 012c 0017 2c48
012c 0017 2c3a 012c 0019 2c7f 012c 0016
2c41 012c 0018 2c3d 012c 0017 2c34 012c
0017 2c7f 012c 0017 2c44 012c 0017 2c3a
012c 0017 2c35 012c 0017 2c7f 012c 0017
2c42 012c 0017 2c39 012c 0017 2c31 012c
0016 2c7f 012c 0016 2c4f 012c 0017 2c48
012c 0017 2c3a 012c 0019 2c7f 012c 0016
2c41 012c 0018 2c3d 012c 0017 2c34 012c
0017 2c7f 012c 0017 2c44 012c 0017 2c3a
012c 0017 2c35 012c 0017 2c7f 012c 0017
2c42 012c 0017 2c39 012c 0017 2c31 012c
0016 2c7f 012c 0016 2c4f 012c 0017 2c48
012c 0017 2c3a 012c 0019 2c7f 012c 0016
2c41 012c 0018 2c3d 012c 0017 2c34 012c
0017 2c7f 012c 0017 2c44 012c 0017 2c3a
012c 0017 2c35 012c 0017 2c7f 012c 0017
2c42 012c 0017 2c39 012c 0017 2c31 012c
0016 2c7f 012c 0016 2c4f 012c 0017 2c48
012c 0017 2c3a 012c 0019 2c7f 012c 0016
2c41 012c 0018 2c3d 012c 0017 2c34 012c
0017 2c7f 012c 0017 2c44 012c 0017 2c3a
012c 0017 2c35 012c 0017 2c7f 012c 0017
2c42 012c 0017 2c39 012c 0017 2c31 012c
0016 2c7f 012c 0016 2c4f 012c 0017 2c48
012c 0017 2c3a 012c 0019 2c7f 012c 0016
2c41 012c 0018 2c3d 012c 0017 2c34 012c
0017 2c7f 012c 0017 2c44 012c 0017 2c3a
012c 0017 2c35 012c 0017 2c7f 012c 0017
2c42 012c 0017 2c39 012c 0017 2c31 012c
0016 2c7f 012c 0016 2c4f 012c 0017 2c48
012c 0017 2c3a 012c 0019 2c7f 012c 0016
2c41 012c 0018 2c3d 012c 0017 2c34 012c
0017 2c7f 012c 0017 2c44 012c 0017 2c3a
012c 0017 2c35 012c 0017 2c7f 012c 0017
2c42 012c 0017 2c39 012c 0017 2c31 012c
0016 2c7f 012c 0016 2c4f 012c 0017 2c48
012c 0017 2c3a 012c 0019 2c7f 012c 0016
2c41 012c 0018 2c3d 012c 0017 2c34 012c
0017 2c7f 012c 0017 2c44 012c 0017 2c3a
012c 0017 2c35 012c 0017 2c7f 012c 0017
2c42 012c 0017 2c39 012c 0017 2c31 012c
0016 2c7f 012c 0016 2c4f 012c 0017 2c48
012c 0017 2c3a 012c 0019 2c7f 012c 0016
2c41 012c 0018 2c3d 012c 0017 2c34 012c
0017 2c7f 012c 0017 2c44 012c 0017 2c3a
012c 0017 2c35 012c 0017 2c7f 012c 0017
2c42 012c 0017 2c39 012c 0017 2c31 012c
0016 2c7f 012c 0016 2c4f 012c 0017 2c48
012c 0017 2c3a 012c 0019 2c7f 012c 0016
2c41 012c 0018 2c3d 012c 0017 2c34 012c
0017 2c7f 012c 0017 2c44 012c 0017 2c3a
012c 0017 2c35 012c 0017 2c7f 012c 0017
2c42 012c 0017 2c39 012c 0017 2c31 012c
0016 2c7f 012c 0016 2c4f 012c 0017 2c48
012c 0017 2c3a 012c 0019 2c7f 012c 0016
2c41 012c 0018 2c3d 012c 0017 2c34 012c
0017 2c7f 012c 0017 2c44 012c 0017 2c3a
012c 0017 2c35 012c 0017 2c7f 012c 0017
2c42 012c 0017 2c39 012c 0017 2c31 012c
0016 2c7f 012c 0016 2c4f 012c 0017 2c48
012c 0017 2c3a 012c 0019 2c7f 012c 0016
2c41 012c 0018 2c3d 012c 0017 2c34 012c
0017 2c7f 012c 0017 2c44 012c 0017 2c3a
012c 0017 2c35 012c 0017 2c7f 012c 0017
2c42 012c 0017 2c39 012c 0017 2c31 012c
0016 2c7f 012c 0016 2c4f 012c 0017 2c48
012c 0017 2c3a 012c 0019 2c7f 012c 0016
2c41 012c 0018 2c3d 012c 0017 2c34 012c
0017 2c7f 012c 0017 2c44 012c 0017 2c3a
012c 0017 2c35 012c 0017 2c7f 012c 0017
2c42 012c 0017 2c39 012c 0017 2c31 012c
0016 2c7f 012c 0016 2c4f 012c 0017 2c48
012c 0017 2c3a 012c 0019 2c7f 012c 0016
2c41 012c 0018 2c3d 012c 0017 2c34 012c
0017 2c7f 012c 0017 2c44 012c 0017 2c3a
012c 0017 2c35 012c 0017 2c7f 012c 0017
2c42 012c 0017 2c39 012c 0017 2c31 012c
0016 2c7f 012c 0016 2c4f 012c 0017 2c48
012c 0017 2c3a 012c 0019 2c7f 012c 0016
2c41 012c 0018 2c3d 012c 0017 2c34 012c
0017 2c7f 012c 0017 2c44 012c 0017 2c3a
012c 0017 2c35 012c 0017 2c7f 012c 0017
2c42 012c 0017 2c39 012c 0017 2c31 012c
0016 2c7f 012c 0016 2c4f 012c 0017 2c48
012c 0017 2c3a 012c 0019 2c7f 012c 0016
2c41 012c 0018 2c3d 012c 0017 2c34 012c
0017 2c7f 012c 0017 2c44 012c 0017 2c3a
012c 0017 2c35 012c 0017 2c7f 012c 0017
2c42 012c 0017 2c39 012c 0017 2c31 012c
0016 2c7f 012c 0016 2c4f 012c 0017 2c48
012c 0017 2c3a 012c 0019 2c7f 012c 0016
2c41 012c 0018 2c3d 012c 0017 2c34 012c
0017 2c7f 012c 0017 2c44 012c 0017 2c3a
012c 0017 2c35 012c 0017 2c7f 012c 0017
2c42 012c 0017 2c39 012c 0017 2c31 012c
0016 2c7f 012c 0016 2c4f 012c 0017 2c48
012c 0017 2c3a 012c 0019 2c7f 012c 0016
2c41 012c 0018 2c3d 012c 0017 2c34 012c
0017 2c7f 012c 0017 2c44 012c 0017 2c3a
012c 0017 2c35 012c 0017 2c7f 012c 0017
2c42 012c 0017 2c39 012c 0017 2c31 012c
0016 2c7f 012c 0016 2c4f 012c 0017 2c48
012c 0017 2c3a 012c 0019 2c7f 012c 0016
2c41 012c 0018 2c3d 012c 0017 2c34 012c
0017 2c7f 012c 0017 2c44 012c 0017 2c3a
012c 0017 2c35 012c 0017 2c7f 012c 0017
2c42 012c 0017 2c39 012c 0017 2c31 012c
0016 2c7f 012c 0016 2c4f 012c 0017 2c48
012c 0017 2c3a 012c 0019 2c7f 012c 0016
2c41 012c 0018 2c3d 012c 0017 2c34 012c
0017 2c7f 012c 0017 2c44 012c 0017 2c3a
012c 0017 2c35 012c 0017 2c7f 012c 0017
2c42 012c 0017 2c39 012c 0017 2c31 012c
0016 2c7f 012c 0016 2c4f 012c 0017 2c48
012c 0017 2c3a 012c 0019 2c7f 012c 0016
2c41 012c 0018 2c3d 012c 0017 2c34 012c
0017 2c7f 012c 0017 2c44 012c 0017 2c3a
012c 0017 2c35 012c 0017 2c7f 012c 0017
2c42 012c 0017 2c39 012c 0017 2c31 012c
0016 2c7f 012c 0016 2c4f 012c 0017 2c48
012c 0017 2c3a 012c 0019 2c7f 012c 0016
2c41 012c 0018 2c3d 012c 0017 2c34 012c
0017 2c7f 012c 0017 2c44 012c 0017 2c3a
012c 0017 2c35 012c 0017 2c7f 012c 0017
2c42 012c 0017 2c39 012c 0017 2c31 012c
0016 2c7f 012c 0016 2c4f 012c 0017 2c48
012c 0017 2c3a 012c 0019 2c7f 012c 0016
2c41 012c 0018 2c3d 012c 0017 2c34 012c
0017 2c7f 012c 0017 2c44 012c 0017 2c3a
012c 0017 2c35 012c 0017 2c7f 012c 0017
2c42 012c 0017 2c39 012c 0017 2c31 012c
0016 2c7f 012c 0016 2c4f 012c 0017 2c48
012c 0017 2c3a 012c 0019 2c7f 012c 0016
2c41 012c 0018 2c3d 012c 0017 2c34 012c
0017 2c7f 012c 0017 2c44 012c 0017 2c3a
012c 0017 2c35 012c 0017 2c7f 012c 0017
2c42 012c 0017 2c39 012c 0017 2c31 012c
0016 2c7f 012c 0016 2c4f 012c 0017 2c48
012c 0017 2c3a 012c 0019 2c7f 012c 0016
2c41 012c 0018 2c3d 012c 0017 2c34 012c
0017 2c7f 012c 0017 2c44 012c 0017 2c3a
012c 0017 2c35 012c 0017 2c7f 012c 0017
2c42 012c 0017 2c39 012c 0017 2c31 012c
0016 2c7f 012c 0016 2c4f 012c 0017 2c48
012c 0017 2c3a 012c 0019 2c7f 012c 0016
2c41 012c 0018 2c3d 012c 0017 2c34 012c
0017 2c7f 012c 0017 2c44 012c 0017 2c3a
012c 0017 2c35 012c 0017 2c7f 012c 0017
2c42 012c 0017 2c39 012c 0017 2c31 012c
0016 2c7f 012c 0016 2c4f 012c 0017 2c48
012c 0017 2c3a 012c 0019 2c7f 012c 0016
2c41 012c 0018 2c3d 012c 0017 2c34 012c
0017 2c7f 012c 0017 2c44 012c 0017 2c3a
012c 0017 2c35 012c 0017 2c7f 012c 0017
2c42 012c 0017 2c39 012c 0017 2c31 012c
0016 2c7f 012c 0016 2c4f 012c 0017 2c48
012c 0017 2c3a 012c 0019 2c7f 012c 0016
2c41 012c 0018 2c3d 012c 0017 2c34 012c
0017 2c7f 012c 0017 2c44 012c 0017 2c3a
012c 0017 2c35 012c 0017 2c7f 012c 0017
2c42 012c 0017 2c39 012c 0017 2c31 012c
0016 2c7f 012c 0016 2c4f 012c 0017 2c48
012c 0017 2c3a 012c 0019 2c7f 012c 0016
2c41 012c 0018 2c3d 012c 0017 2c34 012c
0017 2c7f 012c 0017 2c44 012c 0017 2c3a
012c 0017 2c35 012c 0017 2c7f 012c 0017
2c42 012c 0017 2c39 012c 0017 2c31 012c
0016 2c7f 012c 0016 2c4f 012c 0017 2c48
012c 0017 2c3a 012c 0019 2c7f 012c 0016
2c41 012c 0018 2c3d 012c 0017 2c34 012c
0017 2c7f 012c 0017 2c44 012c 0017 2c3a
012c 0017 2c35 012c 0017 2c7f 012c 0017
2c42 012c 0017 2c39 012c 0017 2c31 012c
0016 2c7f 012c 0016 2c4f 012c 0017 2c48
012c 0017 2c3a 012c 0019 2c7f 012c 0016
2c41 012c 0018 2c3d 012c 0017 2c34 012c
0017 2c7f 012c 0017 2c44 012c 0017 2c3a
012c 0017 2c35 012c 0017 2c7f 012c 0017
2c42 012c 0017 2c39 012c 0017 2c31 012c
0016 2c7f 012c 0016 2c4f 012c 0017 2c48
012c 0017 2c3a 012c 0019 2c7f 012c 0016
2c41 012c 0018 2c3d 012c 0017 2c34 012c
0017 2c7f 012c 0017 2c44 012c 0017 2c3a
012c 0017 2c35 012c 0017 2c7f 012c 0017
2c42 012c 0017 2c39 012c 0017 2c31 012c
0016 2c7f 012c 0016 2c4f 012c 0017 2c48
012c 0017 2c3a 012c 0019 2c7f 012c 0016
2c41 012c 0018 2c3d 012c 0017 2c34 012c
0017 2c7f 012c 0017 2c44 012c 0017 2c3a
012c 0017 2c35 012c 0017 2c7f 012c 0017
2c42 012c 0017 2c39 012c 0017 2c31 012c
0016 2c7f 012c 0016 2c4f 012c 0017 2c48
012c 0017 2c3a 012c 0019 2c7f 012c 0016
2c41 012c 0018 2c3d 012c 0017 2c34 012c
0017 2c7f 012c 0017 2c44 012c 0017 2c3a
012c 0017 2c35 012c 0017 2c7f 012c 0017
2c42 012c 0017 2c39 012c 0017 2c31 012c
0016 2c7f 012c 0016 2c4f 012c 0017 2c48
012c 0017 2c3a 012c 0019 2c7f 012c 0016
2c41 012c 0018 2c3d 012c 0017 2c34 012c
0017 2c7f 012c 0017 2c44 012c 0017 2c3a
012c 0017 2c35 012c 0017 2c7f 012c 0017
2c42 012c 0017 2c39 012c 0017 2c31 012c
0016 2c7f 012c 0016 2c4f 012c 0017 2c48
012c 0017 2c3a 012c 0019 2c7f 012c 0016
2c41 012c 0018 2c3d 012c 0017 2c34 012c
0017 2c7f 012c 0017 2c44 012c 0017 2c3a
012c 0017 2c35 012c 0017 2c7f 012c 0017
2c42 012c 0017 2c39 012c 0017 2c31 012c
0016 2c7f 012c 0016 2c4f 012c 0017 2c48
012c 0017 2c3a 012c 0019 2c7f 012c 0016
2c41 012c 0018 2c3d 012c 0017 2c34 012c
0017 2c7f 012c 0017 2c44 012c 0017 2c3a
012c 0017 2c35 012c 0017 2c7f 012c 0017
2c42 012c 0017 2c39 012c 0017 2c31 012c
0016 2c7f 012c 0016 2c4f 012c 0017 2c48
012c 0017 2c3a 012c 0019 2c7f 012c 0016
2c41 012c 0018 2c3d 012c 0017 2c34 012c
0017 2c7f 012c 0017 2c44 012c 0017 2c3a
012c 0017 2c35 012c 0017 2c7f 012c 0017
2c42 012c 0017 2c39 012c 0017 2c31 012c
0016 2c7f 012c 0016 2c4f 012c 0017 2c48
012c 0017 2c3a 012c 0019 2c7f 012c 0016
2c41 012c 0018 2c3d 012c 0017 2c34 012c
0017 2c7f 012c 0017 2c44 012c 0017 2c3a
012c 0017 2c35 012c 0017 2c7f 012c 0017
2c42 012c 0017 2c39 012c 0017 2c31 012c
0016 2c7f 012c 0016 2c4f 012c 0017 2c48
012c 0017 2c3a 012c 0019 2c7f 012c 0016
2c41 012c 0018 2c3d 012c 0017 2c34 012c
0017 2c7f 012c 0017 2c44 012c 0017 2c3a
012c 0017 2c35 012c 0017 2c7f 012c 0017
2c42 012c 0017 2c39 012c 0017 2c31 012c
0016 2c7f 012c 0016 2c4f 012c 0017 2c48
012c 0017 2c3a 012c 0019 2c7f 012c 0016
2c41 012c 0018 2c3d 012c 0017 2c34 012c
0017 2c7f 012c 0017 2c44 012c 0017 2c3a
012c 0017 2c35 012c 0017 2c7f 012c 0017
2c42 012c 0017 2c39 012c 0017 2c31 012c
0016 2c7f 012c 0016 2c4f 012c 0017 2c48
012c 0017 2c3a 012c 0019 2c7f 012c 0016
2c41 012c 0018 2c3d 012c 0017 2c34 012c
0017 2c7f 012c 0017 2c44 012c 0017 2c3a
012c 0017 2c35 012c 0017 2c7f 012c 0017
2c42 012c 0017 2c39 012c 0017 2c31 012c
0016 2c7f 012c 0016 2c4f 012c 0017 2c48
012c 0017 2c3a 012c 0019 2c7f 012c 0016
2c41 012c 0018 2c3d 012c 0017 2c34 012c
0017 2c7f 012c 0017 2c44 012c 0017 2c3a
012c 0017 2c35 012c 0017 2c7f 012c 0017
2c42 012c 0017 2c39 012c 0017 2c31 012c
0016 2c7f 012c 0016 2c4f 012c 0017 2c48
012c 0017 2c3a 012c 0019 2c7f 012c 0016
2c41 012c 0018 2c3d 012c 0017 2c34 012c
0017 2c7f 012c 0017 2c44 012c 0017 2c3a
012c 0017 2c35 012c 0017 2c7f 012c 0017
2c42 012c 0017 2c39 012c 0017 2c31 012c
0016 2c7f 012c 0016 2c4f 012c 0017 2c48
012c 0017 2c3a 012c 0019 2c7f 012c 0016
2c41 012c 0018 2c3d 012c 0017 2c34 012c
0017 2c7f 012c 0017 2c44 012c 0017 2c3a
012c 0017 2c35 012c 0017 2c7f 012c 0017
2c42 012c 0017 2c39 012c 0017 2c31 012c
0016 2c7f 012c 0016 2c4f 012c 0017 2c48
012c 0017 2c3a 012c 0019 2c7f 012c 0016
2c41 012c 0018 2c3d 012c 0017 2c34 012c
0017 2c7f 012c 0017 2c44 012c 0017 2c3a
012c 0017 2c35 012c 0017 2c7f 012c 0017
2c42 012c 0017 2c39 012c 0017 2c31 012c
0016 2c7f 012c 0016 2c4f 012c 0017 2c48
012c 0017 2c3a 012c 0019 2c7f 012c 0016
2c41 012c 0018 2c3d 012c 0017 2c34 012c
0017 2c7f 012c 0017 2c44 012c 0017 2c3a
012c 0017 2c35 012c 0017 2c7f 012c 0017
2c42 012c 0017 2c39 012c 0017 2c31 012c
0016 2c7f 012c 0016 2c4f 012c 0017 2c48
012c 0017 2c3a 012c 0019 2c7f 012c 0016
2c41 012c 0018 2c3d 012c 0017 2c34 012c
0017 2c7f 012c 0017 2c44 012c 0017 2c3a
012c 0017 2c35 012c 0017 2c7f 012c 0017
2c42 012c 0017 2c39 012c 0017 2c31 012c
0016 2c7f 012c 0016 2c4f 012c 0017 2c48
012c 0017 2c3a 012c 0019 2c7f 012c 0016
2c41 012c 0018 2c3d 012c 0017 2c34 012c
0017 2c7f 012c 0017 2c44 012c 0017 2c3a
012c 0017 2c35 012c 0017 2c7f 012c 0017
2c42 012c 0017 2c39 012c 0017 2c31 012c
0016 2c7f 012c 0016 2c4f 012c 0017 2c48
012c 0017 2c3a 012c 0019 2c7f 012c 0016
2c41 012c 0018 2c3d 012c 0017 2c34 012c
0017 2c7f 012c 0017 2c44 012c 0017 2c3a
012c 0017 2c35 012c 0017 2c7f 012c 0017
2c42 012c 0017 2c39 012c 0017 2c31 012c
0016 2c7f 012c 0016 2c4f 012c 0017 2c48
012c 0017 2c3a 012c 0019 2c7f 012c 0016
2c41 012c 0018 2c3d 012c 0017 2c34 012c
0017 2c7f 012c 0017 2c44 012c 0017 2c3a
012c 0017 2c35 012c 0017 2c7f 012c 0017
2c42 012c 0017 2c39 012c 0017 2c31 012c
0016 377f 0137 00ab 402c 7f01 2c00 172c
5b01 2c00 172c 4701 2c00 172c 3501 2c00
172c 3401 2c00 172c 2a01 2c00 172c 2601
2c00 172c 2201 2c00 8157 2c7f 012c 0017
2c5b 012c 0017 2c47 012c 0017 2c35 012c
0017 2c34 012c 0017 2c2a 012c 0017 2c26
012c 0017 2c22 012c 0081 572c 7f01 2c00
172c 5b01 2c00 172c 4701 2c00 172c 3501
2c00 172c 3401 2c00 172c 2a01 2c00 172c
2601 2c00 172c 2201 2c00 8157 2c7f 012c
0017 2c5b 012c 0017 2c47 012c 0017 2c35
012c 0017 2c34 012c 0017 2c2a 012c 0017
2c26 012c 0017 2c22 012c 0081 572c 7f01
2c00 172c 5b01 2c00 172c 4701 2c00 172c
3501 2c00 172c 3401 2c00 172c 2a01 2c00
172c 2601 2c00 172c 2201 2c00 8157 2c7f
012c 0017 2c5b 012c 0017 2c47 012c 0017
2c35 012c 0017 2c34 012c 0017 2c2a 012c
0017 2c26 012c 0017 2c22 012c 0081 572c
7f01 2c00 172c 5b01 2c00 172c 4701 2c00
172c 3501 2c00 172c 3401 2c00 172c 2a01
2c00 172c 2601 2c00 172c 2201 2c00 8157
2c7f 012c 0017 2c5b 012c 0017 2c47 012c
0017 2c35 012c 0017 2c34 012c 0017 2c2a
012c 0017 2c26 012c 0017 2c22 012c 0081
572c 7f01 2c00 172c 5b01 2c00 172c 4701
2c00 172c 3501 2c00 172c 3401 2c00 172c
2a01 2c00 172c 2601 2c00 172c 2201 2c00
8157 2c7f 012c 0017 2c5b 012c 0017 2c47
012c 0017 2c35 012c 0017 2c34 012c 0017
2c2a 012c 0017 2c26 012c 0017 2c22 012c
0081 572c 7f01 2c00 172c 5b01 2c00 172c
4701 2c00 172c 3501 2c00 172c 3401 2c00
172c 2a01 2c00 172c 2601 2c00 172c 2201
2c00 8157 2c7f 012c 0017 2c5b 012c 0017
2c47 012c 0017 2c35 012c 0017 2c34 012c
0017 2c2a 012c 0017 2c26 012c 0017 2c22
012c 0081 572c 7f01 2c00 172c 5b01 2c00
172c 4701 2c00 172c 3501 2c00 172c 3401
2c00 172c 2a01 2c00 172c 2601 2c00 172c
2201 2c00 8157 2c7f 012c 0017 2c5b 012c
0017 2c47 012c 0017 2c35 012c 0017 2c34
012c 0017 2c2a 012c 0017 2c26 012c 0017
2c22 012c 0081 572c 7f01 2c00 172c 5b01
2c00 172c 4701 2c00 172c 3501 2c00 172c
3401 2c00 172c 2a01 2c00 172c 2601 2c00
172c 2201 2c00 8157 2c7f 012c 0017 2c5b
012c 0017 2c47 012c 0017 2c35 012c 0017
2c34 012c 0017 2c2a 012c 0017 2c26 012c
0017 2c22 012c 0081 572c 7f01 2c00 172c
5b01 2c00 172c 4701 2c00 172c 3501 2c00
172c 3401 2c00 172c 2a01 2c00 172c 2601
2c00 172c 2201 2c00 8157 2c7f 012c 0017
2c5b 012c 0017 2c47 012c 0017 2c35 012c
0017 2c34 012c 0017 2c2a 012c 0017 2c26
012c 0017 2c22 012c 0081 572c 7f01 2c00
172c 5b01 2c00 172c 4701 2c00 172c 3501
2c00 172c 3401 2c00 172c 2a01 2c00 172c
2601 2c00 172c 2201 2c00 8157 2c7f 012c
0017 2c5b 012c 0017 2c47 012c 0017 2c35
012c 0017 2c34 012c 0017 2c2a 012c 0017
2c26 012c 0017 2c22 012c 0081 572c 7f01
2c00 172c 5b01 2c00 172c 4701 2c00 172c
3501 2c00 172c 3401 2c00 172c 2a01 2c00
172c 2601 2c00 172c 2201 2c00 8157 2c7f
012c 0017 2c5b 012c 0017 2c47 012c 0017
2c35 012c 0017 2c34 012c 0017 2c2a 012c
0017 2c26 012c 0017 2c22 012c 0081 572c
7f01 2c00 172c 5b01 2c00 172c 4701 2c00
172c 3501 2c00 172c 3401 2c00 172c 2a01
2c00 172c 2601 2c00 172c 2201 2c00 8157
2c7f 012c 0017 2c5b 012c 0017 2c47 012c
0017 2c35 012c 0017 2c34 012c 0017 2c2a
012c 0017 2c26 012c 0017 2c22 012c 0081
572c 7f01 2c00 172c 5b01 2c00 172c 4701
2c00 172c 3501 2c00 172c 3401 2c00 172c
2a01 2c00 172c 2601 2c00 172c 2201 2c00
8157 2c7f 012c 0017 2c5b 012c 0017 2c47
012c 0017 2c35 012c 0017 2c34 012c 0017
2c2a 012c 0017 2c26 012c 0017 2c22 012c
0081 572c 7f01 2c00 172c 5b01 2c00 172c
4701 2c00 172c 3501 2c00 172c 3401 2c00
172c 2a01 2c00 172c 2601 2c00 172c 2201
2c00 8157 2c7f 012c 0017 2c5b 012c 0017
2c47 012c 0017 2c35 012c 0017 2c34 012c
0017 2c2a 012c 0017 2c26 012c 0017 2c22
012c 0081 572c 7f01 2c00 172c 5b01 2c00
172c 4701 2c00 172c 3501 2c00 172c 3401
2c00 172c 2a01 2c00 172c 2601 2c00 172c
2201 2c00 8157 2c7f 012c 0017 2c5b 012c
0017 2c47 012c 0017 2c35 012c 0017 2c34
012c 0017 2c2a 012c 0017 2c26 012c 0017
2c22 012c 0081 572c 7f01 2c00 172c 5b01
2c00 172c 4701 2c00 172c 3501 2c00 172c
3401 2c00 172c 2a01 2c00 172c 2601 2c00
172c 2201 2c00 8157 2c7f 012c 0017 2c5b
012c 0017 2c47 012c 0017 2c35 012c 0017
2c34 012c 0017 2c2a 012c 0017 2c26 012c
0017 2c22 012c 0081 572c 7f01 2c00 172c
5b01 2c00 172c 4701 2c00 172c 3501 2c00
172c 3401 2c00 172c 2a01 2c00 172c 2601
2c00 172c 2201 2c00 8157 2c7f 012c 0017
2c5b 012c 0017 2c47 012c 0017 2c35 012c
0017 2c34 012c 0017 2c2a 012c 0017 2c26
012c 0017 2c22 012c 0081 572c 7f01 2c00
172c 5b01 2c00 172c 4701 2c00 172c 3501
2c00 172c 3401 2c00 172c 2a01 2c00 172c
2601 2c00 172c 2201 2c00 8157 2c7f 012c
0017 2c5b 012c 0017 2c47 012c 0017 2c35
012c 0017 2c34 012c 0017 2c2a 012c 0017
2c26 012c 0017 2c22 012c 0081 572c 7f01
2c00 172c 5b01 2c00 172c 4701 2c00 172c
3501 2c00 172c 3401 2c00 172c 2a01 2c00
172c 2601 2c00 172c 2201 2c00 8157 2c7f
012c 0017 2c5b 012c 0017 2c47 012c 0017
2c35 012c 0017 2c34 012c 0017 2c2a 012c
0017 2c26 012c 0017 2c22 012c 0081 572c
7f01 2c00 172c 5b01 2c00 172c 4701 2c00
172c 3501 2c00 172c 3401 2c00 172c 2a01
2c00 172c 2601 2c00 172c 2201 2c00 8157
2c7f 012c 0017 2c5b 012c 0017 2c47 012c
0017 2c35 012c 0017 2c34 012c 0017 2c2a
012c 0017 2c26 012c 0017 2c22 012c 0081
572c 7f01 2c00 172c 5b01 2c00 172c 4701
2c00 172c 3501 2c00 172c 3401 2c00 172c
2a01 2c00 172c 2601 2c00 172c 2201 2c00
8157 2c7f 012c 0017 2c5b 012c 0017 2c47
012c 0017 2c35 012c 0017 2c34 012c 0017
2c2a 012c 0017 2c26 012c 0017 2c22 012c
0081 572c 7f01 2c00 172c 5b01 2c00 172c
4701 2c00 172c 3501 2c00 172c 3401 2c00
172c 2a01 2c00 172c 2601 2c00 172c 2201
2c00 8157 2c7f 012c 0017 2c5b 012c 0017
2c47 012c 0017 2c35 012c 0017 2c34 012c
0017 2c2a 012c 0017 2c26 012c 0017 2c22
012c 0016 2c7f 012c 0016 2c4f 012c 0017
2c48 012c 0017 2c3a 012c 0019 2c7f 012c
0016 2c41 012c 0018 2c3d 012c 0017 2c34
012c 0017 2c7f 012c 0017 2c44 012c 0017
2c3a 012c 0017 2c35 012c 0017 2c7f 012c
0017 2c42 012c 0017 2c39 012c 0017 2c31
012c 0016 2c7f 012c 0016 2c4f 012c 0017
2c48 012c 0017 2c3a 012c 0019 2c7f 012c
0016 2c41 012c 0018 2c3d 012c 0017 2c34
012c 0017 2c7f 012c 0017 2c44 012c 0017
2c3a 012c 0017 2c35 012c 0017 2c7f 012c
0017 2c42 012c 0017 2c39 012c 0017 2c31
012c 0016 2c7f 012c 0016 2c4f 012c 0017
2c48 012c 0017 2c3a 012c 0019 2c7f 012c
0016 2c41 012c 0018 2c3d 012c 0017 2c34
012c 0017 2c7f 012c 0017 2c44 012c 0017
2c3a 012c 0017 2c35 012c 0017 2c7f 012c
0017 2c42 012c 0017 2c39 012c 0017 2c31
012c 0016 2c7f 012c 0016 2c4f 012c 0017
2c48 012c 0017 2c3a 012c 0019 2c7f 012c
0016 2c41 012c 0018 2c3d 012c 0017 2c34
012c 0017 2c7f 012c 0017 2c44 012c 0017
2c3a 012c 0017 2c35 012c 0017 2c7f 012c
0017 2c42 012c 0017 2c39 012c 0017 2c31
012c 0016 2c7f 012c 0016 2c4f 012c 0017
2c48 012c 0017 2c3a 012c 0019 2c7f 012c
0016 2c41 012c 0018 2c3d 012c 0017 2c34
012c 0017 2c7f 012c 0017 2c44 012c 0017
2c3a 012c 0017 2c35 012c 0017 2c7f 012c
0017 2c42 012c 0017 2c39 012c 0017 2c31
012c 0016 2c7f 012c 0016 2c4f 012c 0017
2c48 012c 0017 2c3a 012c 0019 2c7f 012c
0016 2c41 012c 0018 2c3d 012c 0017 2c34
012c 0017 2c7f 012c 0017 2c44 012c 0017
2c3a 012c 0017 2c35 012c 0017 2c7f 012c
0017 2c42 012c 0017 2c39 012c 0017 2c31
012c 0016 2c7f 012c 0016 2c4f 012c 0017
2c48 012c 0017 2c3a 012c 0019 2c7f 012c
0016 2c41 012c 0018 2c3d 012c 0017 2c34
012c 0017 2c7f 012c 0017 2c44 012c 0017
2c3a 012c 0017 2c35 012c 0017 2c7f 012c
0017 2c42 012c 0017 2c39 012c 0017 2c31
012c 0016 2c7f 012c 0016 2c4f 012c 0017
2c48 012c 0017 2c3a 012c 0019 2c7f 012c
0016 2c41 012c 0018 2c3d 012c 0017 2c34
012c 0017 2c7f 012c 0017 2c44 012c 0017
2c3a 012c 0017 2c35 012c 0017 2c7f 012c
0017 2c42 012c 0017 2c39 012c 0017 2c31
012c 0016 2c7f 012c 0016 2c4f 012c 0017
2c48 012c 0017 2c3a 012c 0019 2c7f 012c
0016 2c41 012c 0018 2c3d 012c 0017 2c34
012c 0017 2c7f 012c 0017 2c44 012c 0017
2c3a 012c 0017 2c35 012c 0017 2c7f 012c
0017 2c42 012c 0017 2c39 012c 0017 2c31
012c 0016 2c7f 012c 0016 2c4f 012c 0017
2c48 012c 0017 2c3a 012c 0019 2c7f 012c
0016 2c41 012c 0018 2c3d 012c 0017 2c34
012c 0017 2c7f 012c 0017 2c44 012c 0017
2c3a 012c 0017 2c35 012c 0017 2c7f 012c
0017 2c42 012c 0017 2c39 012c 0017 2c31
012c 0016 2c7f 012c 0016 2c4f 012c 0017
2c48 012c 0017 2c3a 012c 0019 2c7f 012c
0016 2c41 012c 0018 2c3d 012c 0017 2c34
012c 0017 2c7f 012c 0017 2c44 012c 0017
2c3a 012c 0017 2c35 012c 0017 2c7f 012c
0017 2c42 012c 0017 2c39 012c 0017 2c31
012c 0016 2c7f 012c 0016 2c4f 012c 0017
2c48 012c 0017 2c3a 012c 0019 2c7f 012c
0016 2c41 012c 0018 2c3d 012c 0017 2c34
012c 0017 2c7f 012c 0017 2c44 012c 0017
2c3a 012c 0017 2c35 012c 0017 2c7f 012c
0017 2c42 012c 0017 2c39 012c 0017 2c31
012c 0016 2c7f 012c 0016 2c4f 012c 0017
2c48 012c 0017 2c3a 012c 0019 2c7f 012c
0016 2c41 012c 0018 2c3d 012c 0017 2c34
012c 0017 2c7f 012c 0017 2c44 012c 0017
2c3a 012c 0017 2c35 012c 0017 2c7f 012c
0017 2c42 012c 0017 2c39 012c 0017 2c31
012c 0016 2c7f 012c 0016 2c4f 012c 0017
2c48 012c 0017 2c3a 012c 0019 2c7f 012c
0016 2c41 012c 0018 2c3d 012c 0017 2c34
012c 0017 2c7f 012c 0017 2c44 012c 0017
2c3a 012c 0017 2c35 012c 0017 2c7f 012c
0017 2c42 012c 0017 2c39 012c 0017 2c31
012c 0015 317f 0131 0000 2c7f 012c 0016
2c4f 012c 0017 2c48 012c 0017 2c3a 012c
0019 2c7f 012c 0016 2c41 012c 0018 2c3d
012c 0017 2c34 012c 0017 2c7f 012c 0017
2c44 012c 0017 2c3a 012c 0017 2c35 012c
0017 2c7f 012c 0017 2c42 012c 0017 2c39
012c 0017 2c31 012c 0016 2c7f 012c 0016
2c4f 012c 0017 2c48 012c 0017 2c3a 012c
0019 2c7f 012c 0016 2c41 012c 0018 2c3d
012c 0017 2c34 012c 0017 2c7f 012c 0017
2c44 012c 0017 2c3a 012c 0017 2c35 012c
0017 2c7f 012c 0017 2c42 012c 0017 2c39
012c 0017 2c31 012c 0016 2c7f 012c 0016
2c4f 012c 0017 2c48 012c 0017 2c3a 012c
0019 2c7f 012c 0016 2c41 012c 0018 2c3d
012c 0017 2c34 012c 0017 2c7f 012c 0017
2c44 012c 0017 2c3a 012c 0017 2c35 012c
0017 2c7f 012c 0017 2c42 012c 0017 2c39
012c 0017 2c31 012c 0016 2c7f 012c 0016
2c4f 012c 0017 2c48 012c 0017 2c3a 012c
0019 2c7f 012c 0016 2c41 012c 0018 2c3d
012c 0017 2c34 012c 0017 2c7f 012c 0017
2c44 012c 0017 2c3a 012c 0017 2c35 012c
0017 2c7f 012c 0017 2c42 012c 0017 2c39
012c 0017 2c31 012c 0016 2c7f 012c 0016
2c4f 012c 0017 2c48 012c 0017 2c3a 012c
0019 2c7f 012c 0016 2c41 012c 0018 2c3d
012c 0017 2c34 012c 0017 2c7f 012c 0017
2c44 012c 0017 2c3a 012c 0017 2c35 012c
0017 2c7f 012c 0017 2c42 012c 0017 2c39
012c 0017 2c31 012c 0016 2c7f 012c 0016
2c4f 012c 0017 2c48 012c 0017 2c3a 012c
0019 2c7f 012c 0016 2c41 012c 0018 2c3d
012c 0017 2c34 012c 0017 2c7f 012c 0017
2c44 012c 0017 2c3a 012c 0017 2c35 012c
0017 2c7f 012c 0017 2c42 012c 0017 2c39
012c 0017 2c31 012c 0016 2c7f 012c 0016
2c4f 012c 0017 2c48 012c 0017 2c3a 012c
0019 2c7f 012c 0016 2c41 012c 0018 2c3d
012c 0017 2c34 012c 0017 2c7f 012c 0017
2c44 012c 0017 2c3a 012c 0017 2c35 012c
0017 2c7f 012c 0017 2c42 012c 0017 2c39
012c 0017 2c31 012c 0016 2c7f 012c 0016
2c4f 012c 0017 2c48 012c 0017 2c3a 012c
0019 2c7f 012c 0016 2c41 012c 0018 2c3d
012c 0017 2c34 012c 0017 2c7f 012c 0017
2c44 012c 0017 2c3a 012c 0017 2c35 012c
0017 2c7f 012c 0017 2c42 012c 0017 2c39
012c 0017 2c31 012c 0016 316e 002c 7f01
2c00 0031 0016 2c4f 012c 0017 2c48 012c
0017 2c3a 012c 0019 2c7f 012c 0016 2c41
012c 0018 2c3d 012c 0017 2c34 012c 0017
2c7f 012c 0017 2c44 012c 0017 2c3a 012c
0017 2c35 012c 0017 2c7f 012c 0017 2c42
012c 0017 2c39 012c 0017 2c31 012c 0016
2c7f 012c 0016 2c4f 012c 0017 2c48 012c
0017 2c3a 012c 0019 2c7f 012c 0016 2c41
012c 0018 2c3d 012c 0017 2c34 012c 0017
2c7f 012c 0017 2c44 012c 0017 2c3a 012c
0017 2c35 012c 0017 2c7f 012c 0017 2c42
012c 0017 2c39 012c 0017 2c31 012c 0016
2c7f 012c 0016 2c4f 012c 0017 2c48 012c
0017 2c3a 012c 0019 2c7f 012c 0016 2c41
012c 0018 2c3d 012c 0017 2c34 012c 0017
2c7f 012c 0017 2c44 012c 0017 2c3a 012c
0017 2c35 012c 0017 2c7f 012c 0017 2c42
012c 0017 2c39 012c 0017 2c31 012c 0016
2c7f 012c 0016 2c4f 012c 0017 2c48 012c
0017 2c3a 012c 0019 2c7f 012c 0016 2c41
012c 0018 2c3d 012c 0017 2c34 012c 0017
2c7f 012c 0017 2c44 012c 0017 2c3a 012c
0017 2c35 012c 0017 2c7f 012c 0017 2c42
012c 0017 2c39 012c 0017 2c31 012c 0016
2c7f 012c 0016 2c4f 012c 0017 2c48 012c
0017 2c3a 012c 0019 2c7f 012c 0016 2c41
012c 0018 2c3d 012c 0017 2c34 012c 0017
2c7f 012c 0017 2c44 012c 0017 2c3a 012c
0017 2c35 012c 0017 2c7f 012c 0017 2c42
012c 0017 2c39 012c 0017 2c31 012c 0016
2c7f 012c 0016 2c4f 012c 0017 2c48 012c
0017 2c3a 012c 0019 2c7f 012c 0016 2c41
012c 0018 2c3d 012c 0017 2c34 012c 0017
2c7f 012c 0017 2c44 012c 0017 2c3a 012c
0017 2c35 012c 0017 2c7f 012c 0017 2c42
012c 0017 2c39 012c 0017 2c31 012c 0016
3171 002c 7f01 2c00 0031 0016 2c4f 012c
0017 2c48 012c 0017 2c3a 012c 0019 2c7f
012c 0016 2c41 012c 0018 2c3d 012c 0017
2c34 012c 0017 2c7f 012c 0017 2c44 012c
0017 2c3a 012c 0017 2c35 012c 0017 2c7f
012c 0017 2c42 012c 0017 2c39 012c 0017
2c31 012c 0016 2c7f 012c 0016 2c4f 012c
0017 2c48 012c 0017 2c3a 012c 0019 2c7f
012c 0016 2c41 012c 0018 2c3d 012c 0017
2c34 012c 0017 2c7f 012c 0017 2c44 012c
0017 2c3a 012c 0017 2c35 012c 0017 2c7f
012c 0017 2c42 012c 0017 2c39 012c 0017
2c31 012c 0016 2c7f 012c 0016 2c4f 012c
0017 2c48 012c 0017 2c3a 012c 0019 2c7f
012c 0016 2c41 012c 0018 2c3d 012c 0017
2c34 012c 0017 2c7f 012c 0017 2c44 012c
0017 2c3a 012c 0017 2c35 012c 0017 2c7f
012c 0017 2c42 012c 0017 2c39 012c 0017
2c31 012c 0016 2c7f 012c 0016 2c4f 012c
0017 2c48 012c 0017 2c3a 012c 0019 2c7f
012c 0016 2c41 012c 0018 2c3d 012c 0017
2c34 012c 0017 2c7f 012c 0017 2c44 012c
0017 2c3a 012c 0017 2c35 012c 0017 2c7f
012c 0017 2c42 012c 0017 2c39 012c 0017
2c31 012c 0015 2c7f 012c 0017 2c4f 012c
0017 2c48 012c 0017 2c3a 012c 0019 2c7f
012c 0016 2c41 012c 0018 2c3d 012c 0017
2c34 012c 0016 2c7f 012c 0018 2c44 012c
0017 2c3a 012c 0017 2c35 012c 0016 2c7f
012c 0018 2c42 012c 0016 2c39 012c 0018
2c31 012c 0016 2c7f 012c 0016 2c4f 012c
0017 2c48 012c 0017 2c3a 012c 0019 2c7f
012c 0016 2c41 012c 0018 2c3d 012c 0017
2c34 012c 0017 2c7f 012c 0017 2c44 012c
0017 2c3a 012c 0017 2c35 012c 0017 2c7f
012c 0017 2c42 012c 0017 2c39 012c 0017
2c31 012c 0016 2c7f 012c 0016 2c4f 012c
0017 2c48 012c 0017 2c3a 012c 0019 2c7f
012c 0016 2c41 012c 0018 2c3d 012c 0017
2c34 012c 0017 2c7f 012c 0017 2c44 012c
0017 2c3a 012c 0017 2c35 012c 0017 2c7f
012c 0017 2c42 012c 0017 2c39 012c 0017
2c31 012c 0016 2c7f 012c 0016 2c4f 012c
0017 2c48 012c 0017 2c3a 012c 0019 2c7f
012c 0016 2c41 012c 0018 2c3d 012c 0017
2c34 012c 0017 2c7f 012c 0017 2c44 012c
0017 2c3a 012c 0017 2c35 012c 0017 2c7f
012c 0017 2c42 012c 0017 2c39 012c 0017
2c31 012c 0016 2c7f 012c 0016 2c4f 012c
0017 2c48 012c 0017 2c3a 012c 0019 2c7f
012c 0016 2c41 012c 0018 2c3d 012c 0017
2c34 012c 0017 2c7f 012c 0017 2c44 012c
0017 2c3a 012c 0017 2c35 012c 0017 2c7f
012c 0017 2c42 012c 0017 2c39 012c 0017
2c31 012c 0016 2c7f 012c 0016 2c4f 012c
0017 2c48 012c 0017 2c3a 012c 0019 2c7f
012c 0016 2c41 012c 0018 2c3d 012c 0017
2c34 012c 0017 2c7f 012c 0017 2c44 012c
0017 2c3a 012c 0017 2c35 012c 0017 2c7f
012c 0017 2c42 012c 0017 2c39 012c 0017
2c31 012c 0016 2c7f 012c 0016 2c4f 012c
0017 2c48 012c 0017 2c3a 012c 0019 2c7f
012c 0016 2c41 012c 0018 2c3d 012c 0017
2c34 012c 0017 2c7f 012c 0017 2c44 012c
0017 2c3a 012c 0017 2c35 012c 0017 2c7f
012c 0017 2c42 012c 0017 2c39 012c 0017
2c31 012c 0016 2c7f 012c 0016 2c4f 012c
0017 2c48 012c 0017 2c3a 012c 0019 2c7f
012c 0016 2c41 012c 0018 2c3d 012c 0017
2c34 012c 0017 2c7f 012c 0017 2c44 012c
0017 2c3a 012c 0017 2c35 012c 0017 2c7f
012c 0017 2c42 012c 0017 2c39 012c 0017
2c31 012c 0016 2c7f 012c 0016 2c4f 012c
0017 2c48 012c 0017 2c3a 012c 0019 2c7f
012c 0016 2c41 012c 0018 2c3d 012c 0017
2c34 012c 0017 2c7f 012c 0017 2c44 012c
0017 2c3a 012c 0017 2c35 012c 0017 2c7f
012c 0017 2c42 012c 0017 2c39 012c 0017
2c31 012c 0016 2c7f 012c 0016 2c4f 012c
0017 2c48 012c 0017 2c3a 012c 0019 2c7f
012c 0016 2c41 012c 0018 2c3d 012c 0017
2c34 012c 0017 2c7f 012c 0017 2c44 012c
0017 2c3a 012c 0017 2c35 012c 0017 2c7f
012c 0017 2c42 012c 0017 2c39 012c 0017
2c31 012c 0016 2c7f 012c 0016 2c4f 012c
0017 2c48 012c 0017 2c3a 012c 0019 2c7f
012c 0016 2c41 012c 0018 2c3d 012c 0017
2c34 012c 0017 2c7f 012c 0017 2c44 012c
0017 2c3a 012c 0017 2c35 012c 0017 2c7f
012c 0017 2c42 012c 0017 2c39 012c 0017
2c31 012c 0016 2c7f 012c 0016 2c4f 012c
0017 2c48 012c 0017 2c3a 012c 0019 2c7f
012c 0016 2c41 012c 0018 2c3d 012c 0017
2c34 012c 0017 2c7f 012c 0017 2c44 012c
0017 2c3a 012c 0017 2c35 012c 0017 2c7f
012c 0017 2c42 012c 0017 2c39 012c 0017
2c31 012c 0016 2c7f 012c 0016 2c4f 012c
0017 2c48 012c 0017 2c3a 012c 0019 2c7f
012c 0016 2c41 012c 0018 2c3d 012c 0017
2c34 012c 0017 2c7f 012c 0017 2c44 012c
0017 2c3a 012c 0017 2c35 012c 0017 2c7f
012c 0017 2c42 012c 0017 2c39 012c 0017
2c31 012c 0016 2c7f 012c 0016 2c4f 012c
0017 2c48 012c 0017 2c3a 012c 0019 2c7f
012c 0016 2c41 012c 0018 2c3d 012c 0017
2c34 012c 0017 2c7f 012c 0017 2c44 012c
0017 2c3a 012c 0017 2c35 012c 0017 2c7f
012c 0017 2c42 012c 0017 2c39 012c 0017
2c31 012c 0016 2c7f 012c 0016 2c4f 012c
0017 2c48 012c 0017 2c3a 012c 0019 2c7f
012c 0016 2c41 012c 0018 2c3d 012c 0017
2c34 012c 0017 2c7f 012c 0017 2c44 012c
0017 2c3a 012c 0017 2c35 012c 0017 2c7f
012c 0017 2c42 012c 0017 2c39 012c 0017
2c31 012c 0016 2c7f 012c 0016 2c4f 012c
0017 2c48 012c 0017 2c3a 012c 0019 2c7f
012c 0016 2c41 012c 0018 2c3d 012c 0017
2c34 012c 0017 2c7f 012c 0017 2c44 012c
0017 2c3a 012c 0017 2c35 012c 0017 2c7f
012c 0017 2c42 012c 0017 2c39 012c 0017
2c31 012c 0016 2c7f 012c 0016 2c4f 012c
0017 2c48 012c 0017 2c3a 012c 0019 2c7f
012c 0016 2c41 012c 0018 2c3d 012c 0017
2c34 012c 0017 2c7f 012c 0017 2c44 012c
0017 2c3a 012c 0017 2c35 012c 0017 2c7f
012c 0017 2c42 012c 0017 2c39 012c 0017
2c31 012c 0016 2c7f 012c 0016 2c4f 012c
0017 2c48 012c 0017 2c3a 012c 0019 2c7f
012c 0016 2c41 012c 0018 2c3d 012c 0017
2c34 012c 0017 2c7f 012c 0017 2c44 012c
0017 2c3a 012c 0017 2c35 012c 0017 2c7f
012c 0017 2c42 012c 0017 2c39 012c 0017
2c31 012c 0016 2c7f 012c 0016 2c4f 012c
0017 2c48 012c 0017 2c3a 012c 0019 2c7f
012c 0016 2c41 012c 0018 2c3d 012c 0017
2c34 012c 0017 2c7f 012c 0017 2c44 012c
0017 2c3a 012c 0017 2c35 012c 0017 2c7f
012c 0017 2c42 012c 0017 2c39 012c 0017
2c31 012c 0016 2c7f 012c 0016 2c4f 012c
0017 2c48 012c 0017 2c3a 012c 0019 2c7f
012c 0016 2c41 012c 0018 2c3d 012c 0017
2c34 012c 0017 2c7f 012c 0017 2c44 012c
0017 2c3a 012c 0017 2c35 012c 0017 2c7f
012c 0017 2c42 012c 0017 2c39 012c 0017
2c31 012c 0016 2c7f 012c 0016 2c4f 012c
0017 2c48 012c 0017 2c3a 012c 0019 2c7f
012c 0016 2c41 012c 0018 2c3d 012c 0017
2c34 012c 0017 2c7f 012c 0017 2c44 012c
0017 2c3a 012c 0017 2c35 012c 0017 2c7f
012c 0017 2c42 012c 0017 2c39 012c 0017
2c31 012c 0016 2c7f 012c 0016 2c4f 012c
0017 2c48 012c 0017 2c3a 012c 0019 2c7f
012c 0016 2c41 012c 0018 2c3d 012c 0017
2c34 012c 0017 2c7f 012c 0017 2c44 012c
0017 2c3a 012c 0017 2c35 012c 0017 2c7f
012c 0017 2c42 012c 0017 2c39 012c 0017
2c31 012c 0016 2c7f 012c 0016 2c4f 012c
0017 2c48 012c 0017 2c3a 012c 0019 2c7f
012c 0016 2c41 012c 0018 2c3d 012c 0017
2c34 012c 0017 2c7f 012c 0017 2c44 012c
0017 2c3a 012c 0017 2c35 012c 0017 2c7f
012c 0017 2c42 012c 0017 2c39 012c 0017
2c31 012c 0016 2c7f 012c 0016 2c4f 012c
0017 2c48 012c 0017 2c3a 012c 0019 2c7f
012c 0016 2c41 012c 0018 2c3d 012c 0017
2c34 012c 0017 2c7f 012c 0017 2c44 012c
0017 2c3a 012c 0017 2c35 012c 0017 2c7f
012c 0017 2c42 012c 0017 2c39 012c 0017
2c31 012c 0016 2c7f 012c 0016 2c4f 012c
0017 2c48 012c 0017 2c3a 012c 0019 2c7f
012c 0016 2c41 012c 0018 2c3d 012c 0017
2c34 012c 0017 2c7f 012c 0017 2c44 012c
0017 2c3a 012c 0017 2c35 012c 0017 2c7f
012c 0017 2c42 012c 0017 2c39 012c 0017
2c31 012c 0016 2c7f 012c 0016 2c4f 012c
0017 2c48 012c 0017 2c3a 012c 0019 2c7f
012c 0016 2c41 012c 0018 2c3d 012c 0017
2c34 012c 0017 2c7f 012c 0017 2c44 012c
0017 2c3a 012c 0017 2c35 012c 0017 2c7f
012c 0017 2c42 012c 0017 2c39 012c 0017
2c31 012c 0016 2c7f 012c 0016 2c4f 012c
0017 2c48 012c 0017 2c3a 012c 0019 2c7f
012c 0016 2c41 012c 0018 2c3d 012c 0017
2c34 012c 0017 2c7f 012c 0017 2c44 012c
0017 2c3a 012c 0017 2c35 012c 0017 2c7f
012c 0017 2c42 012c 0017 2c39 012c 0017
2c31 012c 0016 2c7f 012c 0016 2c4f 012c
0017 2c48 012c 0017 2c3a 012c 0019 2c7f
012c 0016 2c41 012c 0018 2c3d 012c 0017
2c34 012c 0017 2c7f 012c 0017 2c44 012c
0017 2c3a 012c 0017 2c35 012c 0017 2c7f
012c 0017 2c42 012c 0017 2c39 012c 0017
2c31 012c 0016 2c7f 012c 0016 2c4f 012c
0017 2c48 012c 0017 2c3a 012c 0019 2c7f
012c 0016 2c41 012c 0018 2c3d 012c 0017
2c34 012c 0017 2c7f 012c 0017 2c44 012c
0017 2c3a 012c 0017 2c35 012c 0017 2c7f
012c 0017 2c42 012c 0017 2c39 012c 0017
2c31 012c 0016 2c7f 012c 0016 2c4f 012c
0017 2c48 012c 0017 2c3a 012c 0019 2c7f
012c 0016 2c41 012c 0018 2c3d 012c 0017
2c34 012c 0017 2c7f 012c 0017 2c44 012c
0017 2c3a 012c 0017 2c35 012c 0017 2c7f
012c 0017 2c42 012c 0017 2c39 012c 0017
2c31 012c 0016 2c7f 012c 0016 2c4f 012c
0017 2c48 012c 0017 2c3a 012c 0019 2c7f
012c 0016 2c41 012c 0018 2c3d 012c 0017
2c34 012c 0017 2c7f 012c 0017 2c44 012c
0017 2c3a 012c 0017 2c35 012c 0017 2c7f
012c 0017 2c42 012c 0017 2c39 012c 0017
2c31 012c 0016 2c7f 012c 0016 2c4f 012c
0017 2c48 012c 0017 2c3a 012c 0019 2c7f
012c 0016 2c41 012c 0018 2c3d 012c 0017
2c34 012c 0017 2c7f 012c 0017 2c44 012c
0017 2c3a 012c 0017 2c35 012c 0017 2c7f
012c 0017 2c42 012c 0017 2c39 012c 0017
2c31 012c 0016 2c7f 012c 0016 2c4f 012c
0017 2c48 012c 0017 2c3a 012c 0019 2c7f
012c 0016 2c41 012c 0018 2c3d 012c 0017
2c34 012c 0017 2c7f 012c 0017 2c44 012c
0017 2c3a 012c 0017 2c35 012c 0017 2c7f
012c 0017 2c42 012c 0017 2c39 012c 0017
2c31 012c 0016 2c7f 012c 0016 2c4f 012c
0017 2c48 012c 0017 2c3a 012c 0019 2c7f
012c 0016 2c41 012c 0018 2c3d 012c 0017
2c34 012c 0017 2c7f 012c 0017 2c44 012c
0017 2c3a 012c 0017 2c35 012c 0017 2c7f
012c 0017 2c42 012c 0017 2c39 012c 0017
2c31 012c 0016 2c7f 012c 0016 2c4f 012c
0017 2c48 012c 0017 2c3a 012c 0019 2c7f
012c 0016 2c41 012c 0018 2c3d 012c 0017
2c34 012c 0017 2c7f 012c 0017 2c44 012c
0017 2c3a 012c 0017 2c35 012c 0017 2c7f
012c 0017 2c42 012c 0017 2c39 012c 0017
2c31 012c 0016 2c7f 012c 0016 2c4f 012c
0017 2c48 012c 0017 2c3a 012c 0019 2c7f
012c 0016 2c41 012c 0018 2c3d 012c 0017
2c34 012c 0017 2c7f 012c 0017 2c44 012c
0017 2c3a 012c 0017 2c35 012c 0017 2c7f
012c 0017 2c42 012c 0017 2c39 012c 0017
2c31 012c 0016 2c7f 012c 0016 2c4f 012c
0017 2c48 012c 0017 2c3a 012c 0019 2c7f
012c 0016 2c41 012c 0018 2c3d 012c 0017
2c34 012c 0017 2c7f 012c 0017 2c44 012c
0017 2c3a 012c 0017 2c35 012c 0017 2c7f
012c 0017 2c42 012c 0017 2c39 012c 0017
2c31 012c 0016 2c7f 012c 0016 2c4f 012c
0017 2c48 012c 0017 2c3a 012c 0019 2c7f
012c 0016 2c41 012c 0018 2c3d 012c 0017
2c34 012c 0017 2c7f 012c 0017 2c44 012c
0017 2c3a 012c 0017 2c35 012c 0017 2c7f
012c 0017 2c42 012c 0017 2c39 012c 0017
2c31 012c 0000 ff2f 004d 5472 6b00 000a
e700 ff21 0100 00ff 0305 536e 6172 6583
6199 2875 0128 0081 3f28 7601 2800 813d
2878 0128 0081 3f28 7801 2800 813f 287a
0128 0081 3f28 7801 2800 8141 2875 0128
0081 3f28 7601 2800 813d 2878 0128 0081
3f28 7801 2800 813f 287a 0128 0081 3f28
7801 2800 813f 2878 0128 0081 3f28 7701
2800 8141 2875 0128 0081 3f28 7601 2800
813d 2878 0128 0081 3f28 7801 2800 813f
287a 0128 0081 3f28 7801 2800 4828 6401
2800 7628 7801 2800 813f 2877 0128 0081
4128 7501 2800 813f 2876 0128 0081 3d28
7801 2800 813f 2878 0128 0081 3f28 7801
2800 813f 2877 0128 0081 3f28 7801 2800
813f 2878 0128 0081 3f28 7a01 2800 813f
2878 0128 0081 3f28 7801 2800 813f 2877
0128 0081 4128 7501 2800 813f 2876 0128
0081 3d28 7801 2800 813f 2878 0128 0081
3f28 7a01 2800 813f 2878 0128 0048 2864
0128 0076 2878 0128 0081 3f28 7701 2800
8141 2875 0128 0081 3f28 7601 2800 813d
2878 0128 0081 3f28 7801 2800 813f 2878
0128 0081 3f28 7701 2800 813f 2878 0128
0081 3f28 7801 2800 813f 287a 0128 0081
3f28 7801 2800 813f 2878 0128 0081 3f28
7701 2800 8141 2875 0128 0081 3f28 7601
2800 813d 2878 0128 0081 3f28 7801 2800
813f 287a 0128 0081 3f28 7801 2800 813f
2878 0128 0081 3f28 7701 2800 8141 2875
0128 0081 3f28 7601 2800 813d 2878 0128
0078 285c 0128 0046 2878 0128 0081 3f28
7a01 2800 813f 2878 0128 0081 3f28 7801
2800 813f 2877 0128 0081 4128 7501 2800
813f 2876 0128 0081 3d28 7801 2800 813f
2878 0128 0081 3f28 7a01 2800 813f 2878
0128 0081 3f28 7801 2800 813f 2877 0128
0081 3f28 7801 2800 813f 2878 0128 0081
3f28 7a01 2800 813f 2878 0128 0081 3f28
7801 2800 4828 6401 2800 7628 7701 2800
8141 2875 0128 0081 3f28 7601 2800 813d
2878 0128 0081 3f28 7801 2800 813f 287a
0128 0081 3f28 7801 2800 813f 2878 0128
0081 3f28 7701 2800 8141 2875 0128 0081
3f28 7601 2800 813d 2878 0128 0081 3f28
7801 2800 813f 287a 0128 0081 3f28 7801
2800 813f 2878 0128 0081 3f28 7701 2800
8141 2875 0128 0081 3f28 7601 2800 813d
2878 0128 0078 2864 0128 0046 2878 0128
0081 3f28 7801 2800 813f 2877 0128 0081
4128 7501 2800 813d 2876 0128 0081 3f28
7801 2800 813f 2878 0128 0081 3f28 7801
2800 813f 2877 0128 0081 3f28 7801 2800
813f 2878 0128 0081 3f28 7a01 2800 813f
2878 0128 0081 3f28 7801 2800 813f 2877
0128 0081 4128 7501 2800 813f 2876 0128
0081 3d28 7801 2800 813f 2878 0128 0081
3f28 7a01 2800 813f 2878 0128 0048 2864
0128 0076 2878 0128 0081 3f28 7701 2800
8141 2875 0128 0081 3f28 7601 2800 ab3f
1c40 011c 0082 7f1c 3d01 1c00 827f 1c41
011c 0082 7f1c 4001 1c00 827f 1c40 011c
0082 7f1c 3d01 1c00 827f 1c41 011c 0082
7f1c 4001 1c00 827f 1c40 011c 0082 7f1c
3d01 1c00 827f 1c41 011c 0082 7f1c 4001
1c00 827f 1c40 011c 0082 7f1c 3d01 1c00
827f 1c41 011c 0082 7f1c 4001 1c00 827f
1c40 011c 0082 7f1c 3d01 1c00 827f 1c41
011c 0082 7f1c 4001 1c00 827f 1c40 011c
0082 7f1c 3d01 1c00 827f 1c41 011c 0082
7f1c 4001 1c00 827f 1c40 011c 0082 7f1c
3d01 1c00 827f 1c41 011c 0082 7f1c 4001
1c00 827f 1c40 011c 0082 7f1c 3d01 1c00
827f 1c41 011c 0082 7f1c 4001 1c00 827f
1c40 011c 0082 7f1c 3d01 1c00 827f 1c41
011c 0082 7f1c 4001 1c00 827f 1c40 011c
0082 7f1c 3d01 1c00 827f 1c41 011c 0082
7f1c 4001 1c00 827d 285d 0128 0081 3f28
5e01 2800 813f 2866 0128 0081 3f28 6e01
2800 813f 2874 0128 0081 3f28 7501 2800
813f 2875 0128 0078 2862 0128 0048 2870
0128 0045 287a 0128 0077 2878 0128 0081
3f28 7701 2800 8141 2875 0128 0081 3f28
7601 2800 813d 2878 0128 0081 3f28 7801
2800 813f 287a 0128 0081 3f28 7801 2800
813f 2878 0128 0081 3f28 7801 2800 813f
287a 0128 0081 3f28 7801 2800 813f 2878
0128 0081 3f28 7701 2800 8141 2875 0128
0081 3f28 7601 2800 813d 2878 0128 0081
3f28 7801 2800 813f 287a 0128 0081 3f28
7801 2800 4828 6401 2800 7628 7801 2800
813f 2877 0128 0081 4128 7501 2800 813f
2876 0128 0081 3d28 7801 2800 813f 2878
0128 0078 2859 0128 0046 287a 0128 0078
285d 0128 0046 2878 0128 0048 2864 0128
0076 2878 0128 0081 3f28 7701 2800 8141
2875 0128 0081 3f28 7601 2800 813d 2878
0128 0081 3f28 7801 2800 813f 287a 0128
0081 3f28 7801 2800 813f 2878 0128 0081
3f28 7701 2800 813f 2878 0128 0081 3f28
7801 2800 813f 287a 0128 0081 3f28 7801
2800 813f 2878 0128 0048 285c 0128 0076
2877 0128 0081 4128 7501 2800 813f 2876
0128 0081 3d28 7801 2800 813f 2878 0128
0081 3f28 7a01 2800 813f 2878 0128 0081
3f28 7801 2800 813f 2877 0128 0081 4128
7501 2800 813f 2876 0128 0081 3d28 7801
2800 813f 2878 0128 0081 3f28 7a01 2800
813f 2878 0128 0081 3f28 7801 2800 813f
2877 0128 0081 4128 7501 2800 813f 2876
0128 0081 3d28 7801 2800 7628 6401 2800
4828 7801 2800 4728 5e01 2800 7728 7801
2800 813f 2877 0128 0081 4128 7501 2800
813f 2876 0128 0081 3d28 7801 2800 813f
2878 0128 0076 285e 0128 0048 287a 0128
0076 285e 0128 0048 2878 0128 0081 3f28
7801 2800 813f 2878 0128 0081 3f28 7a01
2800 813f 2878 0128 0081 3f28 7801 2800
813f 2877 0128 0081 4128 7501 2800 813f
2876 0128 0081 3d28 7801 2800 813f 2878
0128 0081 3f28 7a01 2800 813f 2878 0128
0047 2864 0128 0077 2878 0128 0081 3f28
7701 2800 8141 2875 0128 0081 3f28 7601
2800 813d 2878 0128 0081 3f28 7801 2800
7628 5701 2800 4828 7a01 2800 7628 5901
2800 4828 7801 2800 1828 5101 2800 1728
3c01 2800 1728 6401 2800 7628 7801 2800
813f 2877 0128 0047 2864 0128 0079 2875
0128 0081 3f28 7601 2800 813d 2878 0128
0047 2874 0128 0077 2878 0128 0081 6f28
7701 2800 810f 2878 0128 0048 2864 0128
0076 2878 0128 0081 3f28 7701 2800 4728
7a01 2800 7728 7501 2800 4728 7a01 2800
7928 7601 2800 4528 7a01 2800 7728 7801
2800 813f 2878 0128 0081 3f28 7a01 2800
813f 2878 0128 0048 2864 0128 0076 2878
0128 0081 3f28 7701 2800 8141 2875 0128
0081 3f28 7601 2800 813d 2878 0128 0081
3f28 7801 2800 813f 287a 0128 0078 2876
0128 0047 287c 0128 0047 2867 0128 0076
2878 0128 0081 3f28 7701 2800 8141 2875
0128 0081 3f28 7601 2800 813d 2878 0128
0081 3f28 7801 2800 813f 287a 0128 0077
286f 0128 0047 2878 0128 0081 3f28 7801
2800 813f 2877 0128 0081 4128 7501 2800
813f 2876 0128 0081 3d28 7801 2800 813f
2878 0128 0081 3f28 7d01 2800 4828 7901
2800 7628 7e01 2800 4828 7001 2800 7628
7801 2800 813f 2877 0128 0081 4128 7501
2800 813f 2876 0128 0081 3d28 7801 2800
813f 2878 0128 0081 3f28 7a01 2800 7728
6f01 2800 4728 7e01 2800 4728 6e01 2800
7728 7f01 2800 813f 287e 0128 0081 4128
7e01 2800 813f 287e 0128 0081 3d28 7e01
2800 813f 287f 0128 0081 3f28 7f01 2800
4728 7601 2800 8128 2875 0128 0081 0e28
7f01 2800 813f 287f 0128 0081 4128 7f01
2800 813f 287f 0128 0081 3d28 7f01 2800
813f 287f 0128 0081 3f28 7f01 2800 7728
6f01 2800 4728 7f01 2800 4828 7501 2800
7628 7f01 2800 813f 287f 0128 0081 4128
7f01 2800 813f 287f 0128 0081 3d28 7f01
2800 813f 287f 0128 0081 3f28 7a01 2800
7828 7d01 2800 4728 7c01 2800 813e 287f
0128 0081 3f28 7f01 2800 8141 287f 0128
0081 3f28 7f01 2800 813d 287f 0128 0081
3f28 7f01 2800 813f 287f 0128 0077 2877
0128 0047 287d 0128 0081 3f28 7f01 2800
813f 287f 0128 0081 4128 7f01 2800 813f
287f 0128 0081 3d28 7f01 2800 813f 287f
0128 0081 3f28 7d01 2800 8140 287f 0128
0047 2867 0128 0076 287e 0128 0081 3f28
7d01 2800 8141 287f 0128 0081 3f28 7e01
2800 813d 287e 0128 0081 3f28 7f01 2800
813f 287f 0128 0081 3f28 7d01 2800 1628
6101 2800 00ff 2f00 4d54 726b 0000 1179
00ff 2101 0000 ff03 044b 6963 6b83 0099
2370 0123 0081 2823 6901 2300 2e23 4e01
2300 1723 6601 2300 810f 2369 0123 0081
2823 6901 2300 2e23 4d01 2300 1723 6601
2300 810f 236b 0123 0081 2723 6901 2300
2f23 4c01 2300 1723 6601 2300 810f 2370
0123 0081 2823 6901 2300 2e23 4e01 2300
1723 6601 2300 810f 2369 0123 0081 2823
6901 2300 2e23 4d01 2300 1723 6601 2300
810f 236b 0123 0081 2823 6901 2300 2e23
4c01 2300 1723 6601 2300 810f 2370 0123
0081 3f23 6601 2300 813f 2370 0123 0081
2723 6901 2300 2f23 4e01 2300 1723 6601
2300 810f 2369 0123 0081 2823 6901 2300
2e23 4d01 2300 1723 6601 2300 810f 236b
0123 0081 2823 6901 2300 2e23 4c01 2300
1723 6601 2300 810f 2370 0123 0081 2723
6601 2300 2f23 4c01 2300 1723 6301 2300
810f 2370 0123 0081 2823 6901 2300 2e23
4e01 2300 1723 6601 2300 810f 2369 0123
0081 2823 6901 2300 2d23 4d01 2300 1723
6601 2300 8110 2370 0123 0081 2723 6601
2300 2e23 4c01 2300 1823 6301 2300 810f
2369 0123 0081 2723 6901 2300 2f23 4d01
2300 1723 6601 2300 810f 236b 0123 0081
2723 6901 2300 2f23 4c01 2300 1723 6601
2300 5f23 4c01 2300 2f23 7001 2300 813f
2366 0123 0081 3f23 7001 2300 8128 2369
0123 002e 234e 0123 0017 2366 0123 0081
0f23 6901 2300 8128 2369 0123 002e 234d
0123 0017 2366 0123 0081 0f23 6b01 2300
8128 2369 0123 002e 234c 0123 0017 2366
0123 0081 0f23 7001 2300 8128 2366 0123
002e 234c 0123 0017 2363 0123 0081 0f23
7001 2300 8128 2369 0123 002e 234e 0123
0017 2366 0123 0081 0f23 6901 2300 8128
2369 0123 002e 234d 0123 0017 2366 0123
0081 0f23 7001 2300 8128 2366 0123 002e
234c 0123 0017 2363 0123 0081 0f23 6901
2300 8128 2369 0123 002e 234d 0123 0017
2366 0123 0081 0f23 6b01 2300 8128 2369
0123 002e 234c 0123 0017 2366 0123 0081
0f23 7001 2300 813f 2366 0123 0081 3f23
7001 2300 8128 2369 0123 002e 234e 0123
0017 2366 0123 0081 0f23 6901 2300 813f
2369 0123 0081 3f23 6b01 2300 8128 2369
0123 002e 234c 0123 0017 2366 0123 0078
234c 0123 0016 2370 0123 0081 3f23 6601
2300 813f 2370 0123 0081 2823 6901 2300
2e23 4e01 2300 1723 6601 2300 5f23 4e01
2300 2f23 6901 2300 813f 2369 0123 0081
2823 4e01 2300 1623 6b01 2300 8128 2369
0123 002e 234c 0123 0017 2366 0123 005f
233a 0123 0017 235a 0123 0017 2366 0123
0081 2723 5701 2300 1623 5d01 2300 813f
2366 0123 0081 2723 6101 2300 3023 3f01
2300 1623 6301 2300 8110 2366 0123 0081
2723 5701 2300 1623 5d01 2300 813f 2366
0123 0081 2723 6101 2300 3023 3f01 2300
1623 6301 2300 8110 2366 0123 0081 2723
5701 2300 1623 5d01 2300 813f 2366 0123
0081 2723 6101 2300 3023 3f01 2300 1623
6301 2300 8110 2366 0123 0081 2723 5701
2300 1623 5d01 2300 813f 2366 0123 0081
6f23 5d01 2300 5f23 5101 2300 3023 6601
2300 8127 2357 0123 0016 235d 0123 0081
3f23 6601 2300 8127 2361 0123 0030 233f
0123 0016 2363 0123 0081 1023 6601 2300
8127 2357 0123 0016 235d 0123 0081 3f23
6601 2300 8127 2361 0123 0030 233f 0123
0016 2363 0123 0081 1023 6601 2300 8127
2357 0123 0016 235d 0123 0081 3f23 6601
2300 8127 2361 0123 0030 233f 0123 0016
2363 0123 0081 1023 6601 2300 8127 2357
0123 0016 235d 0123 0081 3f23 6601 2300
8127 2353 0123 0018 2363 0123 0081 3f23
6601 2300 8127 2357 0123 0016 235d 0123
0081 1023 4c01 2300 2e23 6601 2300 8127
2347 0123 0018 2363 0123 0081 0e23 4d01
2300 3023 7001 2300 8128 2366 0123 0030
2341 0123 0014 2363 0123 0081 1023 7001
2300 8128 2369 0123 002e 234e 0123 0016
2366 0123 0081 1023 6901 2300 8128 2369
0123 002e 234d 0123 0017 2366 0123 0081
0f23 7001 2300 8128 2366 0123 002e 234c
0123 0017 2363 0123 0081 0f23 6901 2300
8128 2369 0123 002e 234d 0123 0016 2366
0123 0081 1023 6b01 2300 8128 2369 0123
002e 234c 0123 0016 2366 0123 0081 1023
7001 2300 813f 2366 0123 0081 3f23 7001
2300 8128 2369 0123 002e 234e 0123 0016
2366 0123 0081 1023 6901 2300 813f 2369
0123 0081 3f23 6b01 2300 8128 2369 0123
002e 234c 0123 0016 2366 0123 0081 1023
7001 2300 813f 2366 0123 0081 0f23 5501
2300 2f23 7001 2300 8128 2369 0123 002e
234e 0123 0016 2366 0123 0081 1023 6901
2300 a97f 2352 0123 002f 2334 0123 0082
4f23 4c01 2300 2f23 2f01 2300 824f 234a
0123 002f 233b 0123 0082 4f23 4901 2300
2f23 3d01 2300 824f 2352 0123 002f 2334
0123 0082 4f23 4c01 2300 2f23 2f01 2300
824f 234a 0123 002f 233b 0123 0082 4f23
4901 2300 2f23 3d01 2300 824f 2352 0123
002f 2334 0123 0082 4f23 4c01 2300 2f23
2f01 2300 824f 234a 0123 002f 233b 0123
0082 4f23 4901 2300 2f23 3d01 2300 824f
2352 0123 002f 2334 0123 0082 4f23 4c01
2300 2f23 2f01 2300 824f 234a 0123 002f
233b 0123 0082 4f23 4901 2300 2f23 3d01
2300 824f 2352 0123 002f 2334 0123 0082
4f23 4c01 2300 2f23 2f01 2300 824f 234a
0123 002f 233b 0123 0082 4f23 4901 2300
2f23 3d01 2300 824f 2352 0123 002f 2334
0123 0082 4f23 4c01 2300 2f23 2f01 2300
824f 234a 0123 002f 233b 0123 0082 4f23
4901 2300 2f23 3d01 2300 824f 2352 0123
002f 2334 0123 0082 4f23 4c01 2300 2f23
2f01 2300 824f 234a 0123 002f 233b 0123
0082 4f23 4901 2300 2f23 3d01 2300 824f
2352 0123 002f 2334 0123 0082 4f23 4c01
2300 2f23 2f01 2300 824f 234a 0123 002f
233b 0123 0082 4f23 4901 2300 2f23 3d01
2300 824f 2352 0123 0082 7f23 4c01 2300
827f 234a 0123 002f 233b 0123 0082 4f23
4901 2300 827f 2352 0123 002f 2334 0123
0082 3723 3401 2300 1723 4c01 2300 2f23
3c01 2300 824f 234a 0123 002f 233b 0123
0082 4f23 4f01 2300 2f23 3f01 2300 824f
2357 0123 0081 3e23 5001 2300 813f 2354
0123 0081 3f23 5901 2300 813f 2353 0123
0081 3f23 5601 2300 813f 2354 0123 0081
2823 3f01 2300 1623 5401 2300 7823 4b01
2300 4723 5601 2300 8128 234e 0123 002e
2339 0123 0017 234c 0123 0081 0f23 5601
2300 8128 2351 0123 002e 233b 0123 0017
234e 0123 0081 0f23 5101 2300 8128 2351
0123 002e 233a 0123 0017 234e 0123 0081
0f23 5201 2300 8128 2351 0123 002e 2339
0123 0017 234e 0123 005f 2336 0123 002f
2351 0123 0081 2823 5101 2300 2e23 3a01
2300 1723 4e01 2300 810f 2352 0123 0081
2823 5101 2300 2e23 3901 2300 1723 4e01
2300 5f23 4101 2300 2f23 5601 2300 813f
234e 0123 0081 3f23 5601 2300 8128 2351
0123 002e 233b 0123 0017 234e 0123 0081
0f23 5101 2300 813f 2351 0123 0081 3f23
5201 2300 8128 2351 0123 002e 2339 0123
0017 234e 0123 0081 0f23 5601 2300 813f
234e 0123 0081 3f23 5601 2300 8128 2351
0123 002e 233b 0123 0017 234e 0123 0077
2333 0123 0017 2351 0123 0081 3f23 5101
2300 813f 2352 0123 0081 0f23 3c01 2300
1823 3201 2300 812a 2326 0123 0011 2339
0123 0019 234e 0123 0081 2723 4201 2300
1623 4701 2300 813f 234e 0123 0081 2723
4a01 2300 3023 2f01 2300 1623 4c01 2300
8110 234e 0123 0081 2723 4201 2300 1623
4701 2300 813f 234e 0123 0081 2723 4a01
2300 3023 2f01 2300 1623 4c01 2300 8110
234e 0123 0081 2723 4201 2300 1623 4701
2300 813f 234e 0123 0081 2723 4a01 2300
3023 2f01 2300 1623 4c01 2300 8110 234e
0123 0081 2723 4201 2300 1623 4701 2300
813f 234e 0123 0082 4f23 4a01 2300 3023
4e01 2300 8127 2342 0123 0016 2347 0123
0081 3f23 4e01 2300 8127 234a 0123 0030
232f 0123 0016 234c 0123 0081 1023 4e01
2300 8127 2342 0123 0016 2347 0123 0081
1023 3901 2300 2e23 4e01 2300 8127 234a
0123 0030 232f 0123 0016 234c 0123 0081
1023 4e01 2300 8127 2342 0123 0016 2347
0123 0081 3f23 4e01 2300 8127 234a 0123
0030 232f 0123 0016 234c 0123 0081 1023
4e01 2300 8127 2342 0123 0016 2347 0123
0081 3f23 4e01 2300 8127 234a 0123 0030
232f 0123 0016 234c 0123 0081 1023 4e01
2300 8127 2342 0123 0016 2347 0123 0081
3f23 4e01 2300 8127 234a 0123 0018 232f
0123 0081 0f23 4c01 2300 2f23 5601 2300
8128 234e 0123 002d 2339 0123 0017 234c
0123 0081 1023 5601 2300 8128 2351 0123
002e 233b 0123 0016 234e 0123 0081 1023
5101 2300 8128 2351 0123 002e 233a 0123
0016 234e 0123 0081 1023 5201 2300 8127
2351 0123 0081 5723 5101 2300 8128 2351
0123 002e 233a 0123 0016 234e 0123 0081
1023 5201 2300 8128 2351 0123 002e 2339
0123 0016 234e 0123 0081 1023 5601 2300
813e 234e 0123 0081 3f23 5601 2300 8129
2351 0123 002e 233b 0123 0016 234e 0123
0060 233d 0123 002f 2351 0123 0081 0f23
3401 2300 2f23 5101 2300 810f 2334 0123
002f 2352 0123 0081 2823 5101 2300 2e23
3901 2300 1623 4e01 2300 6023 3c01 2300
2f23 5601 2300 810f 2330 0123 002f 234e
0123 0081 0f23 3001 2300 2f23 5601 2300
810f 232a 0123 0018 2351 0123 002e 233b
0123 0016 234e 0123 0060 232a 0123 002f
2351 0123 0081 3f23 5101 2300 810f 2330
0123 002f 2352 0123 0081 0f23 3001 2300
1823 4501 2300 4523 4301 2300 6023 3001
2300 2f23 5601 2300 813f 234e 0123 0081
3f23 5601 2300 8128 2351 0123 002e 233b
0123 0016 234e 0123 0081 1023 5101 2300
813f 2351 0123 0081 3f23 5201 2300 8128
2351 0123 002e 2339 0123 0016 234e 0123
0081 1023 5601 2300 813f 234e 0123 0081
3f23 5601 2300 8128 2351 0123 002e 233b
0123 0016 234e 0123 0081 1023 5101 2300
813f 2351 0123 0081 3f23 5201 2300 8128
2351 0123 002e 2339 0123 0016 234e 0123
0081 1023 5601 2300 8128 2351 0123 002e
233b 0123 0016 234e 0123 0060 2351 0123
002f 2356 0123 0081 2823 5101 2300 2e23
3b01 2300 1723 4e01 2300 810f 2356 0123
0081 2823 5101 2300 2e23 3b01 2300 1723
4e01 2300 810f 2352 0123 0081 0f23 4601
2300 8127 232b 0123 0017 234e 0123 002f
2356 0123 0081 2823 5101 2300 2e23 3b01
2300 1723 4e01 2300 810f 2356 0123 0081
2823 5101 2300 2e23 3b01 2300 1723 4e01
2300 810f 2356 0123 0081 0f23 3b01 2300
1823 5101 2300 2e23 3b01 2300 1723 4e01
2300 810f 2352 0123 0081 2823 4301 2300
1623 4e01 2300 8128 2347 0123 0016 2356
0123 0081 2823 5101 2300 2e23 3b01 2300
1723 4e01 2300 810f 2356 0123 0081 2823
5101 2300 2e23 3b01 2300 1723 4e01 2300
810f 2356 0123 0081 2823 5101 2300 2e23
3b01 2300 1723 4e01 2300 810f 2352 0123
0081 0f23 4601 2300 8127 232b 0123 0017
234e 0123 002f 2356 0123 0081 2823 5101
2300 2e23 3b01 2300 1723 4e01 2300 810f
2356 0123 0081 2823 5101 2300 2e23 3b01
2300 1723 4e01 2300 810f 2356 0123 0081
0f23 3b01 2300 1823 5101 2300 2e23 3b01
2300 1723 4e01 2300 810f 2352 0123 0081
2823 4301 2300 1623 4e01 2300 8128 2347
0123 0016 2356 0123 0081 2823 5101 2300
2e23 3b01 2300 1723 4e01 2300 810f 2356
0123 0081 2823 5101 2300 2e23 3b01 2300
1723 4e01 2300 810f 2356 0123 0081 2823
5101 2300 2e23 3b01 2300 1723 4e01 2300
810f 2352 0123 0081 0f23 4601 2300 8127
232b 0123 0017 234e 0123 002f 2356 0123
0081 2823 5101 2300 2e23 3b01 2300 1723
4e01 2300 810f 2356 0123 0081 2823 5101
2300 2e23 3b01 2300 1723 4e01 2300 810f
2356 0123 0081 0f23 3b01 2300 1823 5101
2300 2e23 3b01 2300 1723 4e01 2300 810f
2352 0123 0081 2823 4301 2300 1623 4e01
2300 8128 2347 0123 0016 2356 0123 0081
2823 5101 2300 2e23 3b01 2300 1723 4e01
2300 810f 2356 0123 0081 2823 5101 2300
2e23 3b01 2300 1723 4e01 2300 810f 2356
0123 0081 2823 5101 2300 2e23 3b01 2300
1723 4e01 2300 810f 2352 0123 0081 0f23
4601 2300 8127 232b 0123 0017 234e 0123
002f 2356 0123 0081 2823 5101 2300 2e23
3b01 2300 1723 4e01 2300 810f 2356 0123
0081 2823 5101 2300 2e23 3b01 2300 1723
4e01 2300 810f 2356 0123 0081 0f23 3b01
2300 1823 5101 2300 2e23 3b01 2300 1723
4e01 2300 810f 2352 0123 0081 2823 4301
2300 1623 4e01 2300 8128 2347 0123 0016
2356 0123 0081 2823 5101 2300 2e23 3b01
2300 1723 4e01 2300 810f 2356 0123 0081
2823 5101 2300 2e23 3b01 2300 1723 4e01
2300 810f 2356 0123 0081 2823 5101 2300
2e23 3b01 2300 1723 4e01 2300 810f 2352
0123 0081 0f23 4601 2300 8127 232b 0123
0017 234e 0123 002f 2356 0123 0081 2823
5101 2300 2e23 3b01 2300 1723 4e01 2300
810f 2356 0123 0081 2823 5101 2300 2e23
3b01 2300 1723 4e01 2300 810f 2356 0123
0081 0f23 3b01 2300 1823 5101 2300 2e23
3b01 2300 1723 4e01 2300 810f 2352 0123
0081 2823 4301 2300 1623 4e01 2300 8128
2347 0123 0000 ff2f 004d 5472 6b00 0000
9700 ff21 0100 00ff 030a 5461 6d62 6f75
7269 6e65 ee20 9936 7f01 3600 857f 367f
0136 0085 7f36 7f01 3600 857f 367f 0136
0085 7f36 7f01 3600 857f 367f 0136 0085
7f36 7f01 3600 857f 367f 0136 0085 7f36
7f01 3600 8281 7f36 7f01 3600 857f 367f
0136 0085 7f36 7f01 3600 857f 367f 0136
0085 7f36 7f01 3600 857f 367f 0136 0085
7f36 7f01 3600 857f 367f 0136 0085 7f36
7f01 3600 00ff 2f00 4d54 726b 0000 1516
00ff 2101 0000 ff03 0653 6861 6b65 7281
c900 9945 3101 4500 1745 2301 4500 1845
1c01 4500 1545 1601 4500 1745 6601 4500
1745 3a01 4500 1745 2c01 4500 1745 2401
4500 1745 3101 4500 1745 2501 4500 1745
2001 4500 1745 1901 4500 1745 6601 4500
1745 3e01 4500 1845 3201 4500 1645 2501
4500 1845 3101 4500 1745 2301 4500 1845
1c01 4500 1545 1601 4500 1745 6601 4500
1745 3a01 4500 1745 2c01 4500 1745 2401
4500 1745 3101 4500 1745 2501 4500 1745
2001 4500 1745 1901 4500 1745 6601 4500
1745 3e01 4500 1845 3201 4500 1645 2501
4500 1845 3101 4500 1745 2301 4500 1845
1c01 4500 1545 1601 4500 1745 6601 4500
1745 3a01 4500 1745 2c01 4500 1745 2401
4500 1745 3101 4500 1745 2501 4500 1745
2001 4500 1745 1901 4500 1745 6601 4500
1745 3e01 4500 1845 3201 4500 1645 2501
4500 1845 3101 4500 1745 2301 4500 1845
1c01 4500 1545 1601 4500 1745 6601 4500
1745 3a01 4500 1745 2c01 4500 1745 2401
4500 1745 3101 4500 1745 2501 4500 1745
2001 4500 1745 1901 4500 1745 6601 4500
1745 3e01 4500 1845 3201 4500 1645 2501
4500 1845 3101 4500 1745 2301 4500 1845
1c01 4500 1545 1601 4500 1745 6601 4500
1745 3a01 4500 1745 2c01 4500 1745 2401
4500 1745 3101 4500 1745 2501 4500 1745
2001 4500 1745 1901 4500 1745 6601 4500
1745 3e01 4500 1845 3201 4500 1745 2501
4500 1745 3101 4500 1745 2301 4500 1845
1c01 4500 1545 1601 4500 1745 6601 4500
1745 3a01 4500 1745 2c01 4500 1745 2401
4500 1745 3101 4500 1745 2501 4500 1745
2001 4500 1745 1901 4500 1745 6601 4500
1745 3e01 4500 1845 3201 4500 1645 2501
4500 1845 3101 4500 1745 2301 4500 1845
1c01 4500 1545 1601 4500 1745 6601 4500
1745 3a01 4500 1745 2c01 4500 1745 2401
4500 1745 3101 4500 1745 2501 4500 1745
2001 4500 1745 1901 4500 1745 6601 4500
1745 3e01 4500 1845 3201 4500 1645 2501
4500 1845 3101 4500 1745 2301 4500 1845
1c01 4500 1545 1601 4500 1745 6601 4500
1745 3a01 4500 1745 2c01 4500 1745 2401
4500 1745 3101 4500 1745 2501 4500 1745
2001 4500 1745 1901 4500 1745 6601 4500
1745 3e01 4500 1845 3201 4500 1645 2501
4500 1845 3101 4500 1745 2301 4500 1845
1c01 4500 1545 1601 4500 1745 6601 4500
1745 3a01 4500 1745 2c01 4500 1745 2401
4500 1745 3101 4500 1745 2501 4500 1745
2001 4500 1745 1901 4500 1745 6601 4500
1745 3e01 4500 1845 3201 4500 1645 2501
4500 1845 3101 4500 1745 2301 4500 1845
1c01 4500 1545 1601 4500 1745 6601 4500
1745 3a01 4500 1745 2c01 4500 1745 2401
4500 1745 3101 4500 1745 2501 4500 1745
2001 4500 1745 1901 4500 1745 6601 4500
1745 3e01 4500 1845 3201 4500 1645 2501
4500 1845 3101 4500 1745 2301 4500 1845
1c01 4500 1545 1601 4500 1745 6601 4500
1745 3a01 4500 1745 2c01 4500 1745 2401
4500 1745 3101 4500 1745 2501 4500 1745
2001 4500 1745 1901 4500 1745 6601 4500
1745 3e01 4500 1845 3201 4500 1645 2501
4500 1845 3101 4500 1745 2301 4500 1845
1c01 4500 1545 1601 4500 1745 6601 4500
1745 3a01 4500 1745 2c01 4500 1745 2401
4500 1745 3101 4500 1745 2501 4500 1745
2001 4500 1745 1901 4500 1745 6601 4500
1745 3e01 4500 1845 3201 4500 1645 2501
4500 1845 3101 4500 1745 2301 4500 1845
1c01 4500 1545 1601 4500 1745 6601 4500
1745 3a01 4500 1745 2c01 4500 1745 2401
4500 1745 6601 4500 1745 5701 4500 1745
4501 4500 1745 3501 4500 1745 2c01 4500
1745 2101 4500 1845 1b01 4500 1645 1601
4500 1845 3101 4500 1745 2301 4500 1845
1c01 4500 1545 1601 4500 1745 6601 4500
1745 3a01 4500 1745 2c01 4500 1745 2401
4500 1745 6601 4500 1745 5701 4500 1745
4501 4500 1745 3501 4500 1745 2c01 4500
1745 2101 4500 1845 1b01 4500 1645 1601
4500 1845 3101 4500 1745 2301 4500 1845
1c01 4500 1545 1601 4500 1745 6601 4500
1745 3a01 4500 1745 2c01 4500 1745 2401
4500 1745 6601 4500 1745 5701 4500 1745
4501 4500 1745 3501 4500 1745 2c01 4500
1745 2101 4500 1845 1b01 4500 1645 1601
4500 1845 3101 4500 1745 2301 4500 1845
1c01 4500 1545 1601 4500 1745 6601 4500
1745 3a01 4500 1745 2c01 4500 1745 2401
4500 1745 6601 4500 1745 5701 4500 1745
4501 4500 1745 3501 4500 1745 2c01 4500
1745 2101 4500 1845 1b01 4500 1645 1601
4500 1845 3101 4500 1745 2301 4500 1845
1c01 4500 1545 1601 4500 1745 6601 4500
1745 3a01 4500 1745 2c01 4500 1745 2401
4500 1745 6601 4500 1745 5701 4500 1745
4501 4500 1745 3501 4500 1745 2c01 4500
1745 2101 4500 1845 1b01 4500 1645 1601
4500 1845 3101 4500 1745 2301 4500 1845
1c01 4500 1545 1601 4500 1745 6601 4500
1745 3a01 4500 1745 2c01 4500 1745 2401
4500 1745 6601 4500 1745 5701 4500 1745
4501 4500 1745 3501 4500 1745 2c01 4500
1745 2101 4500 1845 1b01 4500 1645 1601
4500 1845 3101 4500 1745 2301 4500 1845
1c01 4500 1545 1601 4500 1745 6601 4500
1745 3a01 4500 1745 2c01 4500 1745 2401
4500 1745 6601 4500 1745 5701 4500 1745
4501 4500 1745 3501 4500 1745 2c01 4500
1745 2101 4500 1845 1b01 4500 1645 1601
4500 1845 3101 4500 1745 2301 4500 1845
1c01 4500 1545 1601 4500 1745 6601 4500
1745 3a01 4500 1745 2c01 4500 1745 2401
4500 1745 6601 4500 1745 5701 4500 1745
4501 4500 1745 3501 4500 1745 2c01 4500
1745 2101 4500 1845 1b01 4500 1645 1601
4500 1845 3101 4500 1745 2301 4500 1845
1c01 4500 1545 1601 4500 1745 6601 4500
1745 3a01 4500 1745 2c01 4500 1745 2401
4500 1745 6601 4500 1745 5701 4500 1745
4501 4500 1745 3501 4500 1745 2c01 4500
1745 2101 4500 1845 1b01 4500 1645 1601
4500 1845 3101 4500 1745 2301 4500 1845
1c01 4500 1545 1601 4500 1745 6601 4500
1745 3a01 4500 1745 2c01 4500 1745 2401
4500 1745 6601 4500 1745 5701 4500 1745
4501 4500 1745 3501 4500 1745 2c01 4500
1745 2101 4500 1845 1b01 4500 1645 1601
4500 1845 3101 4500 1745 2301 4500 1845
1c01 4500 1545 1601 4500 1745 6601 4500
1745 3a01 4500 1745 2c01 4500 1745 2401
4500 1745 6601 4500 1745 5701 4500 1745
4501 4500 1745 3501 4500 1745 2c01 4500
1745 2101 4500 1845 1b01 4500 1645 1601
4500 1845 3101 4500 1745 2301 4500 1845
1c01 4500 1545 1601 4500 1745 6601 4500
1745 3a01 4500 1745 2c01 4500 1745 2401
4500 1745 6601 4500 1745 5701 4500 1745
4501 4500 1745 3501 4500 1745 2c01 4500
1745 2101 4500 1845 1b01 4500 1645 1601
4500 1845 3101 4500 1745 2301 4500 1845
1c01 4500 1545 1601 4500 1745 6601 4500
1745 3a01 4500 1745 2c01 4500 1745 2401
4500 1745 6601 4500 1745 5701 4500 1745
4501 4500 1745 3501 4500 1745 2c01 4500
1745 2101 4500 1845 1b01 4500 1645 1601
4500 1845 3101 4500 1745 2301 4500 1845
1c01 4500 1545 1601 4500 1745 6601 4500
1745 3a01 4500 1745 2c01 4500 1745 2401
4500 1745 6601 4500 1745 5701 4500 1745
4501 4500 1745 3501 4500 1745 2c01 4500
1745 2101 4500 1845 1b01 4500 1645 1601
4500 1845 3101 4500 1745 2301 4500 1845
1c01 4500 1545 1601 4500 1745 6601 4500
1745 3a01 4500 1745 2c01 4500 1745 2401
4500 1745 6601 4500 1745 5701 4500 1745
4501 4500 1745 3501 4500 1745 2c01 4500
1745 2101 4500 1845 1b01 4500 1645 1601
4500 1845 3101 4500 1745 2301 4500 1845
1c01 4500 1545 1601 4500 1745 6601 4500
1745 3a01 4500 1745 2c01 4500 1745 2401
4500 1745 6601 4500 1745 5701 4500 1745
4501 4500 1745 3501 4500 1745 2c01 4500
1745 2101 4500 1845 1b01 4500 1645 1601
4500 1845 3101 4500 1745 2301 4500 1845
1c01 4500 1545 1601 4500 1745 6601 4500
1745 3a01 4500 1745 2c01 4500 1745 2401
4500 1745 6601 4500 1745 5701 4500 1745
4501 4500 1745 3501 4500 1745 2c01 4500
1745 2101 4500 1845 1b01 4500 1645 1601
4500 1845 3101 4500 1745 2301 4500 1845
1c01 4500 1545 1601 4500 1745 6601 4500
1745 3a01 4500 1745 2c01 4500 1745 2401
4500 1745 6601 4500 1745 5701 4500 1745
4501 4500 1745 3501 4500 1745 2c01 4500
1745 2101 4500 1845 1b01 4500 1645 1601
4500 1845 3101 4500 1745 2301 4500 1845
1c01 4500 1545 1601 4500 1745 6601 4500
1745 3a01 4500 1745 2c01 4500 1745 2401
4500 1745 6601 4500 1745 5701 4500 1745
4501 4500 1745 3501 4500 1745 2c01 4500
1745 2101 4500 1845 1b01 4500 1645 1601
4500 1845 3101 4500 1745 2301 4500 1845
1c01 4500 1545 1601 4500 1745 6601 4500
1745 3a01 4500 1745 2c01 4500 1745 2401
4500 1745 6601 4500 1745 5701 4500 1745
4501 4500 1745 3501 4500 1745 2c01 4500
1745 2101 4500 1845 1b01 4500 1645 1601
4500 1845 3101 4500 1745 2301 4500 1845
1c01 4500 1545 1601 4500 1745 6601 4500
1745 3a01 4500 1745 2c01 4500 1745 2401
4500 1745 6601 4500 1745 5701 4500 1745
4501 4500 1745 3501 4500 1745 2c01 4500
1745 2101 4500 1845 1b01 4500 1645 1601
4500 1845 3101 4500 1745 2301 4500 1845
1c01 4500 1545 1601 4500 1745 6601 4500
1745 3a01 4500 1745 2c01 4500 1745 2401
4500 1745 6601 4500 1745 5701 4500 1745
4501 4500 1745 3501 4500 1745 2c01 4500
1745 2101 4500 1845 1b01 4500 1645 1601
4500 1845 3101 4500 1745 2301 4500 1845
1c01 4500 1545 1601 4500 1745 6601 4500
1745 3a01 4500 1745 2c01 4500 1745 2401
4500 1745 6601 4500 1745 5701 4500 1745
4501 4500 1745 3501 4500 1745 2c01 4500
1745 2101 4500 1845 1b01 4500 1645 1601
4500 1845 3101 4500 1745 2301 4500 1845
1c01 4500 1545 1601 4500 1745 6601 4500
1745 3a01 4500 1745 2c01 4500 1745 2401
4500 1745 6601 4500 1745 5701 4500 1745
4501 4500 1745 3501 4500 1745 2c01 4500
1745 2101 4500 1845 1b01 4500 1645 1601
4500 1845 3101 4500 1745 2301 4500 1845
1c01 4500 1545 1601 4500 1745 6601 4500
1745 3a01 4500 1745 2c01 4500 1745 2401
4500 1745 6601 4500 1745 5701 4500 1745
4501 4500 1745 3501 4500 1745 2c01 4500
1745 2101 4500 1845 1b01 4500 1645 1601
4500 1845 3101 4500 1745 2301 4500 1845
1c01 4500 1545 1601 4500 1745 6601 4500
1745 3a01 4500 1745 2c01 4500 1745 2401
4500 1745 6601 4500 1745 5701 4500 1745
4501 4500 1745 3501 4500 1745 2c01 4500
1745 2101 4500 1845 1b01 4500 1645 1601
4500 1845 3101 4500 1745 2301 4500 1845
1c01 4500 1545 1601 4500 1745 6601 4500
1745 3a01 4500 1745 2c01 4500 1745 2401
4500 1745 6601 4500 1745 5701 4500 1745
4501 4500 1745 3501 4500 1745 2c01 4500
1745 2101 4500 1845 1b01 4500 1645 1601
4500 1845 3101 4500 1745 2301 4500 1845
1c01 4500 1545 1601 4500 1745 6601 4500
1745 3a01 4500 1745 2c01 4500 1745 2401
4500 1745 6601 4500 1745 5701 4500 1745
4501 4500 1745 3501 4500 1745 2c01 4500
1745 2101 4500 1845 1b01 4500 1645 1601
4500 1845 3101 4500 1745 2301 4500 1845
1c01 4500 1545 1601 4500 1745 6601 4500
1745 3a01 4500 1745 2c01 4500 1745 2401
4500 1745 6601 4500 1745 5701 4500 1745
4501 4500 1745 3501 4500 1745 2c01 4500
1745 2101 4500 1845 1b01 4500 1645 1601
4500 1845 3101 4500 1745 2301 4500 1845
1c01 4500 1545 1601 4500 1745 6601 4500
1745 3a01 4500 1745 2c01 4500 1745 2401
4500 1745 6601 4500 1745 5701 4500 1745
4501 4500 1745 3501 4500 1745 2c01 4500
1745 2101 4500 1845 1b01 4500 1645 1601
4500 1845 3101 4500 1745 2301 4500 1845
1c01 4500 1545 1601 4500 1745 6601 4500
1745 3a01 4500 1745 2c01 4500 1745 2401
4500 1745 6601 4500 1745 5701 4500 1745
4501 4500 1745 3501 4500 1745 2c01 4500
1745 2101 4500 1845 1b01 4500 1645 1601
4500 1845 3101 4500 1745 2301 4500 1845
1c01 4500 1545 1601 4500 1745 6601 4500
1745 3a01 4500 1745 2c01 4500 1745 2401
4500 1745 6601 4500 1745 5701 4500 1745
4501 4500 1745 3501 4500 1745 2c01 4500
1745 2101 4500 1845 1b01 4500 1645 1601
4500 1845 3101 4500 1745 2301 4500 1845
1c01 4500 1545 1601 4500 1745 6601 4500
1745 3a01 4500 1745 2c01 4500 1745 2401
4500 1745 6601 4500 1745 5701 4500 1745
4501 4500 1745 3501 4500 1745 2c01 4500
1745 2101 4500 1845 1b01 4500 1645 1601
4500 1845 3101 4500 1745 2301 4500 1845
1c01 4500 1545 1601 4500 1745 6601 4500
1745 3a01 4500 1745 2c01 4500 1745 2401
4500 1745 6601 4500 1745 5701 4500 1745
4501 4500 1745 3501 4500 1745 2c01 4500
1745 2101 4500 1845 1b01 4500 1645 1601
4500 1845 3101 4500 1745 2301 4500 1845
1c01 4500 1545 1601 4500 1745 6601 4500
1745 3a01 4500 1745 2c01 4500 1745 2401
4500 1745 6601 4500 1745 5701 4500 1745
4501 4500 1745 3501 4500 1745 2c01 4500
1745 2101 4500 1845 1b01 4500 1645 1601
4500 1845 3101 4500 1745 2301 4500 1845
1c01 4500 1545 1601 4500 1745 6601 4500
1745 3a01 4500 1745 2c01 4500 1745 2401
4500 1745 6601 4500 1745 5701 4500 1745
4501 4500 1745 3501 4500 1745 2c01 4500
1745 2101 4500 1845 1b01 4500 1645 1601
4500 1845 3101 4500 1745 2301 4500 1845
1c01 4500 1545 1601 4500 1745 6601 4500
1745 3a01 4500 1745 2c01 4500 1745 2401
4500 1745 6601 4500 1745 5701 4500 1745
4501 4500 1745 3501 4500 1745 2c01 4500
1745 2101 4500 1845 1b01 4500 1645 1601
4500 1845 3101 4500 1745 2301 4500 1845
1c01 4500 1545 1601 4500 1745 6601 4500
1745 3a01 4500 1745 2c01 4500 1745 2401
4500 1745 6601 4500 1745 5701 4500 1745
4501 4500 1745 3501 4500 1745 2c01 4500
1745 2101 4500 1845 1b01 4500 1645 1601
4500 1845 3101 4500 1745 2301 4500 1845
1c01 4500 1545 1601 4500 1745 6601 4500
1745 3a01 4500 1745 2c01 4500 1745 2401
4500 1745 6601 4500 1745 5701 4500 1745
4501 4500 1745 3501 4500 1745 2c01 4500
1745 2101 4500 1845 1b01 4500 1645 1601
4500 1845 3101 4500 1745 2301 4500 1845
1c01 4500 1545 1601 4500 1745 6601 4500
1745 3a01 4500 1745 2c01 4500 1745 2401
4500 1745 6601 4500 1745 5701 4500 1745
4501 4500 1745 3501 4500 1745 2c01 4500
1745 2101 4500 1845 1b01 4500 1645 1601
4500 1845 3101 4500 1745 2301 4500 1845
1c01 4500 1545 1601 4500 1745 6601 4500
1745 3a01 4500 1745 2c01 4500 1745 2401
4500 1745 6601 4500 1745 5701 4500 1745
4501 4500 1745 3501 4500 1745 2c01 4500
1745 2101 4500 1845 1b01 4500 1645 1601
4500 1845 3101 4500 1745 2301 4500 1845
1c01 4500 1545 1601 4500 1745 6601 4500
1745 3a01 4500 1745 2c01 4500 1745 2401
4500 1745 6601 4500 1745 5701 4500 1745
4501 4500 1745 3501 4500 1745 2c01 4500
1745 2101 4500 1845 1b01 4500 1645 1601
4500 1845 3101 4500 1745 2301 4500 1845
1c01 4500 1545 1601 4500 1745 6601 4500
1745 3a01 4500 1745 2c01 4500 1745 2401
4500 1745 6601 4500 1745 5701 4500 1745
4501 4500 1745 3501 4500 1745 2c01 4500
1745 2101 4500 1845 1b01 4500 1645 1601
4500 1845 3101 4500 1745 2301 4500 1845
1c01 4500 1545 1601 4500 1745 6601 4500
1745 3a01 4500 1745 2c01 4500 1745 2401
4500 1745 6601 4500 1745 5701 4500 1745
4501 4500 1745 3501 4500 1745 2c01 4500
1745 2101 4500 1845 1b01 4500 1645 1601
4500 00ff 2f00 4d54 726b 0000 0796 00ff
2101 0000 ff03 0643 6f6e 6761 7384 9330
993f 7201 3f00 173f 6301 3f00 3040 4f01
4000 1740 4001 4000 5f3e 7e01 3e00 4740
3c01 4000 1540 6601 4000 1740 7001 4000
483f 7201 3f00 173f 6301 3f00 3040 4f01
4000 1740 4001 4000 5f3e 7e01 3e00 4740
3c01 4000 1540 6601 4000 1740 7001 4000
483f 7201 3f00 173f 6301 3f00 3040 4f01
4000 1740 4001 4000 5f3e 7e01 3e00 4740
3c01 4000 1540 6601 4000 1740 7001 4000
483f 7201 3f00 173f 6301 3f00 3040 4f01
4000 1740 4001 4000 5f3e 7e01 3e00 4740
3c01 4000 1540 6601 4000 1740 7001 4000
483f 7201 3f00 173f 6301 3f00 3040 4f01
4000 1740 4001 4000 5f3e 7e01 3e00 4740
3c01 4000 1540 6601 4000 1740 7001 4000
483f 7201 3f00 173f 6301 3f00 3040 4f01
4000 1740 4001 4000 5f3e 7e01 3e00 4740
3c01 4000 1540 6601 4000 1740 7001 4000
483f 7201 3f00 173f 6301 3f00 3040 4f01
4000 1740 4001 4000 5f3e 7e01 3e00 4740
3c01 4000 1540 6601 4000 1740 7001 4000
483f 7201 3f00 173f 6301 3f00 3040 4f01
4000 1740 4001 4000 5f3e 7e01 3e00 4740
3c01 4000 1540 6601 4000 1740 7001 4000
483f 7201 3f00 173f 6301 3f00 3040 4f01
4000 1740 4001 4000 5f3e 7e01 3e00 4740
3c01 4000 1540 6601 4000 1740 7001 4000
483f 7201 3f00 173f 6301 3f00 3040 4f01
4000 1740 4001 4000 5f3e 7e01 3e00 4740
3c01 4000 1540 6601 4000 1740 7001 4000
483f 7201 3f00 173f 6301 3f00 3040 4f01
4000 1740 4001 4000 5f3e 7e01 3e00 4740
3c01 4000 1540 6601 4000 1740 7001 4000
483f 7201 3f00 173f 6301 3f00 3040 4f01
4000 1740 4001 4000 5f3e 7e01 3e00 4740
3c01 4000 1540 6601 4000 1740 7001 4000
483f 7201 3f00 173f 6301 3f00 3040 4f01
4000 1740 4001 4000 5f3e 7e01 3e00 4740
3c01 4000 1540 6601 4000 1740 7001 4000
483f 7201 3f00 173f 6301 3f00 3040 4f01
4000 1740 4001 4000 5f3e 7e01 3e00 4740
3c01 4000 1540 6601 4000 1740 7001 4000
483f 7201 3f00 173f 6301 3f00 3040 4f01
4000 1740 4001 4000 5f3e 7e01 3e00 4740
3c01 4000 1540 6601 4000 1740 7001 4000
483f 7201 3f00 173f 6301 3f00 3040 4f01
4000 1740 4001 4000 5f3e 7e01 3e00 4740
3c01 4000 1540 6601 4000 1740 7001 4000
483f 7201 3f00 173f 6301 3f00 3040 4f01
4000 1740 4001 4000 5f3e 7e01 3e00 4740
3c01 4000 1540 6601 4000 1740 7001 4000
483f 7201 3f00 173f 6301 3f00 3040 4f01
4000 1740 4001 4000 5f3e 7e01 3e00 4740
3c01 4000 1540 6601 4000 1740 7001 4000
483f 7201 3f00 173f 6301 3f00 3040 4f01
4000 1740 4001 4000 5f3e 7e01 3e00 4740
3c01 4000 1540 6601 4000 1740 7001 4000
483f 7201 3f00 173f 6301 3f00 3040 4f01
4000 1740 4001 4000 5f3e 7e01 3e00 4740
3c01 4000 1540 6601 4000 1740 7001 4000
483f 7201 3f00 173f 6301 3f00 3040 4f01
4000 1740 4001 4000 5f3e 7e01 3e00 4740
3c01 4000 1540 6601 4000 1740 7001 4000
483f 7201 3f00 173f 6301 3f00 3040 4f01
4000 1740 4001 4000 5f3e 7e01 3e00 4740
3c01 4000 1540 6601 4000 1740 7001 4000
483f 7201 3f00 173f 6301 3f00 3040 4f01
4000 1740 4001 4000 5f3e 7e01 3e00 4740
3c01 4000 1540 6601 4000 1740 7001 4000
483f 7201 3f00 173f 6301 3f00 3040 4f01
4000 1740 4001 4000 5f3e 7e01 3e00 4740
3c01 4000 1540 6601 4000 1740 7001 4000
483f 7201 3f00 173f 6301 3f00 3040 4f01
4000 1740 4001 4000 5f3e 7e01 3e00 4740
3c01 4000 1540 6601 4000 1740 7001 4000
483f 7201 3f00 173f 6301 3f00 3040 4f01
4000 1740 4001 4000 5f3e 7e01 3e00 4740
3c01 4000 1540 6601 4000 1740 7001 4000
483f 7201 3f00 173f 6301 3f00 3040 4f01
4000 1740 4001 4000 5f3e 7e01 3e00 4740
3c01 4000 1540 6601 4000 1740 7001 4000
483f 7201 3f00 173f 6301 3f00 3040 4f01
4000 1740 4001 4000 5f3e 7e01 3e00 4740
3c01 4000 1540 6601 4000 1740 7001 4000
483f 7201 3f00 173f 6301 3f00 3040 4f01
4000 1740 4001 4000 5f3e 7e01 3e00 4740
3c01 4000 1540 6601 4000 1740 7001 4000
483f 7201 3f00 173f 6301 3f00 3040 4f01
4000 1740 4001 4000 5f3e 7e01 3e00 4740
3c01 4000 1540 6601 4000 1740 7001 4000
483f 7201 3f00 173f 6301 3f00 3040 4f01
4000 1740 4001 4000 5f3e 7e01 3e00 4740
3c01 4000 1540 6601 4000 1740 7001 4000
483f 7201 3f00 173f 6301 3f00 3040 4f01
4000 1740 4001 4000 5f3e 7e01 3e00 4740
3c01 4000 1540 6601 4000 1740 7001 4000
483f 7201 3f00 173f 6301 3f00 3040 4f01
4000 1740 4001 4000 5f3e 7e01 3e00 4740
3c01 4000 1540 6601 4000 1740 7001 4000
483f 7201 3f00 173f 6301 3f00 3040 4f01
4000 1740 4001 4000 5f3e 7e01 3e00 4740
3c01 4000 1540 6601 4000 1740 7001 4000
483f 7201 3f00 173f 6301 3f00 3040 4f01
4000 1740 4001 4000 5f3e 7e01 3e00 4740
3c01 4000 1540 6601 4000 1740 7001 4000
483f 7201 3f00 173f 6301 3f00 3040 4f01
4000 1740 4001 4000 5f3e 7e01 3e00 4740
3c01 4000 1540 6601 4000 1740 7001 4000
483f 7201 3f00 173f 6301 3f00 3040 4f01
4000 1740 4001 4000 5f3e 7e01 3e00 4740
3c01 4000 1540 6601 4000 1740 7001 4000
483f 7201 3f00 173f 6301 3f00 3040 4f01
4000 1740 4001 4000 5f3e 7e01 3e00 4740
3c01 4000 1540 6601 4000 1740 7001 4000
483f 7201 3f00 173f 6301 3f00 3040 4f01
4000 1740 4001 4000 5f3e 7e01 3e00 4740
3c01 4000 1540 6601 4000 1740 7001 4000
483f 7201 3f00 173f 6301 3f00 3040 4f01
4000 1740 4001 4000 5f3e 7e01 3e00 4740
3c01 4000 1540 6601 4000 1740 7001 4000
00ff 2f00 4d54 726b 0000 03fc 00ff 2101
0000 ff03 0553 7469 636b 81ed 0099 1f53
011f 0030 1f30 011f 002f 1f25 011f 002f
1f1d 011f 0081 6f1f 5001 1f00 2f1f 3301
1f00 2d1f 2801 1f00 311f 1d01 1f00 816f
1f50 011f 002f 1f31 011f 002e 1f2b 011f
0030 1f20 011f 0081 6f1f 5101 1f00 2f1f
3101 1f00 2e1f 2801 1f00 301f 1d01 1f00
816e 1f53 011f 0030 1f30 011f 002f 1f25
011f 002f 1f1d 011f 0081 6f1f 5001 1f00
2f1f 3301 1f00 2d1f 2801 1f00 311f 1d01
1f00 816f 1f50 011f 002f 1f31 011f 002e
1f2b 011f 0030 1f20 011f 0081 6f1f 5101
1f00 2f1f 3101 1f00 2e1f 2801 1f00 301f
1d01 1f00 816e 1f53 011f 0030 1f30 011f
002f 1f25 011f 002f 1f1d 011f 0081 6f1f
5001 1f00 2f1f 3301 1f00 2d1f 2801 1f00
311f 1d01 1f00 816f 1f50 011f 002f 1f31
011f 002e 1f2b 011f 0030 1f20 011f 0081
6f1f 5101 1f00 2f1f 3101 1f00 2e1f 2801
1f00 301f 1d01 1f00 816e 1f53 011f 0030
1f30 011f 002f 1f25 011f 002f 1f1d 011f
0081 6f1f 5001 1f00 2f1f 3301 1f00 2d1f
2801 1f00 311f 1d01 1f00 816f 1f50 011f
002f 1f31 011f 002e 1f2b 011f 0030 1f20
011f 0081 6f1f 5101 1f00 2f1f 3101 1f00
2e1f 2801 1f00 301f 1d01 1f00 816e 1f53
011f 0030 1f30 011f 002f 1f25 011f 002f
1f1d 011f 0081 6f1f 5001 1f00 2f1f 3301
1f00 2d1f 2801 1f00 311f 1d01 1f00 816f
1f50 011f 002f 1f31 011f 002e 1f2b 011f
0030 1f20 011f 0081 6f1f 5101 1f00 2f1f
3101 1f00 2e1f 2801 1f00 301f 1d01 1f00
816e 1f53 011f 0030 1f30 011f 002f 1f25
011f 002f 1f1d 011f 0081 6f1f 5001 1f00
2f1f 3301 1f00 2d1f 2801 1f00 311f 1d01
1f00 816f 1f50 011f 002f 1f31 011f 002e
1f2b 011f 0030 1f20 011f 0081 6f1f 5101
1f00 2f1f 3101 1f00 2e1f 2801 1f00 301f
1d01 1f00 816e 1f53 011f 0030 1f30 011f
002f 1f25 011f 002f 1f1d 011f 0081 6f1f
5001 1f00 2f1f 3301 1f00 2d1f 2801 1f00
311f 1d01 1f00 816f 1f50 011f 002f 1f31
011f 002e 1f2b 011f 0030 1f20 011f 0081
6f1f 5101 1f00 2f1f 3101 1f00 2e1f 2801
1f00 301f 1d01 1f00 816e 1f53 011f 0030
1f30 011f 002f 1f25 011f 002f 1f1d 011f
0081 6f1f 5001 1f00 2f1f 3301 1f00 2d1f
2801 1f00 311f 1d01 1f00 816f 1f50 011f
002f 1f31 011f 002e 1f2b 011f 0030 1f20
011f 0081 6f1f 5101 1f00 2f1f 3101 1f00
2e1f 2801 1f00 301f 1d01 1f00 816e 1f53
011f 0030 1f30 011f 002f 1f25 011f 002f
1f1d 011f 0081 6f1f 5001 1f00 2f1f 3301
1f00 2d1f 2801 1f00 311f 1d01 1f00 816f
1f50 011f 002f 1f31 011f 002e 1f2b 011f
0030 1f20 011f 0081 6f1f 5101 1f00 2f1f
3101 1f00 2e1f 2801 1f00 301f 1d01 1f00
816e 1f53 011f 0030 1f30 011f 002f 1f25
011f 002f 1f1d 011f 0081 6f1f 5001 1f00
2f1f 3301 1f00 2d1f 2801 1f00 311f 1d01
1f00 816f 1f50 011f 002f 1f31 011f 002e
1f2b 011f 0030 1f20 011f 0081 6f1f 5101
1f00 2f1f 3101 1f00 2e1f 2801 1f00 301f
1d01 1f00 00ff 2f00 4d54 726b 0000 0065
00ff 2101 0000 ff03 0957 6f6f 6462 6c6f
636b 82a3 5f99 4c6e 014c 0086 014c 7201
4c00 8601 4c70 014c 0085 7b4c 6e01 4c00
8601 4c72 014c 0085 7d4c 6e01 4c00 8601
4c72 014c 0085 7f4c 7201 4c00 857f 4c72
014c 0085 7f4c 7201 4c00 857f 4c72 014c
0000 ff2f 